<?xml version="1.0" encoding="utf-8"?>
<!-- Generator: Adobe Illustrator 22.1.0, SVG Export Plug-In . SVG Version: 6.00 Build 0)  -->
<svg version="1.1" id="alfred" xmlns="http://www.w3.org/2000/svg" xmlns:xlink="http://www.w3.org/1999/xlink" x="0px" y="0px"
	 viewBox="0 0 270 500" enable-background="new 0 0 270 500" xml:space="preserve">
<g id="shadow">
	<ellipse opacity="0.3" enable-background="new    " cx="180.4" cy="437.5" rx="38" ry="14.9"/>
</g>
<g id="full-body">
	<g id="leg-right-full">
		<g id="foot-right">
			<path fill="#1E1E1E" stroke="#000000" stroke-miterlimit="10" d="M182,431.3c-2.8,2.7-10.4,5.7-15.9,4.9
				c-2.1-0.4-4.9-1.9-5.5-3.3c-1.3-2.8,6.1-6.5,8.9-8.1c3.2-1.7,9-6.4,11.6-4.1C183.1,422.2,183.8,429.5,182,431.3z"/>
			<path fill="#0F0E0D" d="M179.2,421c-1.8,0-4.9,1.9-7,3.3c-0.8,0.5-1.6,1-2.2,1.3l-0.8,0.5c-7.2,3.9-7.8,5.5-7.5,6.1
				c0.4,0.8,2.8,2.3,4.5,2.7c5.2,0.8,12.4-2.2,14.8-4.5c0.4-0.4,0.7-1.7,0.7-3.6c-0.1-2.5-0.8-4.7-1.5-5.3
				C180,421.1,179.7,421,179.2,421z"/>
		</g>
		<g id="leg-right">
			<path fill="#1E1E1E" stroke="#000000" stroke-miterlimit="10" d="M182.8,422.7l0.6-42.1c-0.1-4.9-9.8-8.6-9.8-8.6
				c-5.5-2.5-9.9-1.6-9.8,3.4l4.6,49.1C168.6,427.1,183,427.5,182.8,422.7z"/>
			<path fill="#0F0E0D" d="M177,374.9c0.6,1.8,1,3.6,1,5.6c0,4.4-0.8,10.9-0.6,13.8v0.1c1,5.8,1,11.8,1.3,17.7
				c0.2,5.6-1.1,12.4-8,12.3c-0.1,0-0.2,0-0.5,0c0,0,0,0-0.1,0c1.7,0.7,6.8,1.1,9.9-0.1c1.1-0.5,1.7-1,1.7-1.7l0,0l0.6-42.1
				C182.2,378.4,179.6,376.4,177,374.9z"/>
		</g>
	</g>
	<g id="arm-right-full">
		<g id="arm-right-full-pos-1">
			<g id="hand-right-pos-1">
				<path fill="#FFFFFF" stroke="#000000" stroke-miterlimit="10" d="M154.7,384.8l2.1-0.6c2.4-0.7,3.8-3.2,3-5.6l-1.2-4.2
					c-0.7-2.4-3.2-3.8-5.6-3l-2.1,0.6c-2.4,0.7-3.8,3.2-3,5.6l1.2,4.2C149.8,384.1,152.3,385.4,154.7,384.8z"/>
				<path fill="#E3F5FF" d="M157.1,381.4c-0.4,0.2-0.8,0.5-1.3,0.6c-2.4,0.5-4.6-1-5.1-3.4c0-0.4-0.1-0.6-0.1-0.8
					c-0.5-0.1-1-0.1-1.5-0.2l1.1,4c0.2,0.8,0.7,1.6,1.6,1.9c0.7,0.5,1.7,0.5,2.4,0.2l2.1-0.6c1-0.2,1.7-1,2.1-1.9
					C158.1,381.3,157.6,381.4,157.1,381.4z"/>
				<path fill="#E3F5FF" stroke="#000000" stroke-miterlimit="10" d="M160.8,380.1L160.8,380.1c1.1-0.4,1.6-1.5,1.2-2.4l-1.5-4.2
					c-0.4-1-1.5-1.5-2.4-1.2H158c-1,0.4-1.5,1.5-1.2,2.4l1.5,4.2C158.8,379.9,159.8,380.4,160.8,380.1z"/>
			</g>
			<g id="arm-right-pos-1">
				<path fill="#FFFFFF" stroke="#000000" stroke-miterlimit="10" d="M154,369c2.4-0.5,4.9-0.8,6.8-2.1c0.1,2.7,0.2,5,0.6,6.4
					c1.1,4.9-13.9,5.7-14.4,3c-0.4-2.1-0.6-4-1-6.1C149.1,370,152.3,369.3,154,369z"/>
				<path fill="#1E1E1E" stroke="#000000" stroke-miterlimit="10" d="M162.1,369.4c-1.5-6.9-0.6-28.1,3.3-45
					c1.1-5-3.9-12.5-9.2-12.7l0,0c-5.3-0.2-8.5,5.5-10.2,11.9c-3.4,12.4-4,31.3-0.7,49.4C145.6,376,163.3,374.9,162.1,369.4z"/>
				<path fill="#0F0E0D" d="M161.9,316.6c-1.7-2.2-3.9-3.5-5.8-3.6c-1.5,0-2.7,0.5-3.8,1.3c0.6,0.5,1.2,1.2,1.8,1.9
					c1.9,2.4,2.8,5.5,2.3,7.5c-3.8,16.6-4.9,38.1-3.3,45.6c0.1,0.7-0.5,1.5-1.7,2.1c-1.5,0.7-3.2,1.1-5,1.3c1.5,1,8.6,1.1,12.7-1
					c1.3-0.6,1.9-1.3,1.7-2.1c-1.6-7.4-0.6-29,3.3-45.6C164.6,322,163.7,319,161.9,316.6z"/>
			</g>
		</g>
		<g id="arm-right-full-pos-2">
			<path fill="#1E1E1E" d="M157.2,352.3c0.6-1.9,0.1-4-1-5.8c0.1-0.4,0.1-0.7,0-1.1c-0.5-2.7-1.5-5.3-2.9-7.6
				c-0.6-1.1-2.2-1.6-3.3-0.8c-2.2,1.3-4.6,2.5-7,3.5c-0.7,0.2-1.2,0.8-1.5,1.5c-1.5,0.1-2.8,0.7-3.9,1.7c-0.2,0.2-0.5,0.5-0.7,0.8
				c-1.3-1.8-4.6-0.8-4.4,1.5c-1.5-2.5-5.5-0.1-4.1,2.5c0.4,0.7,0.7,1.5,1.1,2.1c-1.3-2.2-5.3-1-4.4,1.8c3.4,9.8,10.3,18,19.8,22.6
				c2.8,1.3,5.2-2.8,2.4-4.2c-4.6-2.3-8.6-5.5-11.8-9.3c1.3,1.5,2.8,2.9,4.5,4c1.6,1.1,3.4,1.8,5.2,2.2c1.7,1.1,3.5,2.2,5.3,3.2
				c2.7,1.5,5.1-2.5,2.5-4.1c2.5-1.6,4.1-5,2.5-7.8c0.8-0.4,1.5-1.2,1.6-2.3c0.1-0.8,0.1-1.7,0.2-2.4
				C158,353.4,157.7,352.8,157.2,352.3z"/>
			<path fill="#0F0E0D" d="M155.4,355.5c-1.7-3.3,0.7-6.8-1.2-10.2c-0.5-0.8-1.5-0.7-1.9-0.1c-0.6,0-1.2,0.4-1.3,1.2
				c-0.1,1.6-0.5,2.9-0.8,4.4l-0.1-0.1l0,0l-0.1-0.1c-0.6-0.5-1.3,0-1.7,0.5c-0.8-0.5-1.8,0-1.9,1c-0.1,0.4-0.1,0.7-0.1,1.1
				c-0.4-0.1-0.6,0-1,0.1c-0.7-0.4-1.6,0.4-1.6,1.1c0,0.4,0,0.6,0,0.8l0,0c-0.5-0.4-1-0.8-1.5-1.2c-0.6-0.5-1.8-0.5-2.1,0.5v0.1
				c-0.1-0.1-0.4-0.2-0.5-0.2c-0.5-0.5-0.8-1.1-1.3-1.6c-0.6-0.8-2.2-0.1-2.1,0.8c0.1,1.5,0.6,2.8,1.1,3.9c-0.8-1-1.7-2.1-2.5-3
				c-0.2-0.2-0.5-0.4-0.7-0.4c-0.1-0.1-0.1-0.4-0.2-0.5c-0.6-1.5-2.9-0.8-2.3,0.6c2.8,7.2,8.1,12.4,15.3,15.2l0,0l0,0
				c0.1,0,0.2,0.1,0.2,0.1c1.2,0.5,2.2-1.6,1-2.2c-0.1,0-0.1-0.1-0.2-0.1c0.2-0.2,0.4-0.6,0.4-1.1c0.5-0.2,0.7-0.8,0.5-1.3
				c-0.1-0.1-0.1-0.4-0.2-0.5c0.4,0.1,0.7,0.2,1,0.4c0.5,0.1,0.8,0,1.1-0.2c0.1,0,0.2,0,0.4,0c1.1,0.1,1.8-1,1.3-1.7
				c0.2-0.2,0.4-0.6,0.2-1.1c-0.1-0.4-0.2-0.6-0.4-1c0.7,0,1.5-0.7,1.1-1.5c-0.1-0.4-0.2-0.7-0.4-1c0.5-0.1,1-0.5,1.1-1.2v-0.1
				c0,0,0.1,0,0.1,0.1C154.8,357.7,155.9,356.6,155.4,355.5z"/>
			<path fill="#E3F5FF" d="M144.5,376.1c-0.1,0-0.1-0.1-0.2-0.1c0.2-0.5,0.2-1.2-0.5-1.6c-3.6-1.8-6.9-4.1-9.8-6.9
				c-0.8-0.8-2.1,0-2.1,0.8c-4-3.6-7.3-8.1-9.6-13.2c-0.6-1.5-2.7-0.2-2.1,1.2c0.4,1,0.8,1.8,1.3,2.8c-0.7,0.1-1.3,1-0.8,1.7
				c1.6,2.3,3.3,4.5,5.1,6.7c0.5,0.6,1.2,0.5,1.7,0c4.4,4.9,9.9,8.5,16.3,10.9C145.4,379,146,376.7,144.5,376.1z"/>
		</g>
		<g id="arm-right-full-pos-3">
			<g id="hand-right-pos-3">
				<path fill="#FFFFFF" stroke="#000000" stroke-miterlimit="10" d="M112.2,345.4l0.6-2.1c0.7-2.3,3.2-3.8,5.6-3l4.2,1.2
					c2.3,0.7,3.8,3.2,3,5.6l-0.6,2.1c-0.7,2.3-3.2,3.8-5.6,3l-4.2-1.2C113,350.3,111.5,347.7,112.2,345.4z"/>
				<path fill="#E3F5FF" d="M115.6,343c-0.2,0.4-0.5,0.8-0.6,1.3c-0.5,2.4,1,4.6,3.4,5.1c0.4,0,0.6,0.1,0.8,0.1
					c0.1,0.5,0.1,1,0.2,1.5l-4-1.1c-0.8-0.2-1.6-0.8-1.9-1.6c-0.4-0.7-0.5-1.7-0.2-2.4l0.6-2.1c0.2-1,1-1.7,1.9-2.1
					C115.8,342,115.6,342.5,115.6,343z"/>
				<g>
					
						<path fill="#383838" stroke="#000000" stroke-width="0.5" stroke-linecap="round" stroke-linejoin="round" stroke-miterlimit="10" d="
						M127.8,329.8c-4.7-3.8-11.6-3.8-15.4-0.1c0.1,0.1-0.1,1.1-0.1,1.5c1.9,0,3,1.5,2.9,3.8c-0.2,1.1-0.6,2.2-1.3,3l-2.7-1.6
						l-2.1,2.1l-0.1,1.5l1.2,1.2c-1.1,0.6-2.4,1-3.8,1.2c-2.9,0.5-4.9-0.4-5.1-2.1c-1.6,1.5-2.3,3.4-2.3,5.3c-0.7,3.2,0.7,6.8,4,9.3
						c0.1-1.1,0.5-2.1,1.3-2.8c1.7-1.7,4.6-1.9,7-1c0-1.2,0.5-2.4,1.5-3.4c1.7-1.6,5.8-3,8.2-2.3c0-0.4,0.1-0.8,0.1-1.5
						c-0.6-1.1-1.2-1.9-1.5-2.8c0.1-0.2,0.2-0.5,0.5-0.7c1-1,2.3-1.5,3.8-1.7c0-0.4,0.1-1.3,0.1-1.5c-0.6-0.8-1-1.8-1-2.8
						c0.2-0.7,0.6-1.5,1.2-1.9c0.8-0.8,1.9-1.3,3-1.5C127.7,331.1,127.8,330.1,127.8,329.8z"/>
					<g>
						
							<path fill="#666666" stroke="#000000" stroke-width="0.5" stroke-linecap="round" stroke-linejoin="round" stroke-miterlimit="10" d="
							M112.4,329.5c1.9,0,3.2,1.6,2.9,4.1c-0.1,1.6-0.6,3-1.5,4.2l-2.7-1.6l-2.1,2.1l2.1,2.2c-1.3,0.8-2.9,1.5-4.7,1.8
							c-2.9,0.5-4.9-0.4-5.1-2.1c-3.8,3.6-2.9,9.6,1.8,13.3c0.1-1.1,0.5-2.1,1.3-2.8c1.7-1.7,4.6-1.9,7-1c0-1.2,0.5-2.4,1.5-3.4
							c1.7-1.6,5.8-3,8.2-2.3c-1.1-2.1-2.4-3.4-0.7-5c1-1,2.3-1.5,3.8-1.7c-1.5-2.1-1.3-4.5,0.4-6.2c0.8-0.8,1.9-1.3,3-1.5
							C123,326.1,116.1,325.9,112.4,329.5z"/>
						
							<line fill="none" stroke="#000000" stroke-width="0.5" stroke-linecap="round" stroke-linejoin="round" stroke-miterlimit="10" x1="111.2" y1="336.4" x2="109.2" y2="335.2"/>
						
							<line fill="none" stroke="#000000" stroke-width="0.5" stroke-linecap="round" stroke-linejoin="round" stroke-miterlimit="10" x1="107.6" y1="336.8" x2="109.1" y2="338.4"/>
					</g>
					
						<path fill="#FFFFFF" stroke="#000000" stroke-width="0.5" stroke-linecap="round" stroke-linejoin="round" stroke-miterlimit="10" d="
						M111.8,342c0.8,0.4,2.1,0.6,3.3,0.6c2.8,0,5.1-1.1,5.1-2.5c0-1.5-2.3-2.5-5.1-2.5s-5.1,1.1-5.1,2.5c0,0.6,0.4,1.1,1,1.5"/>
					<g id="batsign-remote-button">
						
							<path fill="#FF0000" stroke="#000000" stroke-width="0.5" stroke-linecap="round" stroke-linejoin="round" stroke-miterlimit="10" d="
							M113,336c0,0,0,3,0,3.5c0,0.5,1,0.8,2.2,0.8s2.2-0.4,2.2-0.8s0-3.5,0-3.5"/>
						
							<path fill="#FF8080" stroke="#000000" stroke-width="0.5" stroke-linecap="round" stroke-linejoin="round" stroke-miterlimit="10" d="
							M114.7,336.8c0.1,0,0.2,0,0.4,0c1.2,0,2.2-0.4,2.2-0.8c0-0.5-1-0.8-2.2-0.8s-2.2,0.4-2.2,0.8c0,0.2,0.4,0.6,1,0.7"/>
					</g>
					
						<path fill="#666666" stroke="#000000" stroke-width="0.5" stroke-linecap="round" stroke-linejoin="round" stroke-miterlimit="10" d="
						M117.2,338.4c0,0.5,0,1,0,1.1c0,0.5-1,0.8-2.2,0.8s-2.2-0.4-2.2-0.8c0-0.1,0-0.6,0-1.1c-0.8,0.4-1.5,0.8-1.5,1.3
						c0,1,1.6,1.7,3.6,1.7c1.9,0,3.6-0.7,3.6-1.7C118.7,339.2,118.1,338.6,117.2,338.4z"/>
				</g>
				<path id="hand-right-thumb-pos-3" fill="#E3F5FF" stroke="#000000" stroke-miterlimit="10" d="M116,333.8c0-1.1,1.5-1.5,2.4-1.1
					l2.4,0.8l1.8,0.6c1,0.4,4.9,7.4,5.1,8.4c0.6,1.8-0.1,4.5-0.8,4.9c-1.5,0.6-5.2-0.8-4.7-3.4c0.5-2.7-1.7-6.1-1.7-6.1l-2.9-1
					C116.6,336.4,116,334.6,116,333.8z"/>
			</g>
			<g id="arm-right-pos-3">
				<path fill="#FFFFFF" stroke="#000000" stroke-miterlimit="10" d="M130.7,346.9c0.6-2.4,1.2-4.9,2.4-6.5c-2.7-0.2-4.9-0.6-6.3-1
					c-4.7-1.3-6.5,13.5-4,14.2c1.9,0.5,4,1,5.9,1.3C129.2,351.7,130.2,348.7,130.7,346.9z"/>
				<path fill="#1E1E1E" stroke="#000000" stroke-miterlimit="10" d="M129.6,339.2c21.5,5,10.7-1.9,18-17.7c2.1-4.6,10.7-7.5,15-4.5
					l0,0c4.4,3,3.8,9.7,0.8,15.6c-17.1,34.3-17.3,23.2-38,22.4C122.4,355.1,124.1,338,129.6,339.2z"/>
				<path fill="#0F0E0D" d="M161.9,318.3c-0.7-0.6-1.8-0.8-2.9-1c1.2,3.3,0.1,7.9-1.7,11.4c-12.7,25.7-15.4,25.2-25.3,23.3
					c-1.9-0.4-4.2-0.8-6.8-1.1c0,1.6,0.1,2.9,0.5,3.4c4.7,0.2,8.4,1,11.4,1.5c9.8,1.9,12.5,2.4,25.3-23.3
					C164.8,327.5,166,321,161.9,318.3z"/>
			</g>
		</g>
	</g>
	<g id="body">
		<g id="trunk">
			<path fill="#1E1E1E" stroke="#000000" stroke-miterlimit="10" d="M180.7,381.1l-4-0.2c-8-0.5-16.3-3.3-19.2-27
				c-0.5-3.5-5.5-21.2-5.6-27.8c0.8-14.9,13.6-18.7,28.9-17.8l7.9,0.5c15.3,0.8,28.1,6.4,26.8,18.2c0,0-11.6,13.6-15.5,37.2
				C197.5,379.1,189.6,381.7,180.7,381.1z"/>
			<path fill="#0F0E0D" d="M211.8,318.3c-3.9-4.6-11.8-7.4-22.3-8.1c2.1,1.6,4,3.4,5.8,5.5c5.3,6.1,6.7,14.6,2.9,21.3
				c-0.1,1.6-0.5,3.2-0.8,4.9c-0.4,1.5-1,2.9-1.7,4.1c-0.6,2.5-1.3,5-2.2,7.5l0.1,0.6c0,1.1,0,2.2-0.2,3.4c0.1,1.3,0,2.5-0.2,3.9
				c-0.1,2.4-0.8,4.6-2.1,6.7c-0.4,0.8-0.8,1.2-1.6,2.2c-1.8,2.4-0.8,1.5-3.3,3.3s-1.2,1.1-4,2.3c-1.3,0.8-2.9,1.2-4.5,1.2
				c-1.1,0.2-2.3,0.4-3.4,0.2c-0.5,0-0.8,0.1-1.3,0.1c-1.3,0-2.7-0.1-4-0.5c-0.2,0-0.5-0.1-0.7-0.1c-0.6-0.1-1.2-0.4-1.8-0.6
				c3.2,3.2,6.7,3.8,10.3,4l4,0.2c8,0.5,15.6-1.2,18.1-15.9c3.6-22.1,13.8-35.4,15.5-37.6C214.6,323.2,213.8,320.4,211.8,318.3z"/>
		</g>
		<g id="shirt">
			<path fill="#FFFFFF" stroke="#000000" stroke-miterlimit="10" d="M166.1,331.1c1.7,17,8,29.1,8,29.1s10.2-21.1,10.6-28.7
				c0,0,1.9-20,7.3-22.4c-7.4-1.1-14.9-0.8-15.9-0.8C170.1,311.7,165,318.9,166.1,331.1z"/>
			<path fill="#E3F5FF" d="M186.1,309.8c-2.2,7.3-4,14.2-5.3,21.7c-1.1,6.7-2.7,13.5-4.5,20c-0.1,0.4-0.2,0.6-0.5,0.7
				c-0.5,1.1-1.1,2.2-1.5,3.3c-0.1,0.4-0.4,0.7-0.6,0.8c0.1,0.4,0.4,0.8,0.5,1.1c2.7-5.7,9-20,9.3-26c0.2-1.8,1.7-15.9,5.7-21.5
				C188.3,309.8,187.2,309.8,186.1,309.8z"/>
		</g>
		<g id="details">
			<path fill="none" stroke="#000000" stroke-miterlimit="10" d="M191.9,308.9c-9.5,7-9.5,58.6-9.5,58.6s12,0.7,17-1.2"/>
			<path fill="none" stroke="#000000" stroke-miterlimit="10" d="M176.2,308.2c-16.3,12.4-7.9,22.7-7.8,58.6c0,0-6.5-0.1-8.7-1.7"/>
			<path fill="none" stroke="#000000" stroke-miterlimit="10" d="M182.6,308.6c-11.5,10.2-10.2,16.9-8,59.2c0,0-5.3,2.7-13.1,2.3"/>
			<path fill="none" stroke="#000000" stroke-miterlimit="10" d="M199,368.8c0,0-13.6,4.7-24.4-1.1"/>
			<polyline fill="none" stroke="#000000" stroke-miterlimit="10" points="182.8,355.2 194.4,332.3 189.1,328.9 195.6,322.7 
				188.2,314.7 			"/>
			<polyline fill="none" stroke="#000000" stroke-miterlimit="10" points="167.7,355.4 158.8,331.2 164.4,328.6 158.7,321.5 
				166.9,314.6 			"/>
		</g>
	</g>
	<polygon id="necktie" points="183.8,324.6 174.3,320.2 166.9,323.1 166.6,314.7 175.3,317.2 184.3,315.8 	"/>
	<g id="leg-left-full">
		<g id="foot-left">
			<path fill="#1E1E1E" stroke="#000000" stroke-miterlimit="10" d="M196.9,432.4c-2.1,2.4-5.1,5.9-9.8,8.4
				c-3.2,1.7-9.1-0.6-9.5-2.7c-0.8-5.9,6.3-11.4,6.9-12.9c1.5-3.3,9-6.4,11.6-4.1C198.4,422.8,198.6,430.2,196.9,432.4z"/>
			<path fill="#0F0E0D" d="M193.8,421.5c-0.5,0-1.1,0.1-1.7,0.2c-2.7,0.6-5.6,2.4-6.3,4c-0.2,0.6-0.8,1.2-1.7,2.2
				c-2.2,2.3-5.7,6.2-5.2,10.1c0,0.1,0.4,0.6,1.5,1.2c1.8,1,4.6,1.5,6.2,0.6c4.4-2.3,7.2-5.3,9.5-8.1c1.3-1.6,1-8.4-0.5-9.6
				C195.1,421.6,194.5,421.5,193.8,421.5z"/>
		</g>
		<g id="leg-left">
			<path fill="#1E1E1E" stroke="#000000" stroke-miterlimit="10" d="M183.7,424.5l-3.4-41.8c-0.5-6.8,17.7-13.8,17.5-8.1l0.5,50.9
				C198.1,427.7,183.8,429.4,183.7,424.5z"/>
			<path fill="#0F0E0D" d="M191.9,383.6c0.8,13.7,4.6,28.7,1.5,42.6c1.8-0.2,3.2-0.7,3.6-1.1l-0.5-50.7c0-0.5-0.1-0.6-0.2-0.6
				c-0.4-0.1-0.7-0.2-1.3-0.2c-1.3,0-3.4,0.5-5.5,1.3C190.8,377.4,191.8,380.5,191.9,383.6z"/>
		</g>
	</g>
	<g id="arm-left-full">
		<g id="hand-left">
			<path fill="#E3F5FF" stroke="#000000" stroke-miterlimit="10" d="M206.5,381.9L206.5,381.9c-1.1-0.2-1.7-1.3-1.5-2.3l1.1-4.4
				c0.2-1,1.3-1.6,2.3-1.3h0.1c1,0.2,1.6,1.3,1.3,2.3l-1.1,4.4C208.6,381.6,207.5,382.2,206.5,381.9z"/>
			<path fill="#FFFFFF" stroke="#000000" stroke-miterlimit="10" d="M212.9,386.3l-2.2-0.5c-2.4-0.5-4-2.9-3.5-5.3l0.8-4.2
				c0.5-2.4,2.9-4,5.3-3.5l2.2,0.5c2.4,0.5,4,2.9,3.5,5.3l-0.8,4.2C217.8,385.2,215.3,386.8,212.9,386.3z"/>
			<path fill="#E3F5FF" d="M217.5,375.7c-0.5-0.7-1.2-1.2-2.1-1.5l-2.1-0.4c0.7,0.6,1.2,1.3,1.5,2.3c0,0.2,0.1,0.5,0.1,0.6
				c0.2,0.5,0.6,1,0.7,1.5c0.4,1.1,0,2.5-0.6,3.5c-0.7,1.2-2.3,2.1-3.8,1.9c-1.1-0.1-1.8-0.5-2.5-1c0.1,0.1,0.1,0.4,0.2,0.5
				c0.5,0.7,1.2,1.2,2.1,1.5l2.2,0.5c0.8,0.1,1.7,0,2.4-0.5c0.7-0.5,1.2-1.2,1.5-2.1l0.8-4.2C218.1,377.4,217.9,376.5,217.5,375.7z"
				/>
		</g>
		<g id="arm-left">
			<path fill="#FFFFFF" stroke="#000000" stroke-miterlimit="10" d="M212.6,370.4c-2.4-0.4-5-0.5-6.9-1.6c0.1,2.7,0.1,5-0.1,6.4
				c-0.7,4.9,14.3,4.7,14.6,1.9c0.2-2.1,0.4-4,0.5-6.1C217.4,371.1,214.3,370.5,212.6,370.4z"/>
			<path fill="#1E1E1E" stroke="#000000" stroke-miterlimit="10" d="M204.4,371.5c1-7-1.3-28.1-6.4-44.6c-1.5-4.9,3-12.7,8.4-13.3
				l0,0c5.3-0.6,8.9,4.9,11,11.2c4.2,12.1,6.2,30.9,4.2,49.1C221.3,376.7,203.7,377,204.4,371.5z"/>
			<path fill="#0F0E0D" d="M216.2,325c-1.8-5-4.9-10.9-9.7-10.3c-1.7,0.2-3.5,1.5-5,3.4c0.7-0.4,1.3-0.6,2.1-0.7
				c4.9-0.5,8,5.3,9.7,10.3c4.2,12.1,5.9,30,4.4,46.7c1.5-0.2,2.4-0.5,2.8-0.8C222.3,356.2,220.7,337.7,216.2,325z"/>
		</g>
	</g>
	<g id="head">
		<g id="head-bg">
			<path fill="#FFE5C2" d="M160.6,317.8c-9.3,0-16.9-7.6-16.9-16.9c-1.1-11.8-3.6-39.7-3.6-40.1c0-18.1,18.8-32.7,41.8-32.7
				c21,0,34.6,12.9,34.6,32.7c0,2.1,0,4.1-0.1,6.2c3.3,0.4,5,2.4,5,5.9v0.1l-1.2,9.7c0,3.2-1.3,5-3.8,5.7c0.1,1,0,1.8-0.1,2.8
				c-0.8,4.2-4,7.3-7.5,7.3l0,0c-0.4,0-0.7,0-1.1-0.1c-0.4-0.1-0.8-0.2-1.2-0.4c-0.7,1.2-1.5,2.7-2.1,4.5
				c-5.2,13-10.6,15.3-19.3,15.3C185.1,317.8,160.6,317.8,160.6,317.8z"/>
			<path d="M182,229.2c22.4,0,33.4,14.1,33.4,31.5c0,2.5,0,5-0.1,7.3c3.4,0,5,1.5,5,4.9l-1.2,9.7c0,3-1.2,4.5-4,4.9
				c0.2,1.1,0.2,2.3,0,3.5c-0.7,3.6-3.4,6.3-6.3,6.3c-0.2,0-0.6,0-0.8-0.1c-0.7-0.1-1.3-0.4-1.8-0.8c-0.8,1.2-1.7,3-2.8,5.7
				c-4.9,12.1-9.5,14.6-18.1,14.6h-24.5c-8.6,0-15.6-7-15.6-15.6c0,0-3.6-39.7-3.6-40.1C141.4,243.4,159.6,229.2,182,229.2
				 M182,226.8c-23.8,0-43.1,15.3-43.1,34c0,0.1,0,0.6,3.6,40.3c0.1,9.9,8.1,18,18.1,18H185c10.6,0,15.5-3.9,20.4-16.1
				c0.5-1.3,1.1-2.4,1.6-3.4c0.1,0,0.2,0.1,0.4,0.1c0.5,0.1,0.8,0.1,1.3,0.1c4.1,0,7.8-3.5,8.6-8.2c0.1-0.7,0.2-1.5,0.2-2.2
				c2.4-1,3.8-3.3,3.8-6.4l1.2-9.6v-0.1V273c0-3.8-1.7-6.2-5-7c0-1.7,0.1-3.4,0.1-5.1C217.8,240.1,203.7,226.8,182,226.8L182,226.8z
				"/>
			<path fill="#FFFFFF" d="M183.1,231.3c1.3-0.2,2.7-0.4,4-0.5c-1.6-0.1-3.3-0.2-5.1-0.2c-12.7,0-24.1,4.7-31.3,11.9
				C160.4,236.4,172.4,232.9,183.1,231.3z"/>
			<path fill="#F4D6B3" d="M208.8,292.4c2.2-0.7,5.3-11.3,5.3-31.7c0-1.1-0.1-2.3-0.2-3.6c-0.1-0.5-0.4-1.1-0.5-1.6
				c-0.1-0.1-0.2-0.6-1-2.1c-0.2-0.5-0.4-0.8-0.5-1.2l-0.6-1.1c-0.2-0.1-0.6-0.2-0.8-0.4c-3.4-0.1-8,0.2-11.4,0.6
				c-0.1,0.1-0.4,0.2-0.5,0.4c-0.5,0.7-1,1.7-1.5,2.8c-0.4,1-1.2,4.2-1.7,6.8c-1.2,5.5-0.4,10.4,0.6,15.8c0.4,2.2,0.7,4.4,1,6.7
				c0,0.4,0,0.6,0,1c0.2,1.1,0.4,2.1,0.5,3c1.1,10.8-5.8,19.6-17.6,22.3c-4.1,1-18.2,3.8-28,0.7c-0.8-0.2-1.7-0.6-2.5-1
				c2.7,3.4,6.9,5.6,11.4,5.6h24.4c7.9,0,12.3-1.9,17-13.8C205,294.2,207.2,292.9,208.8,292.4z"/>
			<path fill="#D8D8D8" stroke="#000000" stroke-miterlimit="10" d="M214,287.4l-10.4,0.5c-3.4,0-6.7-5-7.6-11c-0.2-1.6,0-6.4,0-6.4
				c0-3.4,2.7-3.6,6.1-3.6l13.2,1.2c3.4,0,5,1.5,5,4.9l-1.2,9.7C219,286.1,217.4,287.4,214,287.4z"/>
			<path fill="#FFFFFF" d="M205.6,269.7c1.2,0,2.4,0.1,3.5,0.2c3.2,0,6.5,0.4,9.6,1.3c-0.4-1.6-1.5-2.1-3.6-2.1l-13.3-1.2
				c-3.9,0-4.7,0.5-4.7,2.4c-0.1,1.3-0.2,5,0,6.2c0,0.2,0.1,0.4,0.1,0.6c0.1-1.8,0.4-3.5,1.3-5.1c1.2-1.8,3-2.5,5.1-2.5
				C204.3,269.7,204.9,269.7,205.6,269.7z"/>
			<path fill="#FFE5C2" stroke="#000000" stroke-miterlimit="10" d="M204.3,294.4c0.8,1.5,2.1,2.5,3.6,2.8c3.2,0.6,6.4-2.2,7.2-6.2
				c0.7-4-1.2-7.8-4.4-8.4s-6.4,2.2-7.2,6.2"/>
			<path fill="#F4D6B3" d="M205.4,293.8c0.6,1.2,1.6,1.9,2.8,2.2c1.2,0.2,2.4-0.1,3.4-1.1c1.1-1,1.9-2.4,2.3-4.1
				c0.6-3.4-0.8-6.5-3.4-7c-2.5-0.5-5.1,1.9-5.7,5.2l-1.2-0.2l0.7,5.6L205.4,293.8z"/>
		</g>
		<g id="eyes">
			<path d="M156.2,290.5c-1.8,0.1-2.5-1.3-2.8-2.9c-0.2-1.9,0.6-5.2,1.9-5.5l0,0c1.3-0.2,2.2,0.8,2.3,2.1
				C157.6,284.3,158.8,290.4,156.2,290.5z"/>
			<path d="M177,290.5c1.8,0.1,2.5-1.3,2.8-2.9c0.2-1.9-0.6-5.2-1.9-5.5l0,0c-1.3-0.2-2.2,0.8-2.3,2.1
				C175.4,284.3,174.2,290.4,177,290.5z"/>
		</g>
		<g id="mustache">
			<path d="M168.9,300.2c-4.6,1.3,5.8,3.9,10.2,4.9c0.5,0.1,0.7-0.4,0.4-0.7C177.1,302.6,172.2,299.2,168.9,300.2z"/>
			<path d="M164.3,300.2c3.9,1.3-4.9,3.6-8.4,4.5c-0.4,0.1-0.6-0.4-0.4-0.6C157.6,302.5,161.6,299.5,164.3,300.2z"/>
		</g>
	</g>
	<g id="itens">
		<g id="belt">
			
				<rect x="163.8" y="367.6" fill="#F8A71B" stroke="#000000" stroke-linecap="round" stroke-linejoin="round" stroke-miterlimit="10" width="36.5" height="8.6"/>
			<path fill="#FDF133" stroke="#000000" stroke-linecap="round" stroke-linejoin="round" stroke-miterlimit="10" d="M187,376.2
				c0,1,0.7,1.7,1.7,1.7h4.6c1,0,1.7-0.7,1.7-1.7v-8.6c0-1-0.7-1.7-1.7-1.7h-4.6c-1,0-1.7,0.7-1.7,1.7V376.2z"/>
			<g>
				
					<line fill="none" stroke="#000000" stroke-linecap="round" stroke-linejoin="round" stroke-miterlimit="10" x1="194.8" y1="370.2" x2="189.5" y2="370.2"/>
			</g>
			<g>
				
					<line fill="none" stroke="#000000" stroke-linecap="round" stroke-linejoin="round" stroke-miterlimit="10" x1="191.4" y1="370.2" x2="191.4" y2="371.9"/>
			</g>
			
				<rect x="167.7" y="366.8" fill="#FCC324" stroke="#000000" stroke-linecap="round" stroke-linejoin="round" stroke-miterlimit="10" width="15.5" height="10.3"/>
			<path fill="#666666" stroke="#000000" stroke-linecap="round" stroke-linejoin="round" stroke-miterlimit="10" d="M177.5,369.3
				c0.4,0.4,0.2,0.8-0.4,1.2c-0.5,0.4-1.1,0.5-1.7,0.5s-1.2-0.1-1.7-0.5c-0.6-0.4-0.7-0.8-0.4-1.2c-1.8,0.1-3.2,1.8-3,3.6
				c0.5-0.4,1.2-0.5,1.8-0.5c1.5,0,2.8,0.8,3.4,2.1c0.6-1.2,1.8-2.1,3.4-2.1c0.6,0,1.3,0.1,1.8,0.5
				C180.8,371.1,179.3,369.4,177.5,369.3z"/>
			<path fill="#FDF133" stroke="#000000" stroke-linecap="round" stroke-linejoin="round" stroke-miterlimit="10" d="M165.6,376.2
				c0,1-0.7,1.7-1.7,1.7h-4.6c-1,0-1.7-0.7-1.7-1.7v-8.6c0-1,0.7-1.7,1.7-1.7h4.6c1,0,1.7,0.7,1.7,1.7V376.2z"/>
			<g>
				
					<line fill="none" stroke="#000000" stroke-linecap="round" stroke-linejoin="round" stroke-miterlimit="10" x1="157.7" y1="370.2" x2="163.1" y2="370.2"/>
			</g>
			<g>
				
					<line fill="none" stroke="#000000" stroke-linecap="round" stroke-linejoin="round" stroke-miterlimit="10" x1="161.1" y1="370.2" x2="161.1" y2="371.9"/>
			</g>
		</g>
		<g id="drop">
			<path fill="#FFFFFF" stroke="#000000" stroke-width="2" stroke-miterlimit="10" d="M212.2,235.8c0,9.6-6.7,17.5-15,17.5
				s-15-7.8-15-17.5s14.7-31.8,14.7-31.8S212.2,226.1,212.2,235.8z"/>
			<path fill="#E3F5FF" d="M200.8,212.2c3.6,6.4,7.2,13.8,7.2,18.2c0,9-6.2,16.3-13.8,16.3c-3.8,0-7.2-1.8-9.6-4.6
				c2.2,5.7,7,9.8,12.6,9.8c7.6,0,13.8-7.3,13.8-16.3C211,230,205.3,219.5,200.8,212.2z"/>
		</g>
	</g>
</g>
</svg>
