<?xml version="1.0" encoding="utf-8"?>
<!--Generator: Adobe Illustrator 22.1.0, SVG Export Plug-In . SVG Version: 6.00 Build 0)-->
<svg xmlns="http://www.w3.org/2000/svg" xmlns:xlink="http://www.w3.org/1999/xlink" id="bat-symbol-ico" x="0px" y="0px" style="enable-background:new 0 0 170 82" version="1.1" viewBox="0 0 170 82" xml:space="preserve">
    <style type="text/css">
        .st-bat-symbol-ico{fill:#FFFFFF;}
    </style>
    <g id="bat-full-body">
        <path id="bat-body" d="M91.8,52.6c-0.6,4.3-6.6,15.9-6.6,15.9S78.9,57,78.3,52.6c-0.8-5.7,2-23.9,2-23.9l1,3h7.5l1-3
	C89.8,28.8,92.5,47,91.8,52.6z" class="st-bat-symbol-ico"/>
        <path id="wing-left" d="M83.2,37.4h-5.4c-6-1-11.8-3.4-17-7c-8.3-5.8-10.5-12.4-5.7-17.2c-20.4,0-37,16.6-37,37
	c3.4-2.4,7.6-3.8,12.1-3.8c9.3,0,17.3,6,20.2,14.3c3.9-3.1,9.7-5.4,15.1-5.4c7.6,0,13.7,4,17.7,9.9V37.4z" class="st-bat-symbol-ico"/>
        <path id="wing-right" d="M115.1,13.2c4.8,4.8,2.6,11.4-5.7,17.2c-5.2,3.6-11,6-17,7h-5.6v28.1c3.9-6,10.1-10.2,17.9-10.2
	c5.4,0,11.2,2.3,15.1,5.4c2.9-8.3,10.9-14.3,20.2-14.3c4.5,0,8.7,1.4,12.1,3.8C152.1,29.8,135.5,13.2,115.1,13.2z" class="st-bat-symbol-ico"/>
    </g>
</svg>
