<?xml version="1.0" encoding="utf-8"?>
<!--Generator: Adobe Illustrator 22.1.0, SVG Export Plug-In . SVG Version: 6.00 Build 0)-->
<svg id="batsignal" viewBox="0 0 315 400" x="0px" y="0px" enable-background="new 0 0 315 400" xmlns="http://www.w3.org/2000/svg" xmlns:xlink="http://www.w3.org/1999/xlink" version="1.1" xml:space="preserve">
    <path id="batsignal-bean" fill="#FFF06A" d="M308,102c0,17.9-8.6,34.4-23.2,47.9
            C262.4,170.5,12,367,12,367s49-219.7,49-265s55.3-82,123.5-82S308,56.7,308,102z" enable-background="new    " opacity="0.5"/>
    <ellipse id="batsignal-elipse" cx="184.5" cy="102" fill="#FFF06A" enable-background="new    " opacity="0.5" rx="123.5" ry="82"/>
    <g id="bat-update">
        <path d="M179.7,95c-0.3-0.2-0.9-0.3-1.8-0.3v20.1c1.1,0,1.9-0.2,2.1-0.7s0.4-1.7,0.4-3.8V98.5c0-1.4,0-2.3-0.1-2.7
                C180.2,95.4,180,95.2,179.7,95z"/>
        <path d="M198.2,109.2h2.7c-0.4-3.5-0.8-7.8-1.2-12.9C198.9,102.2,198.4,106.4,198.2,109.2z"/>
        <path d="M241.8,50c27,36.7-41.7,36.7-41.7,36.7l-5-26.7l-5,15.4l-9.2-0.4l-5.8-13.7l-5,25.4C91.8,79.2,131.4,50,131.4,50
                c-59.2,12.9-67.1,58.7-67.1,58.7c60-12.5,58.3,19.2,58.3,19.2c35.4-20.5,62.1,26.2,62.1,26.2c30.4-52.1,64.2-25.4,64.2-25.4
                c-1.3-34.6,55.8-20,55.8-20C299.7,64.2,241.8,50,241.8,50z M147.4,109.9c0,2.3-0.1,3.9-0.2,4.9c-0.2,0.9-0.6,1.9-1.3,2.9
                c-0.7,1-1.7,1.7-2.9,2.3s-2.7,0.8-4.3,0.8c-1.8,0-3.4-0.3-4.8-0.9s-2.4-1.4-3.1-2.4s-1.1-2-1.2-3.1s-0.2-3.3-0.2-6.8V89.5h8v23
                c0,1.3,0.1,2.2,0.2,2.6s0.4,0.6,0.9,0.6s0.8-0.2,1-0.6c0.1-0.4,0.2-1.4,0.2-2.9V89.5h8v20.4H147.4z M167.7,100.7
                c0,2-0.2,3.4-0.6,4.3s-1.1,1.6-2.2,2.1s-2.5,0.7-4.2,0.7h-2.1v12.3h-8V89.5h8c2.2,0,3.8,0.2,5,0.5s2,0.8,2.6,1.5
                c0.6,0.6,1,1.4,1.2,2.3s0.3,2.3,0.3,4.2L167.7,100.7L167.7,100.7z M188.4,111c0,2.7-0.1,4.6-0.4,5.5s-0.7,1.7-1.4,2.2
                c-0.6,0.5-1.4,0.9-2.4,1.1c-0.9,0.2-2.4,0.3-4.3,0.3h-10V89.5h6c3.8,0,6.4,0.2,7.8,0.5c1.4,0.4,2.4,0.9,3.1,1.7
                c0.7,0.8,1.1,1.7,1.3,2.7s0.3,2.9,0.3,5.8V111z M201.5,120.1l-0.4-5.5h-2.8l-0.5,5.5h-8.2l4.1-30.6h11.5l4.6,30.6H201.5z
                 M224.9,95.6h-4.7v24.5h-8V95.6h-4.7v-6.1h17.4L224.9,95.6L224.9,95.6z M240.6,120.1h-13.8V89.5h13.3v6.1h-5.3v5.8h5v5.8h-5v6.7
                h5.8V120.1z"/>
        <path d="M158.5,94.7v7.8c0.2,0,0.4,0,0.6,0c0.7,0,1.2-0.2,1.5-0.5c0.3-0.4,0.4-1.1,0.4-2.2v-2.5c0-1-0.2-1.7-0.5-2
                S159.5,94.7,158.5,94.7z"/>
    </g>
    <path id="bat-select" d="M273,74.5c-13.6-9.7-29.1-15.9-45.7-20.2c5.8,6.7,8.2,14.3,6.5,23c-6.9,16.5-28.7,13.5-34.9,0.8
            c-2.5-4.6-3.3-15-3.6-27l-5.5,10.2c-3.3-1.2-6.6-1-9.9,0l-6-11.1c0.1,15-1.7,25.4-4.7,30.2c-8.9,13.2-28.7,9.7-33.3-3.7
            c-2.5-7.4,0.4-15,5.7-22.7c-13.2,3.2-26.9,7.7-39.6,16.7c-20,13.4-27.6,31.2-20,45.8c8.6,15.1,20.2,26.1,36.1,31.6
            c-5-11.7-5.6-18.9-2.5-22.2c4.8-6.6,18-4.3,29.9,7.7c7.6-10.1,15.3-15.1,23.5-7.2c7.1,6,12.1,15.7,15.8,27.5
            c2.8-13.3,9.1-23.1,18.5-29.9c6.3-3.7,13.1-0.5,20.8,9.7c10.4-12.4,26.2-16.3,31-6.8c3.4,5.1,0.7,13.8-3.8,20.9
            c21.2-7.7,35.3-21.8,38.3-37.5C292,97.5,286.4,85.9,273,74.5z M149.7,118.1c-0.5,1-1.5,1.9-3,2.6s-3.2,1-5.1,1
            c-2.1,0-3.9-0.4-5.5-1.2s-2.5-1.8-3-3.1s-0.7-3-0.7-5.3v-2h7.4v3.7c0,1.1,0.1,1.9,0.3,2.2c0.2,0.3,0.6,0.5,1.1,0.5s0.9-0.2,1.2-0.6
            c0.3-0.4,0.4-1,0.4-1.9c0-1.8-0.2-3-0.7-3.5c-0.5-0.6-1.7-1.5-3.7-2.8s-3.3-2.3-3.9-2.9s-1.2-1.4-1.6-2.5c-0.4-1-0.6-2.4-0.6-4
            c0-2.3,0.3-4.1,0.9-5.1c0.6-1.1,1.6-1.9,2.9-2.5s3-0.9,4.8-0.9c2.1,0,3.8,0.3,5.3,1s2.4,1.5,2.9,2.5s0.7,2.7,0.7,5.2v1.2h-7.4v-2.3
            c0-1.1-0.1-1.7-0.3-2c-0.2-0.3-0.5-0.4-0.9-0.4c-0.5,0-0.8,0.2-1.1,0.6c-0.2,0.4-0.4,1-0.4,1.8c0,1,0.1,1.8,0.4,2.3s1,1.1,2.2,1.9
            c3.5,2.1,5.8,3.8,6.7,5.2c0.9,1.3,1.4,3.5,1.4,6.5C150.5,115.4,150.2,117,149.7,118.1z M166.8,121.1H153V90.5h13.3v6.1H161v5.8h5
            v5.8h-5v6.7h5.8V121.1z M181.9,121.1h-12.8V90.5h8V115h4.8V121.1z M197.6,121.1h-13.8V90.5h13.3v6.1h-5.3v5.8h5v5.8h-5v6.7h5.8
            V121.1z M218.5,103.8h-8v-5.3c0-1.5-0.1-2.5-0.3-2.9c-0.2-0.4-0.5-0.6-1.1-0.6c-0.7,0-1.1,0.2-1.2,0.7c-0.2,0.5-0.3,1.5-0.3,3V113
            c0,1.5,0.1,2.5,0.3,2.9c0.2,0.5,0.6,0.7,1.2,0.7s1-0.2,1.2-0.7s0.3-1.5,0.3-3.2v-3.8h8v1.2c0,3.2-0.2,5.4-0.7,6.7
            c-0.4,1.3-1.4,2.5-3,3.5c-1.5,1-3.4,1.5-5.7,1.5c-2.3,0-4.3-0.4-5.8-1.3c-1.5-0.8-2.5-2-3-3.5s-0.7-3.7-0.7-6.7v-8.9
            c0-2.2,0.1-3.9,0.2-5c0.2-1.1,0.6-2.2,1.4-3.2s1.8-1.8,3.1-2.4c1.3-0.6,2.9-0.9,4.6-0.9c2.3,0,4.3,0.5,5.8,1.4s2.5,2,3,3.4
            s0.7,3.5,0.7,6.3V103.8z M237.4,96.6h-4.7v24.5h-8V96.6H220v-6.1h17.4L237.4,96.6L237.4,96.6z"/>
    <g id="bat-delete">
        <path d="M144.9,89c-0.3-0.2-0.9-0.3-1.8-0.3v20.1c1.1,0,1.9-0.2,2.1-0.7s0.4-1.7,0.4-3.8V92.5c0-1.4,0-2.3-0.1-2.7
                C145.5,89.4,145.3,89.2,144.9,89z"/>
        <path d="M288.2,137.1c-3.3-19.9-12.3-40.9-26.6-58.1c-2.6-3-8.6-9.3-11.5-11.8c-5.9-5.2-11.8-9.2-15.5-10.4c-2.2-0.8-2-1-3.7,3.4
                c-1.5,3.9-1.5,3.9-2.2,4.1c-0.4,0.1-5.7,1.5-11.7,3l-11,2.8l-0.6,0.9c-0.8,1.3-2,2.5-2.6,2.7s-1.4-0.2-1.8-1.1
                c-0.5-1-1.1-4.1-1.2-6.9c-0.1-1.4-0.3-2.6-0.3-2.5s-1.2,1.1-2.6,2.4l-2.5,2.3l-1.1-0.1c-0.7,0-2.2-0.2-3.4-0.4
                c-2.9-0.4-8-0.4-10.8,0c-1.2,0.2-2.7,0.3-3.3,0.4l-1.1,0.1l-2.5-2.3c-1.4-1.2-2.6-2.3-2.7-2.3s-0.2,1.3-0.3,2.8
                c-0.4,8.1-2.4,10.1-5.4,5.5l-0.8-1.3l-11.1-2.8c-6.1-1.6-11.4-2.9-11.7-3c-0.6-0.1-0.7-0.4-2.1-4l-1.5-3.9l-0.8,0.1
                c-1.9,0.2-6,2.4-9.8,5.1c-5.5,3.8-13.5,11.3-18.3,17.1c-14.2,16.8-23.2,36-26.6,56.6c-0.2,1.4-0.4,2.5-0.4,2.6c0,0,0.6-0.3,1.2-0.8
                c7.1-5.5,16.2-9.6,27.4-12.4l3.7-0.9l0.6,0.6c0.4,0.3,1.5,1.3,2.5,2.3l1.8,1.8l2.5-2.8c2.8-3,3.6-3.6,6.8-4.6
                c3.3-1.1,6.7-1.2,9.5-0.2l48,26.2l47.4-26.2c3.4-1.2,7.2-1,11.6,0.8c2,0.8,2,0.8,6,5.1l1.5,1.6l2.4-2.4l2.4-2.4l2.6,0.6
                c11.3,2.8,20.3,6.7,27.5,12l2.2,1.6L288.2,137.1z M153.6,105c0,2.7-0.1,4.6-0.4,5.5s-0.7,1.7-1.4,2.2c-0.6,0.5-1.4,0.9-2.4,1.1
                c-0.9,0.2-2.4,0.3-4.3,0.3h-10V83.5h6c3.8,0,6.4,0.2,7.8,0.5c1.4,0.4,2.4,0.9,3.1,1.7c0.7,0.8,1.1,1.7,1.3,2.7s0.3,2.9,0.3,5.8V105
                z M170.4,114.1h-13.8V83.5h13.3v6.1h-5.3v5.8h5v5.8h-5v6.7h5.8V114.1z M185.5,114.1h-12.8V83.5h8V108h4.8V114.1z M201.2,114.1
                h-13.8V83.5h13.3v6.1h-5.3v5.8h5v5.8h-5v6.7h5.8V114.1z M219.1,89.6h-4.7v24.5h-8V89.6h-4.7v-6.1h17.4L219.1,89.6L219.1,89.6z
                 M234.7,114.1h-13.8V83.5h13.3v6.1h-5.3v5.8h5v5.8h-5v6.7h5.8V114.1z"/>
    </g>
    <g id="bat-insert">
        <path d="M202.6,104.5v5.2c0.7,0,1.2-0.1,1.4-0.3c0.3-0.2,0.4-0.8,0.4-1.8v-1.3c0-0.7-0.1-1.2-0.4-1.5
                C203.8,104.6,203.3,104.5,202.6,104.5z"/>
        <path d="M221.1,80.2c0,0-1.8,10.4-5.7,13.3c-6.1,4.5-22.5,2.8-22.5,2.8L191,82.9l-1.9,8h-9.3l-2-7.9l-2.5,13.9
                c0,0-14.1,1.4-19.5-2.3c-4.6-3.1-7.7-14.5-7.7-14.5H69c0,0,25.6,6.9,34.7,24.9c4.7,9.4,1.2,19.6,1.2,19.6s34.2-1.7,50.5,4.3
                c26.4,9.6,29.2,29,29.2,29s5.7-22.9,27.5-28.2c30.9-7.5,52-5.1,52-5.1s-4-11.6,1.9-20.8c11.4-17.8,34.1-23.6,34.1-23.6L221.1,80.2z
                 M150.3,123.9h-6.1v-23.5h6.1V123.9z M166.4,123.9h-5.3l-3.2-10.7v10.7h-5.1v-23.5h5.1l3.4,10.6v-10.6h5.1V123.9z M181.7,121.6
                c-0.4,0.8-1.1,1.5-2.3,2c-1.1,0.5-2.4,0.8-3.9,0.8c-1.6,0-3-0.3-4.2-0.9s-1.9-1.4-2.3-2.4s-0.5-2.3-0.5-4.1v-1.5h5.7v2.9
                c0,0.9,0.1,1.4,0.2,1.7c0.2,0.3,0.4,0.4,0.8,0.4s0.7-0.2,0.9-0.5c0.2-0.3,0.3-0.8,0.3-1.4c0-1.4-0.2-2.3-0.6-2.7
                c-0.4-0.4-1.3-1.1-2.9-2.1c-1.5-1-2.5-1.7-3-2.2s-0.9-1.1-1.2-1.9c-0.3-0.8-0.5-1.8-0.5-3.1c0-1.8,0.2-3.1,0.7-3.9s1.2-1.5,2.2-1.9
                c1-0.5,2.3-0.7,3.7-0.7c1.6,0,2.9,0.3,4.1,0.8s1.9,1.2,2.2,1.9c0.4,0.8,0.5,2.1,0.5,4v0.9h-5.7V106c0-0.8-0.1-1.3-0.2-1.6
                c-0.1-0.2-0.4-0.3-0.7-0.3c-0.4,0-0.6,0.2-0.8,0.4c-0.2,0.3-0.3,0.8-0.3,1.4c0,0.8,0.1,1.4,0.3,1.8c0.2,0.4,0.8,0.9,1.7,1.4
                c2.7,1.6,4.4,2.9,5.1,4c0.7,1,1.1,2.7,1.1,5C182.3,119.6,182.1,120.8,181.7,121.6z M194.8,123.9h-10.6v-23.5h10.2v4.7h-4.1v4.4h3.8
                v4.5h-3.8v5.2h4.5V123.9z M209.2,112.9c0.4,0.5,0.7,1,0.8,1.4c0.1,0.4,0.2,1.6,0.2,3.5v6.2h-5.7v-7.8c0-1.3-0.1-2-0.3-2.3
                c-0.2-0.3-0.7-0.4-1.6-0.4v10.6h-6.1v-23.5h4.3c2.9,0,4.8,0.1,5.8,0.3c1,0.2,1.8,0.8,2.5,1.7c0.6,0.9,1,2.4,1,4.4
                c0,1.8-0.2,3.1-0.7,3.7s-1.3,1-2.7,1.1C208,112,208.8,112.4,209.2,112.9z M224.8,105.1h-3.6v18.8h-6.1v-18.8h-3.6v-4.7h13.3
                L224.8,105.1L224.8,105.1z"/>
    </g>
</svg>
