<?xml version="1.0" encoding="utf-8"?>
<!-- Generator: Adobe Illustrator 22.1.0, SVG Export Plug-In . SVG Version: 6.00 Build 0)  -->
<svg version="1.1" id="joker" xmlns="http://www.w3.org/2000/svg" xmlns:xlink="http://www.w3.org/1999/xlink" x="0px" y="0px"
	 viewBox="0 0 200 500" enable-background="new 0 0 200 500" xml:space="preserve">
<g id="shadow">
	<ellipse opacity="0.3" enable-background="new    " cx="102.2" cy="438.2" rx="36.1" ry="14.2"/>
</g>
<g id="full-body">
	<g id="body">
		<g id="left-leg-full">
			<g>
				<path fill="#1E1E1E" stroke="#000000" stroke-miterlimit="10" d="M104.2,421.9c2.6-2.7,9.2,1.7,12.7,3.2
					c3.1,1.3,11.2,4.6,10.1,7.7c-0.6,1.4-3.3,3.4-5.5,4c-5.7,1.4-14-1-17.2-3.6C102.2,431.4,102.3,423.6,104.2,421.9z"/>
				<path fill="#0F0E0D" d="M105.3,422.5c-0.6,0.7-1.1,3.1-1,5.8c0.2,2,0.7,3.4,1.1,3.8c2.8,2.2,10.7,4.7,16,3.2
					c1.8-0.6,4.1-2.3,4.5-3.2c0.2-0.7-0.6-2.2-8.6-5.7l-0.9-0.4c-0.7-0.3-1.4-0.8-2.4-1.2c-2.4-1.2-5.8-2.9-7.8-2.8
					C105.8,422.1,105.5,422.2,105.3,422.5z"/>
			</g>
			<g>
				<path fill="#5700AA" stroke="#000000" stroke-miterlimit="10" d="M116.7,424.7l-1.1-52.2c-0.3-5.2-4.3-5.9-8.7-2.8
					c0,0-7.8,4.8-7.5,9.9l4.8,44.3C104.7,429.1,116.6,427.5,116.7,424.7z"/>
				<path fill="#25004F" d="M100.4,379.5l4.8,44.3l0,0c0.1,0.8,0.7,1.2,1.6,1.7c2.8,1,7.1,0.2,8.5-0.7c-0.1,0-0.1,0-0.1,0
					c-0.1,0-0.2,0-0.3,0c-5.9,0.7-7.7-6.3-8-12.2c-0.2-6.3-0.8-12.6-0.7-18.8v-0.1c0-3.1-1.4-9.9-1.9-14.6c-0.2-2-0.1-4,0.2-6
					C102.3,374.9,100.3,377.2,100.4,379.5z"/>
			</g>
		</g>
		<g id="left-arm-full">
			<g>
				<path fill="#FFFFFF" stroke="#000000" stroke-miterlimit="10" d="M133.6,381.7l0.6-4.7c0.3-2.6-1-5-3.2-5.6l-1.8-0.3
					c-2.2-0.6-4.1,1.1-4.3,3.7l-0.6,4.7c-0.3,2.6,1,5,3.2,5.6l1.8,0.3C131.4,385.8,133.2,384.2,133.6,381.7z"/>
				<path fill="#E3F5FF" d="M125.7,382c0.3,0.9,1,1.7,1.9,1.8l1.8,0.3c0.7,0.1,1.6,0.1,2-0.6c0.7-0.6,0.9-1.3,1-2.2l0.3-4.3
					c-0.3,0.1-0.8,0.2-1.1,0.3c0,0.2,0,0.6,0,0.9c-0.1,2.7-1.8,4.3-3.9,4.1c-0.3-0.1-0.8-0.2-1.1-0.6C126.4,382.1,126,382,125.7,382
					z"/>
				<path fill="#E3F5FF" stroke="#000000" stroke-miterlimit="10" d="M125.6,379.5l0.8-4.7c0.1-1-0.3-2.2-1.3-2.4H125
					c-0.9-0.1-1.8,0.6-1.9,1.6l-0.8,4.7c-0.2,1,0.3,2.2,1.3,2.4l0,0C124.5,381.1,125.3,380.7,125.6,379.5z"/>
			</g>
			<g>
				<path fill="#FFB43F" stroke="#000000" stroke-miterlimit="10" d="M134.8,369.3c-0.1,2.2-0.1,4.2-0.1,6.5
					c0,2.8-12.8,3.4-12.5-1.8c0.1-1.6,0-4-0.2-6.8c1.7,1.1,3.9,1.3,5.9,1.6C129.4,368.8,132.2,369.3,134.8,369.3z"/>
				<path fill="#5700AA" stroke="#000000" stroke-miterlimit="10" d="M135.7,372.1c0.6-19.4-2.3-39.2-6.7-51.9
					c-2.2-6.7-5.6-12.4-10-11.6l0,0c-4.3,0.8-7.7,9.1-6.1,14.2c5.2,17.4,8.6,39.6,8.2,47.1C120.7,375.8,135.8,375.2,135.7,372.1z"/>
				<path fill="#25004F" d="M114,322.3c5.2,17.1,8.8,39.7,8.3,47.6c-0.1,0.9,0.6,1.6,1.7,2c3.7,1.7,9.7,0.9,10.8-0.2
					c-1.6,0-3.1-0.2-4.3-0.9c-1-0.6-1.7-1.3-1.7-2c0.3-8.1-3.2-30.6-8.3-47.6c-0.7-2-0.2-5.3,1-8.1c0.3-0.8,0.8-1.7,1.3-2.2
					c-1-0.8-2-1.1-3.3-1c-1.7,0.2-3.3,1.9-4.5,4.3C113.7,317,113.2,320.3,114,322.3z"/>
			</g>
		</g>
		<g id="trunk">
			<g>
				<path fill="#25004F" d="M70.8,322.5c1.4,2.2,10,15.7,13.1,37.9c2,14.8,8.5,16.6,15.2,16l3.3-0.2c3.1-0.2,6-0.8,8.8-4
					c-0.6,0.2-1,0.6-1.6,0.7c-0.2,0-0.3,0.1-0.7,0.1c-1,0.3-2.2,0.6-3.3,0.6c-0.3,0-0.8-0.1-1.1-0.1c-0.9,0.1-1.9,0-2.8-0.2
					c-1.4,0-2.7-0.3-3.9-1.3c-2.3-1.1-1.3-0.6-3.3-2.3c-2-1.9-1.3-0.9-2.8-3.3c-0.6-0.9-1-1.3-1.3-2.2c-1-2-1.7-4.2-1.8-6.7
					c-0.2-1.3-0.3-2.6-0.2-3.9c-0.2-1.3-0.2-2.3-0.2-3.4l0.1-0.7c-0.7-2.6-1.3-5-1.8-7.6c-0.7-1.1-1.1-2.7-1.4-4.1
					c-0.3-1.7-0.7-3.3-0.8-4.9c-3.2-6.8-2-15.2,2.4-21.5c1.6-2,3.1-4,4.9-5.6c-9,0.8-15.6,3.6-18.9,8.2
					C71.2,316.1,70.4,318.9,70.8,322.5z"/>
				<path fill="#5700AA" d="M82.9,360.1c-3.2-23.9-13.1-37.5-13.1-37.5c-1.1-11.9,9.7-17.5,22.6-18.4l6.7-0.6c13-0.8,23.6,3,24.4,18
					c-0.1,6.7-4.3,24.4-4.8,28c-2.4,23.9-9.3,26.7-16.1,27.3l-3.3,0.2C91.5,377.8,84.9,375.2,82.9,360.1z"/>
				<path fill="#BA4E2D" d="M83.2,362.2c4.9,1.4,9.7,1.9,14.4,1.3c0.6-14.7-1.3-30.9-3.3-47.4l16.5,0.1c1.7,8.2-0.9,32.3-1.3,46.5
					c3.1-0.1,5.9-0.6,7.3-1.7c-0.2,2-1,3.6-1.7,5.2c0,0-7,0-10.8-2.6c-7.3,5-19.8,1.4-20.7,1.3C83.3,364.1,83.4,362.7,83.2,362.2z"
					/>
				<path fill="none" stroke="#000000" stroke-miterlimit="10" d="M82.9,360.1c-3.2-23.9-13.1-37.5-13.1-37.5
					c-1.1-11.9,9.7-17.5,22.6-18.4l6.7-0.6c13-0.8,23.6,3,24.4,18c-0.1,6.7-4.3,24.4-4.8,28c-2.4,23.9-9.3,26.7-16.1,27.3l-3.3,0.2
					C91.5,377.8,84.9,375.2,82.9,360.1z"/>
			</g>
			<g>
				<path fill="#FFB43F" stroke="#000000" stroke-miterlimit="10" d="M103.1,303.8c-0.9,0-7.2-0.2-13.5,0.9
					c4.5,2.4,6.1,22.6,6.1,22.6c0.2,7.7,8.9,28.9,8.9,28.9s5.3-12.2,6.8-29.3C112.4,314.6,108,307.2,103.1,303.8z"/>
				<path fill="#BC802F" d="M92,305.9c3.4,5.6,4.7,19.8,4.9,21.6c0.2,5.9,5.6,20.3,7.8,26c0.1-0.2,0.2-0.8,0.3-1.1
					c-0.2-0.1-0.3-0.6-0.6-0.9c-0.3-1.1-0.9-2.2-1.3-3.3c-0.1-0.1-0.2-0.3-0.3-0.8c-1.6-6.7-3-13.5-3.9-20.1
					c-1.1-7.6-2.7-14.5-4.5-21.8C93.7,305.3,92.8,305.3,92,305.9z"/>
			</g>
			<g>
				<path fill="none" stroke="#000000" stroke-miterlimit="10" d="M83.2,362.2c4.2,2,14.4,1.3,14.4,1.3s0-51.9-8-59"/>
				<path fill="none" stroke="#000000" stroke-miterlimit="10" d="M116.7,361.1c-1.8,1.6-7.3,1.7-7.3,1.7c0.1-36.1,7.2-46.5-6.6-59"
					/>
				<path fill="none" stroke="#000000" stroke-miterlimit="10" d="M115.4,366.1c-6.6,0.3-11-2.3-11-2.3c1.8-42.6,3-49.3-6.8-59.6"/>
				<path fill="none" stroke="#000000" stroke-miterlimit="10" d="M104.1,363.7c-9.1,5.9-20.6,1.1-20.6,1.1"/>
				<polyline fill="none" stroke="#000000" stroke-miterlimit="10" points="92.8,310.4 86.5,318.5 92,324.6 87.5,328 97.3,351.2 
									"/>
				<polyline fill="none" stroke="#000000" stroke-miterlimit="10" points="110.7,310.2 117.6,317.1 112.9,324.4 117.5,326.9 
					110,351.3 				"/>
			</g>
		</g>
		<polygon fill="#259020" points="101.1,311.1 106.3,310.9 109.7,327.3 106.1,327.5 104.1,318.9 103.6,323.5 99.8,323.8 		"/>
		<g id="right-leg-full">
			<g>
				<path fill="#1E1E1E" stroke="#000000" stroke-miterlimit="10" d="M82.1,423.4c2.8-2.2,10.8,0.8,12.4,4c0.7,1.4,8.2,6.7,7.3,12.5
					c-0.3,1.9-6.7,4.2-10,2.6c-5-2.3-8.2-5.8-10.5-8.1C79.5,432.1,79.8,425.1,82.1,423.4z"/>
				<path fill="#0F0E0D" d="M82.9,424.4c-1.6,1.1-1.9,7.7-0.6,9.2c2.4,2.7,5.3,5.7,10,7.8c1.7,0.8,4.7,0.2,6.6-0.7
					c1.1-0.6,1.6-1,1.6-1.1c0.6-3.9-3.2-7.6-5.6-9.8c-0.9-0.9-1.6-1.4-1.8-2c-0.8-1.6-3.9-3.2-6.7-3.9c-0.7-0.1-1.3-0.2-1.8-0.2
					C83.9,423.7,83.2,424,82.9,424.4z"/>
			</g>
			<g>
				<path fill="#5700AA" stroke="#000000" stroke-miterlimit="10" d="M81.2,426.6l3-56.2c0.1-6.3,15,2.2,14.2,9.7l-4.9,46.1
					C93.2,431.6,81.3,429.2,81.2,426.6z"/>
				<path fill="#25004F" d="M91.2,371.6c-1.7-1.1-3.3-1.8-4.5-1.8c-0.6,0-0.9,0.1-1.1,0.2c-0.1,0-0.2,0.1-0.2,0.7l-3,55.9
					c0.3,0.3,1.4,0.9,3,1.3c-1.9-15.5,1.9-31.7,3.3-46.8C88.9,377.5,89.9,374.2,91.2,371.6z"/>
			</g>
		</g>
		<g id="right-arm-full">
			<g>
				<path fill="#E3F5FF" stroke="#000000" stroke-miterlimit="10" d="M70.6,380l-0.7-4.7c-0.1-1.1,0.6-2.2,1.3-2.4h0.1
					c0.9-0.1,1.8,0.6,1.9,1.6l0.7,4.7c0.1,1-0.6,2-1.4,2.3l0,0C71.6,381.7,70.7,380.9,70.6,380z"/>
				<path fill="#FFFFFF" stroke="#000000" stroke-miterlimit="10" d="M62.5,381.8l-0.6-4.5c-0.3-2.6,1.1-5.1,3.2-5.6l1.9-0.3
					c2-0.3,4.1,1.4,4.3,4l0.6,4.5c0.3,2.6-1.1,5.1-3.2,5.6l-1.9,0.3C64.8,386.1,62.8,384.4,62.5,381.8z"/>
				<path fill="#E3F5FF" d="M62.9,377.1l0.6,4.5c0.2,0.9,0.6,1.7,1.1,2.2c0.6,0.6,1.3,0.8,2,0.7l1.9-0.3c0.8-0.1,1.4-0.7,1.8-1.4
					c0.1-0.1,0.1-0.3,0.2-0.6c-0.7,0.6-1.3,0.8-2.2,0.9c-1.3,0.1-2.6-0.9-3.1-2.2c-0.6-1-0.8-2.6-0.3-3.7c0.1-0.6,0.3-1,0.7-1.6
					c0-0.1,0.1-0.3,0.1-0.7c0.2-0.9,0.8-1.7,1.4-2.3l-1.8,0.2c-0.8,0.1-1.4,0.7-1.8,1.4C63.2,375.1,62.9,376.1,62.9,377.1z"/>
			</g>
			<g>
				<path fill="#FFB43F" stroke="#000000" stroke-miterlimit="10" d="M61.2,369.3c0,2.2,0,4.2,0.1,6.5c0.1,3,12.8,3.7,12.5-1.4
					c-0.1-1.6,0-4,0.2-6.8c-1.7,1.1-3.9,1.1-5.9,1.4C66.5,368.9,63.8,369.4,61.2,369.3z"/>
				<path fill="#5700AA" stroke="#000000" stroke-miterlimit="10" d="M60.2,372.1c-0.7-19.3,1.9-39.2,6.1-51.7
					c2.2-6.6,5.3-12.2,9.9-11.4l0,0c4.5,0.9,8,9.5,6.5,14.5c-5.2,17.2-8.2,39.4-7.8,46.8C75.1,376.2,60.4,375.2,60.2,372.1z"/>
				<path fill="#25004F" d="M61.2,371.9c0.2,0.3,1.1,0.8,2.3,1c-0.3-17.7,1.9-36.6,6.1-49.2c1.7-5.2,4.7-11.4,8.8-10.6
					c0.6,0.2,1,0.6,1.7,0.9c-1-2.2-2.6-3.4-4-3.9c-4.1-0.8-6.9,5.3-8.8,10.6C62.9,333.9,60.6,353.5,61.2,371.9z"/>
			</g>
		</g>
		<g id="flower">
			<path fill="#FFF26A" stroke="#000000" stroke-miterlimit="10" d="M116,326.7c-3.1-2.2-1.4-6.3,1.4-7.3c2.7-1,5.9,0.6,5.9,4.7
				c3.3-2.6,5.9-1,6.8,1.4c0.9,2.4,0.2,5.3-4,5.9c1.8,3,0.7,5.8-2,6.8c-2.6,0.9-5.8-1.4-5.6-4.8c-2.8,2.3-6.3,1.3-7.2-1.3
				C110.5,329.6,111.6,326.8,116,326.7z"/>
			
				<ellipse transform="matrix(0.9417 -0.3366 0.3366 0.9417 -103.6187 60.0604)" fill="#BA4E2D" cx="121.4" cy="328.9" rx="3.2" ry="2.8"/>
		</g>
	</g>
	<g id="head">
		<path fill="#FFFFFF" stroke="#000000" stroke-width="3" stroke-miterlimit="10" d="M68.1,273.5c0,0-1.6,1-8.5,2.7
			c9.9-0.8,18.6,8.9,18.6,8.9s1.3,0.1,3.1,0.3c-2.4,1.3-3.4,4.9-2.4,8.3c1.1,3.9,4.5,6.5,7.3,5.6c1.1-0.3,2-1.1,2.7-2.2
			c5.9,11,14.1,22.3,22.8,21l23.4-2c8.5-0.8,14.8-8.2,14-16.7l1.3-33.3c0,1.6,0,3.1,0,5c7.3-13.1,6.3-28.9,6.3-28.9s-2.7,2.7-4.7,3
			c2.6-9.9-9.7-24.3-9.7-24.3s0.2,3-1.9,7.7c-29.6-10.5-50.9-3.4-54.7-3.3c-3.9,0-4.8-2.2-4.8-2.2s-1.4,3.3-1.7,7.2
			c-3.6,1.9-16.1,3.1-16.1,3.1s-0.7,6.8,4.5,9.7c-1.8,2.2-6.9,4.5-14,2.6C55.2,255.7,68.1,273.5,68.1,273.5z"/>
		<path fill="#FFFFFF" stroke="#000000" stroke-miterlimit="10" d="M78.6,293.8c1.1,3.9,4.5,6.5,7.3,5.6c1.1-0.3,2-1.1,2.7-2.2
			c5.9,11,14.1,22.3,22.8,21l23.4-2c8.5-0.8,14.8-8.2,14-16.7l1.7-39.9c-0.1-0.3-0.1-0.7-0.1-1c0-0.6-0.1-1.1-0.1-1.8
			c-1.7-19.5-20.7-33.6-43.1-31.7C84.8,227,68.4,244.4,70,263.9c0.8,8.6,4.9,16,11.1,21.7C78.9,286.5,77.6,290.2,78.6,293.8z"/>
		<path id="mounth" fill="#FFFFFF" stroke="#D41800" stroke-width="2" stroke-miterlimit="10" d="M138.8,307.7
			c-2.8,2.4-21.9,5.7-25.5,5.7S99.9,301.5,96.2,291c3.9,3.9,13.5,5.8,17.6,6.5c4.2,0.8,19.9-0.8,22.7-1.3c2.8-0.3,6.9-3,9.8-7.7
			C145.4,294.6,141.5,305.3,138.8,307.7z"/>
		<g id="eyes">
			<path d="M136.8,279.4c0-1.3,0.8-2.6,2.2-2.4l0,0c1.4,0.1,2.7,3.4,2.6,5.6c-0.1,1.7-0.8,3.3-2.7,3.3
				C136.1,286.1,136.8,279.5,136.8,279.4z"/>
			<path d="M108.8,281.8c-0.1-1.3-1.1-2.3-2.6-1.9l0,0c-1.4,0.3-1.9,3.9-1.6,5.9c0.3,1.7,1.3,3.1,3.2,2.8
				C110.9,288.2,109,282,108.8,281.8z"/>
		</g>
		<path id="righ-eyebrow" fill="none" stroke="#000000" stroke-width="2" stroke-linecap="round" stroke-miterlimit="10" d="
			M135.7,280.5c1.8-2.2,3.9-3.2,6.7-4"/>
		<path id="left-eyebrow" fill="none" stroke="#000000" stroke-width="2" stroke-linecap="round" stroke-miterlimit="10" d="
			M109.9,276.5c-1.6-2.2-4.7-4.8-7.5-3.1"/>
		<g id="hair">
			<path fill="#259020" stroke="#000000" stroke-miterlimit="10" d="M148.2,247.3c3,8,2.2,12.4,2.3,23.9c7.3-13.2,6.3-28.9,6.3-28.9
				s-2.7,2.7-4.7,3c2.6-9.9-9.7-24.3-9.7-24.3s0.2,3-1.9,7.7c-29.7-10.5-51-3.3-54.9-3.3s-4.8-2.2-4.8-2.2s-1.4,3.3-1.7,7.2
				c-3.6,1.9-16.1,3.1-16.1,3.1s-0.7,6.8,4.5,9.7c-1.8,2.2-6.9,4.5-14,2.6c1.4,10,14.4,28,14.4,28s-1.6,1-8.5,2.7
				c9.9-0.8,18.6,8.9,18.6,8.9s6.9,0.3,11.1,2.2c-2.2-4.3,6-17.1,6-17.1s1.9-8.8-5.8-18c23.9-3.7,33.8,3.6,33.8,3.6
				S134.2,246.5,148.2,247.3z"/>
			<path fill="#195B15" d="M74.7,244.1c6.7-2,12.8-3.4,19.5-3.4c-2.7-0.9-5.6-1.8-8.2-2.7c-6.7-2-17.5,0.8-22.6-4.8
				c-0.1,0-0.1,0-0.1,0s-0.7,6.3,3.9,9.2c2.3,0.7,4.8,1.1,7.2,1.4C74.5,244,74.7,244,74.7,244.1z"/>
			<path fill="#195B15" d="M68,273.6c0,0-1.6,1-8.5,2.7c9.9-0.8,18.6,8.9,18.6,8.9s6.9,0.3,11.1,2.2c-2.2-4.3,6-17.1,6-17.1
				s1.9-8.8-5.8-18c23.9-3.7,33.8,3.6,33.8,3.6s10.8-9.2,24.9-8.8c3,8,2.2,12.4,2.3,23.9c7.3-13.2,6.3-28.9,6.3-28.9s-1.1,1.1-2.6,2
				c-0.3,0.8-1.1,1-1.9,0.9c-0.1,0-0.1,0-0.1,0l0,0c-0.7-0.1-1.3-0.6-1.6-1.3c-0.9-2.8-1.7-5.3-3.3-7.6c-1.6,2.6-3.1,4-6.7,5.2
				c-5.3,2-16.1,7.6-17.5,11.6c-4.1-5.8-38.4-7.7-45.6-5.6c2.4,1.6,6.8,8.2,5.6,8.5c-4.7,0.8-9.2-1.3-13.5-3
				c-3.9-1.4-7.2-3.1-10.2-5.2c0.2,1.8,0.6,3.7,0.3,5.6c1.1,6.7,4.3,12.6,7.5,18.5c0.1,0.1,0.1,0.1,0.1,0.2
				C68,273,68,273.6,68,273.6z"/>
			<path fill="none" stroke="#000000" stroke-miterlimit="10" d="M148.2,247.3c3,8,2.2,12.4,2.3,23.9c7.3-13.2,6.3-28.9,6.3-28.9
				s-2.7,2.7-4.7,3c2.6-9.9-9.7-24.3-9.7-24.3s0.2,3-1.9,7.7c-29.7-10.5-51-3.3-54.9-3.3s-4.8-2.2-4.8-2.2s-1.4,3.3-1.7,7.2
				c-3.6,1.9-16.1,3.1-16.1,3.1s-0.7,6.8,4.5,9.7c-1.8,2.2-6.9,4.5-14,2.6c1.4,10,14.4,28,14.4,28s-1.6,1-8.5,2.7
				c9.9-0.8,18.6,8.9,18.6,8.9s6.9,0.3,11.1,2.2c-2.2-4.3,6-17.1,6-17.1s1.9-8.8-5.8-18c23.9-3.7,33.8,3.6,33.8,3.6
				S134.2,246.5,148.2,247.3z"/>
		</g>
	</g>
</g>
<g id="bang">
	<g>
		<path d="M98,325.4c3.8,2.2,4.1,4.9,0.8,7.6c0.8,0.9,1.6,1.8,2.4,2.6c0.9-0.8,1.8-1.7,2.7-2.6c-2.3-1.5-3-2.9-2.4-4.8
			c0.5-1.5,1.9-2.5,3.6-2.5c1.6,0,3,1.1,3.4,2.7c0.5,1.8-0.3,3.2-2.7,4.7c2.2,1.2,3.1,2.6,2.8,4.4c-0.3,1.5-1.4,2.7-2.9,3
			c-1.9,0.4-3.2-0.4-4.4-2.4c-0.9,0.9-1.8,1.9-2.8,2.9c1.6,1,2.9,2.3,2.3,4.5c-0.4,1.7-1.6,2.7-3.3,2.9c-2,0.2-3.3-1.1-4.1-3
			c-0.9,2-2.1,3.2-4.3,2.9c-1.6-0.2-2.9-1.5-3.1-3.1c-0.3-2.3,1.1-3.5,3.2-4.4c-2-0.6-3.3-1.7-3.4-3.6c-0.1-2,1-3.2,2.8-4
			c-1.9-1-3.2-2.4-2.6-4.6c0.4-1.5,1.4-2.5,3-2.7c1.8-0.3,3,0.4,4.2,2.4c0.9-0.9,1.9-1.8,2.9-2.8c-0.2-0.1-0.5-0.3-0.9-0.6
			c-1.4-1-1.9-2.5-1.4-4.1c0.5-1.5,1.9-2.4,3.4-2.4s2.8,1,3.2,2.4c0.5,1.5,0,3.1-1.4,4.1C98.7,325,98.4,325.2,98,325.4z M90.3,341
			c1.4,0.3,2.4,1.3,2.9,2.6c1-1,1.8-1.9,2.6-2.8c-0.8-0.8-1.7-1.6-2.4-2.3C92.4,339.3,91.4,340.1,90.3,341z M95.2,332.7
			c0.1,0.2,0.3,0.3,0.4,0.5c-0.8-0.9-1.6-1.8-2.3-2.6c-0.8,0.8-1.7,1.7-2.5,2.5c0.8,0.7,1.7,1.5,2.5,2.3c-0.2-0.1-0.4-0.3-0.5-0.4
			C93.6,334.2,94.4,333.5,95.2,332.7z"/>
		<path d="M101.3,344.6c0-2.2,1.8-3.6,3.7-3.6c1.9,0,3.6,1.9,3.5,3.8s-1.7,3.5-3.6,3.5C102.8,348.2,101.3,346.6,101.3,344.6z"/>
		<path d="M85.7,337c-0.1,1.8-1.8,3.5-3.7,3.5c-1.9,0-3.5-1.7-3.5-3.6s1.7-3.5,3.6-3.5S85.8,335.2,85.7,337z"/>
		<path d="M85.6,329.3c0,1.9-1.6,3.6-3.5,3.6s-3.4-1.5-3.4-3.4s1.4-3.5,3.3-3.6C83.8,325.8,85.6,327.4,85.6,329.3z"/>
		<path d="M89.5,325.4c-1.9-0.1-3.4-1.8-3.4-3.7c0.1-1.9,1.7-3.5,3.6-3.4s3.4,1.8,3.3,3.7C93,323.9,91.3,325.5,89.5,325.4z"/>
		<path d="M112.5,340.4c-1.9,0-3.6-1.6-3.6-3.5c0-1.8,1.6-3.4,3.4-3.5c1.9-0.1,3.4,1.4,3.5,3.3C115.9,338.7,114.4,340.3,112.5,340.4
			z"/>
		<path d="M97.2,348.7c1.9,0,3.4,1.5,3.4,3.4s-1.6,3.5-3.5,3.5c-2,0-3.5-1.6-3.4-3.6C93.8,350.1,95.3,348.7,97.2,348.7z"/>
		<path d="M104.8,325.3c-1.9,0-3.4-1.6-3.4-3.5s1.7-3.5,3.6-3.5c1.9,0.1,3.3,1.6,3.3,3.6C108.2,323.8,106.7,325.3,104.8,325.3z"/>
		<path d="M85.6,344.5c0,1.8-1.5,3.4-3.4,3.5s-3.5-1.4-3.5-3.3c-0.1-2,1.4-3.6,3.4-3.6C84,341.2,85.5,342.7,85.6,344.5z"/>
		<path d="M112.5,332.8c-1.9,0-3.5-1.5-3.5-3.3s1.6-3.5,3.4-3.5c1.9,0,3.4,1.5,3.5,3.4C115.8,331.2,114.4,332.7,112.5,332.8z"/>
		<path d="M89.6,348.7c1.9,0,3.5,1.5,3.5,3.4s-1.5,3.4-3.4,3.5c-1.9,0-3.4-1.5-3.4-3.4C86.2,350.3,87.7,348.8,89.6,348.7z"/>
		<path d="M115.8,344.6c0,1.9-1.6,3.4-3.5,3.4c-1.8-0.1-3.3-1.6-3.3-3.4s1.5-3.4,3.4-3.4S115.8,342.7,115.8,344.6z"/>
		<path d="M104.9,348.8c1.9,0,3.4,1.5,3.4,3.5c0,1.8-1.5,3.3-3.3,3.3s-3.5-1.5-3.5-3.4C101.4,350.3,103,348.7,104.9,348.8z"/>
		<path d="M82.1,318.5c1.8,0,3.3,1.5,3.3,3.3s-1.4,3.3-3.3,3.3s-3.4-1.5-3.4-3.4C78.8,319.9,80.3,318.5,82.1,318.5z"/>
		<path d="M115.7,321.9c0,1.8-1.6,3.3-3.4,3.2c-1.8-0.1-3.2-1.6-3.1-3.4s1.5-3.1,3.3-3.1C114.2,318.6,115.7,320.1,115.7,321.9z"/>
		<path d="M77.6,336.9c0,1.8-1.6,3.2-3.4,3.2s-3.2-1.5-3.1-3.4c0.1-1.8,1.5-3.1,3.2-3.1C76.2,333.7,77.7,335.2,77.6,336.9z"/>
		<path d="M82,355.4c-1.8,0-3.3-1.6-3.2-3.4c0.1-1.8,1.6-3.3,3.4-3.2c1.7,0.1,3.1,1.5,3.1,3.3C85.3,354,83.9,355.4,82,355.4z"/>
		<path d="M100.4,314.2c0,1.8-1.5,3.2-3.4,3.2c-1.7-0.1-3.1-1.5-3.1-3.3s1.5-3.3,3.3-3.3C99,310.9,100.4,312.4,100.4,314.2z"/>
		<path d="M74.3,332.6c-1.8,0-3.1-1.5-3.1-3.3c0-1.9,1.5-3.3,3.4-3.2c1.7,0.1,3.2,1.6,3.1,3.3C77.5,331.2,76,332.6,74.3,332.6z"/>
		<path d="M112.3,355.4c-1.8,0-3.1-1.4-3.2-3.2c0-1.8,1.5-3.3,3.3-3.3c1.7,0,3.2,1.5,3.2,3.2C115.7,353.9,114.2,355.4,112.3,355.4z"
			/>
		<path d="M89.7,310.9c1.8,0,3.1,1.5,3.1,3.3c0,1.9-1.5,3.2-3.4,3.2c-1.7-0.1-3.1-1.6-3.1-3.3C86.5,312.3,88,310.8,89.7,310.9z"/>
		<path d="M120.2,333.7c1.8,0,3.1,1.5,3.1,3.3s-1.5,3.2-3.3,3.1c-1.7,0-3.2-1.6-3.1-3.3C116.9,335.1,118.4,333.7,120.2,333.7z"/>
		<path d="M97.1,363.1c-1.7-0.1-3.2-1.6-3.1-3.3c0.1-1.7,1.6-3.2,3.3-3.1c1.8,0,3.1,1.5,3.1,3.3C100.3,361.7,98.8,363.1,97.1,363.1z
			"/>
		<path d="M77.6,344.7c0,1.7-1.5,3.1-3.3,3.1c-1.9,0-3.2-1.5-3.1-3.3s1.6-3.1,3.3-3C76.2,341.5,77.6,343,77.6,344.7z"/>
		<path d="M108.1,314.1c0,1.7-1.4,3.2-3.2,3.2c-1.8,0-3.2-1.3-3.2-3.1c-0.1-1.8,1.4-3.3,3.2-3.3
			C106.6,310.9,108.1,312.4,108.1,314.1z"/>
		<path d="M120.2,326.2c1.7,0,3.1,1.5,3.1,3.3c-0.1,1.7-1.5,3.1-3.1,3.1c-1.7,0-3.2-1.5-3.2-3.2C117,327.6,118.4,326.1,120.2,326.2z
			"/>
		<path d="M89.7,356.7c1.7,0,3.1,1.5,3.1,3.3c0,1.7-1.6,3.2-3.3,3.1c-1.7-0.1-3-1.5-3-3.2C86.5,358.1,87.9,356.6,89.7,356.7z"/>
		<path d="M108,359.9c0,1.7-1.4,3.1-3.1,3.1s-3.2-1.5-3.2-3.2s1.4-3.1,3.1-3.1C106.6,356.7,108,358.2,108,359.9z"/>
		<path d="M120.1,347.7c-1.7,0-3.1-1.4-3.1-3.1c0-1.8,1.4-3.2,3.2-3.2c1.7,0,3.1,1.4,3.1,3.1C123.3,346.3,121.8,347.7,120.1,347.7z"
			/>
		<path d="M77.4,321.9c0,1.7-1.4,3.1-3.1,3.1s-3.1-1.4-3.1-3.1s1.5-3.2,3.2-3.2C76.1,318.8,77.5,320.2,77.4,321.9z"/>
		<path d="M82.1,311c1.7,0,3.1,1.3,3.1,3s-1.4,3.2-3.2,3.1c-1.7,0-3-1.4-3-3.1C79,312.4,80.3,311,82.1,311z"/>
		<path d="M112.4,317.2c-1.7,0-3.1-1.4-3.1-3.1s1.4-3,3.1-3s3,1.3,3,3.1C115.4,315.9,114.1,317.2,112.4,317.2z"/>
		<path d="M71.3,351.9c0.2-1.7,1.6-2.9,3.3-2.8c1.7,0.1,2.9,1.5,2.8,3.3c-0.1,1.7-1.6,2.9-3.3,2.8C72.5,355.1,71.1,353.5,71.3,351.9
			z"/>
		<path d="M120,318.8c1.7,0,3.1,1.4,3.2,3c0,1.6-1.3,3-2.9,3.1c-1.7,0.1-3.1-1.2-3.2-2.9C117,320.2,118.3,318.8,120,318.8z"/>
		<path d="M82.1,362.9c-1.7,0-3.1-1.3-3.1-3c0-1.6,1.3-3,2.9-3.1c1.7-0.1,3.1,1.3,3.2,3C85.2,361.4,83.8,362.9,82.1,362.9z"/>
		<path d="M123.1,352.1c0,1.7-1.5,3.1-3.1,3c-1.6,0-2.9-1.4-2.9-3s1.3-3,2.9-3C121.7,349.1,123.1,350.5,123.1,352.1z"/>
		<path d="M112.4,362.8c-1.6,0-3-1.3-3-2.9c0-1.7,1.4-3.1,3.1-3.1s3,1.4,3,3.1C115.3,361.6,114,362.9,112.4,362.8z"/>
		<path d="M97.1,303.6c1.6,0,3,1.3,3,2.9c0.1,1.7-1.4,3.1-3,3.1s-2.9-1.4-2.9-3S95.5,303.6,97.1,303.6z"/>
		<path d="M89.7,309.6c-1.6,0-3-1.3-3-2.9s1.3-3,2.9-3s3,1.3,3,2.9C92.6,308.1,91.3,309.5,89.7,309.6z"/>
		<path d="M69.8,336.9c0,1.6-1.3,2.9-2.9,3c-1.7,0-3.1-1.3-3.1-3c0-1.6,1.4-2.9,3-2.9C68.5,333.9,69.8,335.2,69.8,336.9z"/>
		<path d="M66.9,332.3c-1.7,0-3-1.3-3-2.9s1.3-3,2.9-3c1.7,0,3,1.3,3,2.9C69.8,331,68.5,332.3,66.9,332.3z"/>
		<path d="M127.7,334c1.7,0,2.9,1.3,2.9,3c0,1.6-1.3,2.8-2.8,2.8c-1.6,0-3-1.3-3-2.9C124.7,335.3,126,334,127.7,334z"/>
		<path d="M100,367.4c0,1.7-1.3,2.9-3,2.9c-1.6,0-2.8-1.3-2.8-2.9s1.3-2.9,2.9-2.9C98.8,364.5,100.1,365.8,100,367.4z"/>
		<path d="M66.8,347.6c-1.6,0-2.9-1.4-2.8-3.1c0.1-1.6,1.3-2.8,2.9-2.8s3,1.4,2.9,3C69.8,346.2,68.4,347.6,66.8,347.6z"/>
		<path d="M104.8,303.6c1.6,0,3,1.3,3,2.9s-1.3,3-2.9,3s-2.8-1.2-2.9-2.8C101.9,305.1,103.2,303.7,104.8,303.6z"/>
		<path d="M77.3,314.1c0,1.6-1.4,3-3,2.9c-1.6,0-2.8-1.3-2.9-2.8c0-1.6,1.2-3,2.9-3C75.9,311.2,77.3,312.5,77.3,314.1z"/>
		<path d="M92.5,367.5c-0.1,1.6-1.4,2.8-3,2.7c-1.5-0.1-2.8-1.4-2.8-2.9c0-1.6,1.5-2.9,3.1-2.8C91.4,364.6,92.5,365.9,92.5,367.5z"
			/>
		<path d="M127.7,332.2c-1.5,0-2.9-1.2-3-2.8c-0.1-1.6,1.3-3,2.9-3s2.8,1.2,2.8,2.9C130.5,331,129.3,332.2,127.7,332.2z"/>
		<path d="M120,317c-1.6,0-2.8-1.3-2.8-2.9c0-1.5,1.3-2.8,2.9-2.8s2.9,1.3,2.9,3C122.9,315.8,121.6,317,120,317z"/>
		<path d="M127.6,347.5c-1.6,0-2.9-1.2-2.9-2.8c0-1.6,1.4-3,3-2.9c1.6,0,2.8,1.3,2.8,2.9C130.5,346.2,129.2,347.4,127.6,347.5z"/>
		<path d="M104.9,364.5c1.6,0,2.9,1.3,2.9,2.8c0,1.6-1.4,3-3,2.9s-2.8-1.3-2.7-2.9C102,365.7,103.3,364.5,104.9,364.5z"/>
		<path d="M77.3,359.9c0,1.5-1.3,2.8-2.9,2.8s-2.9-1.3-2.9-3c0.1-1.6,1.3-2.8,2.9-2.7C76,357,77.3,358.3,77.3,359.9z"/>
		<path d="M66.9,319c1.5,0,2.8,1.3,2.8,2.8c0,1.6-1.4,2.9-3,2.9c-1.6-0.1-2.7-1.4-2.7-2.9C64,320.2,65.3,319,66.9,319z"/>
		<path d="M120.2,357c1.6,0,2.8,1.3,2.7,2.9c0,1.6-1.3,2.8-2.9,2.8c-1.5,0-2.8-1.4-2.8-2.9C117.3,358.2,118.6,357,120.2,357z"/>
		<path d="M84.9,306.6c0,1.6-1.2,2.8-2.8,2.8c-1.6,0-2.9-1.2-2.9-2.8c0-1.6,1.4-3,2.9-2.9C83.7,303.8,84.9,305,84.9,306.6z"/>
		<path d="M64,351.9c0.1-1.6,1.5-2.7,3.1-2.5c1.5,0.1,2.7,1.6,2.6,3.1c-0.2,1.6-1.5,2.7-3.1,2.5S63.9,353.5,64,351.9z"/>
		<path d="M112.4,309.4c-1.6,0-2.8-1.3-2.8-2.8c0-1.6,1.3-2.8,2.9-2.8c1.5,0,2.8,1.3,2.8,2.9C115.2,308.2,113.9,309.4,112.4,309.4z"
			/>
		<path d="M82.1,370.2c-1.5,0-2.7-1.2-2.8-2.7c-0.1-1.6,1.3-2.9,2.8-2.9c1.6,0,2.8,1.3,2.8,2.9C84.8,369,83.6,370.2,82.1,370.2z"/>
		<path d="M127.6,324.6c-1.5,0-2.9-1.4-2.8-2.9s1.3-2.7,2.8-2.7c1.6,0,2.8,1.3,2.8,2.9C130.4,323.4,129.1,324.7,127.6,324.6z"/>
		<path d="M112.4,370.2c-1.5,0-2.8-1.2-2.8-2.7c-0.1-1.6,1.2-2.9,2.8-2.9c1.5,0,2.7,1.3,2.7,2.8
			C115.2,368.9,113.9,370.1,112.4,370.2z"/>
		<path d="M127.6,354.9c-1.5,0-2.7-1.2-2.7-2.7s1.2-2.7,2.7-2.7c1.6,0,2.9,1.3,2.8,2.8C130.4,353.7,129.1,354.9,127.6,354.9z"/>
		<path d="M74.3,303.9c1.5,0,2.7,1.1,2.8,2.7c0,1.5-1.1,2.6-2.5,2.7c-1.5,0.1-2.8-1.1-2.9-2.6C71.6,305.2,72.8,303.9,74.3,303.9z"/>
		<path d="M69.5,314.2c0,1.5-1.3,2.7-2.8,2.6c-1.4-0.1-2.6-1.3-2.6-2.7c0-1.5,1.2-2.7,2.7-2.7C68.4,311.4,69.5,312.6,69.5,314.2z"/>
		<path d="M120.1,303.9c1.5,0,2.7,1.3,2.7,2.7c-0.1,1.4-1.3,2.6-2.7,2.6c-1.5,0-2.7-1.3-2.6-2.8
			C117.5,305.1,118.7,303.9,120.1,303.9z"/>
		<path d="M59.1,339.6c-1.5,0-2.6-1.2-2.6-2.8c0.1-1.4,1.2-2.6,2.6-2.6c1.5,0,2.7,1.3,2.7,2.7C61.8,338.4,60.5,339.6,59.1,339.6z"/>
		<path d="M97.2,301.5c-1.5,0-2.7-1.1-2.7-2.7c0-1.5,1.2-2.7,2.7-2.7c1.4,0,2.6,1.2,2.6,2.6C99.9,300.3,98.7,301.5,97.2,301.5z"/>
		<path d="M59.1,347.3c-1.4,0-2.6-1.2-2.6-2.6c0-1.5,1.1-2.6,2.6-2.7c1.5,0,2.8,1.2,2.8,2.7C61.8,346.1,60.5,347.3,59.1,347.3z"/>
		<path d="M92.3,299c-0.1,1.5-1.4,2.6-2.9,2.5c-1.4-0.1-2.5-1.3-2.4-2.8s1.4-2.6,2.9-2.5C91.3,296.4,92.4,297.7,92.3,299z"/>
		<path d="M130.3,314c0,1.4-1.1,2.7-2.5,2.7c-1.4,0.1-2.7-1.1-2.7-2.5c-0.1-1.5,1.1-2.8,2.6-2.8C129,311.5,130.3,312.6,130.3,314z"
			/>
		<path d="M59.2,326.7c1.5,0,2.7,1.4,2.6,2.8c-0.1,1.4-1.3,2.5-2.7,2.5c-1.5,0-2.7-1.2-2.6-2.8C56.6,327.8,57.7,326.7,59.2,326.7z"
			/>
		<path d="M66.8,357.2c1.4,0,2.6,1.1,2.7,2.6s-1.1,2.7-2.6,2.7c-1.4,0-2.6-1.1-2.7-2.5C64.1,358.5,65.3,357.2,66.8,357.2z"/>
		<path d="M107.5,298.8c0,1.5-1,2.6-2.5,2.7s-2.8-1.2-2.8-2.6s1.2-2.6,2.6-2.6C106.3,296.2,107.5,297.3,107.5,298.8z"/>
		<path d="M77,367.3c0,1.5-1.1,2.6-2.5,2.7c-1.5,0-2.8-1.2-2.8-2.7c0-1.4,1.2-2.6,2.7-2.6C75.8,364.7,77,365.9,77,367.3z"/>
		<path d="M97.2,372.5c1.4,0,2.6,1.3,2.5,2.7c-0.1,1.4-1.3,2.6-2.7,2.6c-1.4-0.1-2.6-1.3-2.5-2.7C94.6,373.6,95.8,372.4,97.2,372.5z
			"/>
		<path d="M138,336.9c0,1.5-1.1,2.6-2.6,2.6s-2.6-1.1-2.7-2.5c0-1.4,1.1-2.6,2.6-2.6C136.8,334.3,137.9,335.4,138,336.9z"/>
		<path d="M137.9,329.3c0,1.4-1.1,2.6-2.6,2.7c-1.4,0-2.5-1-2.6-2.4c-0.1-1.5,1-2.7,2.5-2.7C136.7,326.7,137.9,327.8,137.9,329.3z"
			/>
		<path d="M122.7,367.3c0,1.4-1.1,2.6-2.6,2.6s-2.6-1.1-2.7-2.5c0-1.5,1.1-2.6,2.5-2.6C121.5,364.8,122.7,365.9,122.7,367.3z"/>
		<path d="M130.2,359.8c0,1.4-1.1,2.6-2.6,2.6c-1.5,0-2.6-1.1-2.6-2.5c0-1.5,1.1-2.6,2.6-2.6C129,357.2,130.2,358.4,130.2,359.8z"/>
		<path d="M92.2,375.1c0,1.4-1.3,2.6-2.7,2.6c-1.4-0.1-2.5-1.2-2.5-2.6s1.2-2.6,2.6-2.7C91,372.5,92.2,373.7,92.2,375.1z"/>
		<path d="M104.8,372.5c1.4,0,2.6,1.2,2.6,2.6s-1.2,2.6-2.6,2.6c-1.3,0-2.5-1.1-2.5-2.5C102.3,373.7,103.4,372.5,104.8,372.5z"/>
		<path d="M137.9,344.6c0,1.4-1.3,2.6-2.7,2.6c-1.3,0-2.5-1.2-2.5-2.5c0-1.4,1.1-2.6,2.6-2.7C136.8,342,137.9,343.2,137.9,344.6z"/>
		<path d="M59.2,319.3c1.5,0,2.5,1.2,2.5,2.7c-0.1,1.4-1.2,2.4-2.5,2.4c-1.4,0-2.6-1.2-2.6-2.6C56.6,320.4,57.7,319.2,59.2,319.3z"
			/>
		<path d="M84.6,298.8c0,1.5-1.1,2.6-2.6,2.6c-1.4,0-2.6-1.2-2.6-2.6s1.1-2.5,2.5-2.5C83.5,296.3,84.6,297.4,84.6,298.8z"/>
		<path d="M59.1,349.6c1.3,0,2.5,1.1,2.6,2.4c0.1,1.5-1,2.7-2.5,2.7c-1.3,0-2.5-1.1-2.6-2.4C56.5,350.9,57.6,349.6,59.1,349.6z"/>
		<path d="M115,298.9c0,1.4-1.2,2.6-2.7,2.5c-1.4-0.1-2.4-1.1-2.4-2.6c0-1.4,1-2.5,2.4-2.5C113.8,296.3,115,297.5,115,298.9z"/>
		<path d="M82,377.6c-1.4,0-2.5-1.1-2.5-2.5s1.3-2.6,2.7-2.5c1.4,0.1,2.4,1.2,2.4,2.6C84.5,376.6,83.4,377.6,82,377.6z"/>
		<path d="M135.4,319.3c1.4,0,2.5,1.2,2.5,2.5c0,1.4-1.3,2.6-2.7,2.5s-2.4-1.2-2.3-2.6C132.9,320.3,134,319.3,135.4,319.3z"/>
		<path d="M69.4,306.6c0,1.4-1.2,2.5-2.5,2.5c-1.4,0-2.5-1.1-2.5-2.5s1.1-2.5,2.5-2.5C68.2,304.1,69.4,305.2,69.4,306.6z"/>
		<path d="M112.5,372.6c1.3,0,2.5,1.2,2.4,2.6c0,1.3-1.2,2.4-2.6,2.4s-2.4-1.1-2.4-2.5C110,373.6,111.1,372.6,112.5,372.6z"/>
		<path d="M135.4,349.6c1.3,0,2.5,1.2,2.5,2.5s-1.2,2.4-2.6,2.4c-1.4,0-2.4-1.1-2.4-2.5C132.9,350.7,134,349.6,135.4,349.6z"/>
		<path d="M66.8,364.9c1.3,0,2.5,1.1,2.5,2.4s-1.2,2.5-2.5,2.5s-2.4-1.1-2.4-2.4C64.3,366.1,65.4,365,66.8,364.9z"/>
		<path d="M74.4,301.3c-1.3,0-2.4-1-2.5-2.3c-0.1-1.4,1-2.6,2.4-2.6s2.5,1.2,2.5,2.5C76.8,300.2,75.7,301.3,74.4,301.3z"/>
		<path d="M130.1,306.7c0,1.4-1.2,2.4-2.6,2.3c-1.3-0.1-2.4-1.2-2.4-2.4c0-1.3,1.2-2.5,2.5-2.5C129.1,304.2,130.1,305.3,130.1,306.7
			z"/>
		<path d="M120.1,296.4c1.3,0,2.4,1.1,2.4,2.4c0,1.4-1.2,2.5-2.5,2.5c-1.3-0.1-2.3-1.2-2.3-2.5S118.8,296.4,120.1,296.4z"/>
		<path d="M61.5,359.8c0,1.3-1,2.4-2.3,2.5s-2.4-1-2.5-2.3c-0.1-1.4,1-2.6,2.4-2.6C60.4,357.4,61.5,358.5,61.5,359.8z"/>
		<path d="M130,367.4c0,1.3-1.1,2.4-2.4,2.4c-1.3,0-2.4-1.1-2.4-2.4c0-1.4,1.1-2.5,2.5-2.5C129,365,130.1,366.1,130,367.4z"/>
		<path d="M59.1,316.5c-1.3,0-2.4-1.1-2.4-2.4c0-1.4,1.2-2.5,2.5-2.5s2.4,1.1,2.4,2.4C61.6,315.5,60.5,316.6,59.1,316.5z"/>
		<path d="M99.5,291.3c0,1.3-1.1,2.4-2.4,2.4s-2.4-1-2.4-2.4c0-1.3,1-2.4,2.3-2.4C98.4,288.9,99.5,290,99.5,291.3z"/>
		<path d="M51.5,334.5c1.3,0,2.4,1,2.5,2.3c0,1.3-1,2.4-2.3,2.5c-1.3,0-2.4-1-2.4-2.3C49.2,335.6,50.2,334.5,51.5,334.5z"/>
		<path d="M76.7,375.1c0,1.3-1,2.4-2.3,2.4s-2.4-1-2.4-2.3s1-2.4,2.4-2.4C75.7,372.7,76.7,373.7,76.7,375.1z"/>
		<path d="M135.4,311.8c1.3,0,2.4,1,2.4,2.4c0,1.3-1.1,2.4-2.4,2.4c-1.3,0-2.4-1.1-2.4-2.4C133,312.8,134,311.7,135.4,311.8z"/>
		<path d="M51.6,342.3c1.3,0,2.4,1.1,2.3,2.4c-0.1,1.3-1.2,2.3-2.5,2.3c-1.3-0.1-2.2-1.1-2.2-2.4C49.3,343.3,50.3,342.2,51.6,342.3z
			"/>
		<path d="M122.5,375.2c0,1.3-1.2,2.3-2.5,2.3c-1.3-0.1-2.3-1.1-2.2-2.5c0.1-1.3,1.1-2.2,2.3-2.2
			C121.4,372.8,122.5,373.9,122.5,375.2z"/>
		<path d="M92,291.4c0,1.3-1.1,2.4-2.4,2.4s-2.3-1.1-2.3-2.4s1.1-2.4,2.4-2.4C90.9,289,92,290.1,92,291.4z"/>
		<path d="M51.6,327c1.3,0,2.4,1.2,2.3,2.4c0,1.3-1.1,2.4-2.4,2.3c-1.3,0-2.3-1.1-2.3-2.4C49.3,328,50.4,326.9,51.6,327z"/>
		<path d="M135.6,357.5c1.3,0.1,2.2,1.3,2.1,2.6c-0.1,1.3-1.3,2.2-2.6,2.1c-1.2-0.2-2.2-1.3-2.1-2.5
			C133.1,358.4,134.3,357.4,135.6,357.5z"/>
		<path d="M107.2,291.4c0,1.3-1.1,2.4-2.4,2.3c-1.2,0-2.3-1.1-2.3-2.3c0-1.3,1.1-2.4,2.3-2.4C106.1,288.9,107.2,290,107.2,291.4z"/>
		<path d="M97.2,380.3c1.3,0,2.4,1.2,2.3,2.4c-0.1,1.2-1.2,2.2-2.4,2.2c-1.3,0-2.3-1.1-2.3-2.4C94.9,381.3,95.9,380.3,97.2,380.3z"
			/>
		<path d="M145.2,336.8c0,1.3-0.9,2.3-2.2,2.3c-1.3,0.1-2.4-1-2.5-2.3c0-1.3,1.1-2.4,2.4-2.4C144.2,334.6,145.2,335.6,145.2,336.8z"
			/>
		<path d="M89.6,384.9c-1.2,0-2.3-1-2.3-2.2c0-1.3,0.9-2.3,2.2-2.4c1.3-0.1,2.5,1,2.4,2.3C91.9,383.8,90.8,384.9,89.6,384.9z"/>
		<path d="M82,289c1.2,0,2.3,1,2.4,2.2c0.1,1.3-1,2.4-2.3,2.4s-2.2-1-2.3-2.3C79.8,290.1,80.8,289.1,82,289z"/>
		<path d="M56.9,306.6c0-1.3,1-2.3,2.3-2.3c1.2,0,2.3,1.1,2.3,2.3c0,1.2-1.1,2.3-2.3,2.3C57.9,308.9,56.8,307.8,56.9,306.6z"/>
		<path d="M107.1,382.6c0,1.3-0.9,2.3-2.2,2.4c-1.3,0.1-2.4-1.1-2.4-2.3c0-1.2,1.1-2.3,2.3-2.3C106.1,380.3,107.1,381.3,107.1,382.6
			z"/>
		<path d="M49.3,352.2c0-1.3,0.9-2.3,2.2-2.4c1.2,0,2.3,1,2.4,2.2c0,1.2-1,2.3-2.2,2.4C50.4,354.5,49.4,353.5,49.3,352.2z"/>
		<path d="M145.2,329.3c0,1.3-0.9,2.3-2.2,2.3s-2.4-1-2.4-2.3c0-1.2,1.1-2.2,2.3-2.2C144.1,327.1,145.1,328.1,145.2,329.3z"/>
		<path d="M51.6,324.1c-1.3,0-2.2-1-2.2-2.3s1-2.3,2.2-2.3c1.3,0,2.4,1.1,2.4,2.4C53.9,323.1,52.8,324.1,51.6,324.1z"/>
		<path d="M145.2,344.7c0,1.2-1,2.3-2.3,2.3c-1.2,0-2.3-1.1-2.3-2.3c0-1.3,1.1-2.4,2.4-2.3C144.2,342.4,145.2,343.4,145.2,344.7z"/>
		<path d="M69.1,298.9c0,1.3-1,2.2-2.3,2.2s-2.3-1.1-2.2-2.3c0-1.2,1.1-2.2,2.4-2.2C68.2,296.6,69.1,297.7,69.1,298.9z"/>
		<path d="M112.3,289.1c1.3,0,2.3,0.9,2.3,2.2c0,1.3-0.9,2.3-2.2,2.3c-1.3,0-2.3-0.9-2.4-2.2C110,290.2,111.1,289.1,112.3,289.1z"/>
		<path d="M69.1,375.2c0,1.2-1.1,2.2-2.4,2.2c-1.2-0.1-2.2-1.2-2.1-2.4c0.1-1.2,1.1-2.1,2.2-2.1C68.1,372.9,69.1,374,69.1,375.2z"/>
		<path d="M137.6,306.6c0,1.2-1.1,2.2-2.3,2.2c-1.2-0.1-2.1-1.1-2.1-2.2c0-1.2,1-2.3,2.2-2.3C136.6,304.4,137.6,305.4,137.6,306.6z"
			/>
		<path d="M84.3,382.7c0,1.2-1.1,2.3-2.3,2.2c-1.2-0.1-2.1-1-2.1-2.2s1-2.3,2.2-2.3C83.3,380.4,84.3,381.4,84.3,382.7z"/>
		<path d="M59.1,369.6c-1.3,0-2.2-1.1-2.2-2.3c0.1-1.2,1.1-2.2,2.4-2.1c1.2,0.1,2.1,1,2.1,2.2C61.3,368.7,60.3,369.6,59.1,369.6z"/>
		<path d="M127.6,296.7c1.3,0,2.3,0.9,2.3,2.2c0,1.2-0.9,2.2-2.1,2.2c-1.3,0.1-2.3-0.8-2.4-2.1C125.3,297.7,126.3,296.7,127.6,296.7
			z"/>
		<path d="M142.9,324c-1.3,0-2.3-1-2.2-2.2c0-1.2,0.9-2.1,2.1-2.2c1.3,0,2.3,0.9,2.3,2.2C145.1,323,144.2,324,142.9,324z"/>
		<path d="M110.2,382.6c0-1.2,1-2.2,2.1-2.2c1.2-0.1,2.3,1,2.3,2.2s-1.1,2.3-2.3,2.2C111.1,384.8,110.2,383.8,110.2,382.6z"/>
		<path d="M145.1,352.1c0,1.2-1.1,2.3-2.3,2.3s-2.1-1-2.1-2.2s0.9-2.2,2.1-2.3C144,349.8,145.1,350.9,145.1,352.1z"/>
		<path d="M129.8,375c0,1.2-0.8,2.2-2,2.3c-1.2,0.1-2.3-1-2.3-2.2c0-1.1,1-2.2,2.2-2.2C128.8,372.9,129.8,373.8,129.8,375z"/>
		<path d="M53.7,314.1c0,1.2-0.9,2.2-2.1,2.2c-1.2,0-2.2-0.9-2.2-2.1c-0.1-1.2,1-2.3,2.2-2.3C52.8,311.9,53.7,312.9,53.7,314.1z"/>
		<path d="M135.3,369.6c-1.2,0-2.1-1-2.1-2.2s0.9-2.1,2.1-2.2c1.3,0,2.3,1,2.2,2.3C137.5,368.6,136.5,369.6,135.3,369.6z"/>
		<path d="M74.3,293.5c-1.2,0-2.1-1-2.1-2.2s0.9-2.1,2.1-2.2c1.3,0,2.3,1,2.2,2.2C76.5,292.6,75.5,293.5,74.3,293.5z"/>
		<path d="M51.6,362c-1.2,0-2.2-1-2.1-2.2c0-1.2,1-2.1,2.2-2.1s2.1,1,2.1,2.2C53.7,361.1,52.7,362,51.6,362z"/>
		<path d="M122.2,291.4c0,1.2-1,2.1-2.2,2.1s-2.1-1-2.1-2.2s1-2.1,2.2-2.1C121.3,289.2,122.2,290.2,122.2,291.4z"/>
		<path d="M142.8,316.2c-1.2,0-2.1-1-2-2.2c0.1-1.1,1-2,2.1-2c1.2,0,2.2,1,2.2,2.1C145,315.3,144,316.2,142.8,316.2z"/>
		<path d="M140.8,359.9c0-1.1,0.9-2.1,2-2.2c1.2-0.1,2.2,0.9,2.2,2.1c0,1.1-1,2.1-2.1,2.1C141.8,362,140.8,361,140.8,359.9z"/>
		<path d="M74.3,384.7c-1.2,0-2.1-1-2-2.2c0.1-1.1,0.9-2,2.1-2s2.2,1,2.2,2.1C76.5,383.8,75.5,384.8,74.3,384.7z"/>
		<path d="M61.2,298.8c0,1.1-0.9,2.1-2,2.1c-1.1,0.1-2.1-0.9-2.2-1.9c-0.1-1.2,0.9-2.2,2.1-2.2C60.2,296.8,61.2,297.7,61.2,298.8z"
			/>
		<path d="M41.8,336.9c0-1.1,0.9-2.1,2-2.1c1.2,0,2.2,1,2.1,2.2c0,1.1-1,2-2.1,2S41.8,338,41.8,336.9z"/>
		<path d="M122.2,382.6c0,1.1-0.8,2.1-2,2.1c-1.2,0.1-2.2-0.9-2.2-2.1c0-1.1,0.9-2,2.1-2C121.2,380.6,122.1,381.4,122.2,382.6z"/>
		<path d="M41.8,329.3c0-1.1,0.9-2,2-2c1.2,0,2.1,1,2.1,2.2c-0.1,1.1-1.1,2-2.1,2C42.7,331.4,41.8,330.4,41.8,329.3z"/>
		<path d="M99.2,283.6c0,1.1-0.9,2-2,2c-1.2,0-2.2-1-2.1-2.2c0.1-1.1,1-2,2.1-2C98.3,281.6,99.2,282.5,99.2,283.6z"/>
		<path d="M89.5,285.7c-1.2,0-2-1-2-2.1s1-2,2.1-1.9c1.1,0,2,1,2,2.1C91.6,284.9,90.7,285.7,89.5,285.7z"/>
		<path d="M45.9,344.6c0,1.1-0.9,2-2.1,2c-1.1,0-2-0.9-2-2.1c0-1.1,0.9-2,2.1-2C45.1,342.6,45.9,343.5,45.9,344.6z"/>
		<path d="M106.9,283.7c0,1.1-0.9,2-2.1,2c-1.1,0-2-0.9-2-2.1c0-1.1,0.9-2,2.1-2C106,281.6,106.9,282.5,106.9,283.7z"/>
		<path d="M96.9,392.2c-1.1-0.1-1.9-1.1-1.7-2.3c0.1-1.1,1.1-1.9,2.3-1.7c1,0.2,1.8,1.1,1.7,2.2C99.1,391.5,98,392.3,96.9,392.2z"/>
		<path d="M68.8,291.3c0,1.1-0.9,2.1-2.1,2c-1,0-1.9-0.9-2-2c0-1.1,0.9-2.1,2-2.1C67.9,289.3,68.8,290.2,68.8,291.3z"/>
		<path d="M51.6,304.6c1.1,0,2.1,0.9,2.1,2s-1,2-2.1,2s-1.9-0.9-1.9-1.9C49.6,305.5,50.4,304.6,51.6,304.6z"/>
		<path d="M59.1,377.1c-1.1,0-2-1-1.9-2.1s0.9-1.9,2-1.9s2.1,0.9,2,2S60.2,377.1,59.1,377.1z"/>
		<path d="M137.3,298.9c0,1.1-0.9,2.1-2,2c-1,0-1.9-0.9-2-1.9c-0.1-1.1,0.9-2.1,2-2.1C136.4,296.8,137.3,297.7,137.3,298.9z"/>
		<path d="M152.4,336.9c0,1.2-0.9,2.1-2,2c-1,0-1.9-0.9-2-1.9c-0.1-1.1,0.8-2.1,1.9-2.1C151.4,334.8,152.4,335.7,152.4,336.9z"/>
		<path d="M152.4,329.3c0,1.1-0.7,2-1.8,2c-1.1,0.1-2.1-0.8-2.2-1.9c0-1.1,0.9-2.1,2-2.1C151.5,327.4,152.3,328.2,152.4,329.3z"/>
		<path d="M45.8,321.9c0,1.1-0.8,1.9-1.9,2c-1.1,0-2.1-0.9-2.1-2c0-1,0.9-1.9,1.9-2C44.9,319.8,45.9,320.7,45.8,321.9z"/>
		<path d="M106.8,390.2c0,1.1-0.8,1.9-1.9,2c-1.1,0-2.1-0.9-2.1-2s1-2,2.1-2S106.8,389.1,106.8,390.2z"/>
		<path d="M87.7,390.1c0-1.1,0.8-1.9,1.9-1.9s2.1,0.9,2.1,2s-1,2-2.1,1.9C88.4,392.1,87.6,391.2,87.7,390.1z"/>
		<path d="M51.5,369.4c-1.1,0-1.9-0.9-1.9-2s0.9-2.1,2-2c1,0,1.9,1,1.9,2C53.6,368.5,52.7,369.4,51.5,369.4z"/>
		<path d="M80.1,283.6c0-1.1,0.8-1.9,1.9-2c1.1,0,2.1,0.9,2.1,2s-1,2-2.1,2S80.1,284.7,80.1,283.6z"/>
		<path d="M150.5,342.6c1.1,0,1.9,0.9,1.9,2s-0.9,2-2,2c-1,0-1.9-1-1.9-2C148.4,343.5,149.4,342.6,150.5,342.6z"/>
		<path d="M127.6,293.3c-1.1,0-1.9-0.8-1.9-1.9s0.9-2.1,2-2c1,0,1.9,0.9,1.9,2C129.7,292.4,128.7,293.3,127.6,293.3z"/>
		<path d="M45.8,352.1c0,1.1-0.9,2.1-2,2c-1,0-1.9-0.9-2-1.9c0-1.1,0.9-2,2-2C45,350.2,45.8,351,45.8,352.1z"/>
		<path d="M112.4,281.7c1.1,0,1.9,0.8,1.9,1.9s-0.9,2-2,2c-1,0-1.9-0.9-1.9-1.9C110.4,282.6,111.3,281.6,112.4,281.7z"/>
		<path d="M144.8,306.5c0,1.1-0.8,2-1.8,2c-1.1,0.1-2.1-0.9-2.1-2c0-1,0.9-1.9,2-1.9C143.9,304.6,144.8,305.4,144.8,306.5z"/>
		<path d="M68.8,382.6c0,1.1-0.8,2-1.8,2c-1.1,0.1-2.1-0.9-2.1-2c0-1,0.9-1.9,2-1.9C67.9,380.7,68.7,381.5,68.8,382.6z"/>
		<path d="M137.3,375.2c0,1.1-0.9,1.9-2,1.9c-1,0-1.9-0.9-2-2c0-1.1,1-2,2.1-2C136.5,373.2,137.3,374.1,137.3,375.2z"/>
		<path d="M82,388.2c1,0,2,0.9,2,1.9s-0.9,2-1.9,2s-1.9-0.9-2-1.9C80.1,389.1,81,388.2,82,388.2z"/>
		<path d="M112.3,392.1c-1,0-1.9-1-1.9-2s0.9-1.9,2-1.9c1,0,1.9,0.9,1.9,2C114.3,391.2,113.4,392.1,112.3,392.1z"/>
		<path d="M152.3,352.1c0,1-0.8,1.9-1.9,2c-1,0-1.9-0.9-2-1.9c0-1,0.9-1.9,1.9-2C151.4,350.2,152.3,351.1,152.3,352.1z"/>
		<path d="M125.7,382.5c0.1-1.1,1-1.9,2-1.8s1.9,1,1.8,2c-0.1,1-1,1.9-2,1.8C126.5,384.5,125.7,383.6,125.7,382.5z"/>
		<path d="M152.3,321.9c0,1.1-0.9,1.9-2,1.9s-1.9-0.9-1.9-2c0-1,1-1.9,2-1.9C151.5,319.9,152.4,320.8,152.3,321.9z"/>
		<path d="M44,312.2c1.1,0,1.9,1,1.8,2.1c-0.1,1-1,1.8-1.9,1.7c-1,0-1.9-1-1.8-2.1C42.1,313,43,312.2,44,312.2z"/>
		<path d="M74.3,281.7c1,0,1.9,0.9,1.9,2c0,1-0.9,1.8-1.9,1.8s-1.9-0.9-1.9-2C72.5,282.6,73.4,281.7,74.3,281.7z"/>
		<path d="M142.8,369.3c-1.1,0-1.9-0.9-1.9-2c0-1,0.9-1.9,2-1.8c1.1,0,1.9,0.9,1.8,2C144.8,368.5,143.9,369.3,142.8,369.3z"/>
		<path d="M120.1,285.5c-1,0-1.8-0.9-1.8-1.9s1-2,2-1.9s1.8,0.9,1.7,1.9C121.9,284.7,121.1,285.5,120.1,285.5z"/>
		<path d="M45.7,359.8c0,1-0.7,1.8-1.7,1.9s-1.9-0.7-1.9-1.7c-0.1-1.1,0.7-2,1.8-2C44.9,358,45.7,358.8,45.7,359.8z"/>
		<path d="M74.4,388.3c1,0,1.8,0.9,1.8,1.8c0,1-0.8,1.8-1.8,1.8s-1.8-0.8-1.8-1.8C72.6,389.1,73.4,388.3,74.4,388.3z"/>
		<path d="M60.9,291.4c0,1-0.8,1.8-1.9,1.8c-1,0-1.8-0.9-1.8-1.9s0.9-1.8,1.9-1.7C60.2,289.6,60.9,290.4,60.9,291.4z"/>
		<path d="M51.6,297.1c1,0,1.8,0.8,1.8,1.8s-0.8,1.8-1.8,1.8s-1.8-0.9-1.8-1.8C49.8,297.9,50.6,297.1,51.6,297.1z"/>
		<path d="M152.2,314.2c0,1-0.9,1.8-1.9,1.7c-1,0-1.8-0.9-1.7-1.9c0-1,0.9-1.8,1.9-1.8C151.5,312.3,152.3,313.2,152.2,314.2z"/>
		<path d="M142.9,300.7c-1,0-1.8-0.8-1.7-1.8c0-0.9,0.7-1.7,1.7-1.7s1.8,0.8,1.9,1.7C144.7,299.8,143.8,300.7,142.9,300.7z"/>
		<path d="M152.2,359.8c0,1-0.9,1.8-1.8,1.8c-0.9,0-1.7-0.7-1.8-1.7s0.7-1.9,1.7-1.9C151.3,358,152.2,358.8,152.2,359.8z"/>
		<path d="M135.4,289.6c1,0,1.8,0.9,1.7,1.9s-1,1.8-1.9,1.7c-0.9-0.1-1.6-0.9-1.6-1.8C133.6,290.3,134.4,289.5,135.4,289.6z"/>
		<path d="M53.3,375.1c0,1-0.7,1.8-1.8,1.8c-1,0-1.8-0.8-1.8-1.8c0-0.9,0.8-1.7,1.7-1.7C52.5,373.3,53.3,374,53.3,375.1z"/>
		<path d="M120.1,388.4c1,0,1.8,0.8,1.8,1.8s-0.7,1.7-1.7,1.8c-1,0.1-1.9-0.7-1.9-1.7C118.2,389.3,119.1,388.4,120.1,388.4z"/>
		<path d="M60.9,382.6c0,1-0.7,1.8-1.8,1.8c-1,0-1.8-0.8-1.8-1.8c0-0.9,0.8-1.7,1.7-1.7C60,380.8,60.8,381.6,60.9,382.6z"/>
		<path d="M36.3,331.1c-0.9,0-1.7-0.9-1.6-1.8c0-1,0.9-1.8,1.9-1.7c0.9,0.1,1.6,1,1.6,1.9C38,330.4,37.1,331.2,36.3,331.1z"/>
		<path d="M38.1,336.9c0,0.9-0.9,1.8-1.8,1.8c-0.9,0-1.7-0.8-1.7-1.7c0-1,0.7-1.7,1.6-1.8C37.2,335.1,38.1,335.9,38.1,336.9z"/>
		<path d="M97.1,274.3c0.9,0,1.7,0.7,1.8,1.6c0.1,1-0.6,1.9-1.7,1.9c-1,0-1.9-0.8-1.8-1.8C95.4,275.2,96.2,274.4,97.1,274.3z"/>
		<path d="M43.9,308.3c-1,0-1.7-0.7-1.7-1.7c0-0.9,0.7-1.7,1.6-1.8c1,0,1.9,0.8,1.8,1.8C45.6,307.6,44.8,308.3,43.9,308.3z"/>
		<path d="M68.6,283.6c0,0.9-0.7,1.7-1.6,1.8c-1,0.1-1.7-0.6-1.8-1.6c-0.1-1,0.7-1.9,1.7-1.9C67.8,281.9,68.6,282.6,68.6,283.6z"/>
		<path d="M89.6,277.8c-0.9,0-1.7-0.8-1.7-1.7c0-1,0.9-1.8,1.9-1.7c0.9,0.1,1.6,0.9,1.6,1.8C91.3,277.1,90.5,277.8,89.6,277.8z"/>
		<path d="M36.3,346.3c-0.9,0-1.7-0.8-1.7-1.7c0-0.9,0.7-1.7,1.7-1.7s1.8,0.8,1.8,1.8C38,345.6,37.2,346.3,36.3,346.3z"/>
		<path d="M137.1,382.6c0,0.9-0.8,1.7-1.7,1.7c-1,0-1.8-0.8-1.8-1.8c0-0.9,0.8-1.6,1.7-1.6C136.3,381,137.1,381.7,137.1,382.6z"/>
		<path d="M142.9,373.4c0.9,0,1.7,0.7,1.7,1.7s-0.8,1.8-1.8,1.7c-0.9,0-1.6-0.8-1.6-1.7C141.2,374.1,141.9,373.4,142.9,373.4z"/>
		<path d="M45.6,367.3c0,0.9-0.7,1.7-1.6,1.8c-0.9,0-1.7-0.7-1.8-1.6c0-0.9,0.7-1.7,1.6-1.8C44.7,365.6,45.5,366.4,45.6,367.3z"/>
		<path d="M106.6,276.2c0,0.9-0.8,1.6-1.7,1.6c-1,0-1.8-0.8-1.7-1.8c0.1-0.9,0.9-1.6,1.8-1.5C105.9,274.5,106.6,275.2,106.6,276.2z"
			/>
		<path d="M127.7,282c0.9,0,1.7,0.8,1.6,1.7c0,0.9-0.8,1.6-1.8,1.6c-0.9,0-1.7-0.8-1.6-1.7C126,282.6,126.8,281.9,127.7,282z"/>
		<path d="M97.2,399.6c-0.9,0-1.7-0.7-1.7-1.7c0-0.9,0.7-1.6,1.5-1.7c0.9-0.1,1.8,0.7,1.8,1.6C98.9,398.7,98.1,399.5,97.2,399.6z"/>
		<path d="M159.8,336.9c0,0.9-0.8,1.7-1.7,1.7s-1.6-0.7-1.6-1.6s0.7-1.7,1.6-1.8C159,335.2,159.8,336,159.8,336.9z"/>
		<path d="M38,321.7c0,1-0.7,1.7-1.6,1.8c-0.9,0-1.7-0.8-1.7-1.7c0-0.8,0.7-1.6,1.5-1.7C37.1,320.1,37.9,320.8,38,321.7z"/>
		<path d="M106.5,397.8c0,0.9-0.6,1.6-1.5,1.7s-1.8-0.7-1.8-1.6s0.8-1.7,1.7-1.7C105.7,396.2,106.4,396.9,106.5,397.8z"/>
		<path d="M150.4,304.9c1,0,1.7,0.7,1.7,1.7c0,0.9-0.7,1.6-1.5,1.6c-1,0.1-1.7-0.6-1.8-1.6C148.7,305.7,149.4,305,150.4,304.9z"/>
		<path d="M89.6,399.5c-0.9,0-1.6-0.7-1.7-1.5c-0.1-1,0.7-1.8,1.6-1.8s1.7,0.8,1.7,1.7C91.2,398.8,90.5,399.5,89.6,399.5z"/>
		<path d="M150.4,369c-0.8,0-1.6-0.8-1.6-1.6c0-0.9,0.8-1.7,1.7-1.7s1.7,0.8,1.6,1.8C152,368.4,151.3,369.1,150.4,369z"/>
		<path d="M159.8,329.3c0,0.9-0.8,1.7-1.7,1.7s-1.6-0.7-1.6-1.6s0.6-1.6,1.5-1.7C158.9,327.6,159.8,328.4,159.8,329.3z"/>
		<path d="M82,277.7c-0.9,0-1.6-0.8-1.6-1.8c0.1-0.9,0.8-1.5,1.7-1.5c0.9,0,1.7,0.8,1.7,1.7C83.7,277.1,82.9,277.8,82,277.7z"/>
		<path d="M68.5,390.1c0,1-0.7,1.7-1.6,1.7s-1.7-0.7-1.7-1.7c0-0.9,0.7-1.6,1.6-1.6C67.7,388.4,68.5,389.1,68.5,390.1z"/>
		<path d="M112.4,274.5c0.9,0,1.6,0.7,1.6,1.6c0,1-0.7,1.7-1.7,1.7c-0.9,0-1.6-0.7-1.6-1.6C110.7,275.2,111.5,274.4,112.4,274.5z"/>
		<path d="M158.2,343c0.9,0,1.6,0.7,1.6,1.6s-0.8,1.7-1.7,1.7c-1,0-1.6-0.8-1.6-1.8C156.6,343.6,157.3,342.9,158.2,343z"/>
		<path d="M127.6,388.5c0.9,0,1.7,0.7,1.7,1.6c0,0.8-0.7,1.6-1.6,1.6s-1.7-0.7-1.7-1.6C126,389.3,126.7,388.6,127.6,388.5z"/>
		<path d="M36.4,353.8c-0.9,0-1.7-0.8-1.7-1.7c0-0.9,0.8-1.6,1.6-1.6c1,0,1.7,0.7,1.7,1.7C37.9,353.1,37.3,353.8,36.4,353.8z"/>
		<path d="M159.7,352.1c0,0.8-0.7,1.6-1.5,1.7c-0.9,0.1-1.6-0.6-1.6-1.5s0.6-1.6,1.5-1.7C158.9,350.5,159.7,351.2,159.7,352.1z"/>
		<path d="M37.9,314c0,0.9-0.6,1.6-1.5,1.7c-0.8,0-1.6-0.7-1.7-1.5c-0.1-0.8,0.7-1.6,1.5-1.7C37.1,312.5,37.9,313.1,37.9,314z"/>
		<path d="M158.1,320.2c0.8,0,1.6,0.7,1.6,1.6s-0.8,1.7-1.7,1.6c-0.9,0-1.5-0.7-1.5-1.6C156.6,320.9,157.3,320.2,158.1,320.2z"/>
		<path d="M53.2,291.3c0,0.8-0.7,1.6-1.6,1.6c-0.9,0-1.6-0.6-1.6-1.5c0-1,0.7-1.7,1.6-1.7C52.5,289.7,53.2,290.5,53.2,291.3z"/>
		<path d="M82.1,399.5c-0.9,0-1.6-0.6-1.6-1.5s0.6-1.6,1.5-1.7s1.7,0.7,1.7,1.6C83.7,398.7,83,399.4,82.1,399.5z"/>
		<path d="M74.4,277.7c-0.8,0-1.6-0.8-1.6-1.6c0-0.8,0.8-1.6,1.6-1.6c0.9,0,1.6,0.7,1.6,1.6C75.9,277,75.2,277.7,74.4,277.7z"/>
		<path d="M59.1,282.1c0.8,0,1.6,0.8,1.6,1.6c0,0.8-0.9,1.6-1.7,1.5s-1.4-0.7-1.5-1.5C57.6,282.8,58.3,282.1,59.1,282.1z"/>
		<path d="M114,397.8c0,0.9-0.6,1.6-1.5,1.6s-1.6-0.7-1.6-1.5s0.7-1.6,1.6-1.6C113.2,396.3,113.9,397,114,397.8z"/>
		<path d="M121.7,276c0,0.8-0.7,1.6-1.5,1.6s-1.5-0.6-1.6-1.4c-0.1-0.9,0.5-1.6,1.4-1.7C120.8,274.5,121.6,275.2,121.7,276z"/>
		<path d="M53.2,382.6c0,0.8-0.8,1.6-1.6,1.5c-0.9,0-1.5-0.8-1.5-1.7c0.1-0.8,0.7-1.4,1.5-1.4C52.4,381.1,53.2,381.8,53.2,382.6z"/>
		<path d="M136.9,283.6c0,0.8-0.7,1.6-1.5,1.6s-1.4-0.7-1.5-1.5c0-0.8,0.7-1.6,1.6-1.6C136.2,282.1,136.8,282.8,136.9,283.6z"/>
		<path d="M45.4,298.9c0,0.9-0.8,1.5-1.7,1.5c-0.8-0.1-1.4-0.7-1.5-1.5c0-0.8,0.7-1.6,1.6-1.6C44.8,297.3,45.5,298.1,45.4,298.9z"/>
		<path d="M43.8,373.6c0.8,0,1.5,0.6,1.6,1.4s-0.6,1.6-1.4,1.7c-0.8,0.1-1.5-0.6-1.6-1.3C42.3,374.4,43,373.6,43.8,373.6z"/>
		<path d="M36.4,358.3c0.9,0,1.6,0.7,1.5,1.6c-0.1,0.8-0.7,1.4-1.6,1.4c-0.8,0-1.5-0.6-1.5-1.5C34.8,359.1,35.5,358.3,36.4,358.3z"
			/>
		<path d="M144.4,291.4c0,0.9-0.8,1.5-1.7,1.5c-0.8-0.1-1.4-0.7-1.4-1.6s0.8-1.5,1.7-1.5C143.8,289.9,144.4,290.6,144.4,291.4z"/>
		<path d="M75.9,397.9c0,0.8-0.7,1.4-1.5,1.5c-0.9,0-1.6-0.7-1.5-1.6c0.1-0.8,0.7-1.4,1.5-1.4C75.2,396.4,75.9,397.1,75.9,397.9z"/>
		<path d="M150.4,300.4c-0.8,0-1.4-0.6-1.5-1.5c0-0.8,0.6-1.5,1.4-1.5c0.9,0,1.6,0.7,1.6,1.5C151.9,299.7,151.2,300.4,150.4,300.4z"
			/>
		<path d="M142.9,381.1c0.8,0,1.5,0.7,1.5,1.5s-0.8,1.6-1.6,1.5s-1.4-0.8-1.4-1.6C141.5,381.8,142.1,381.1,142.9,381.1z"/>
		<path d="M158.2,315.6c-0.8,0-1.5-0.6-1.6-1.4s0.6-1.6,1.5-1.6c0.8,0,1.5,0.7,1.5,1.5C159.6,314.9,159,315.6,158.2,315.6z"/>
		<path d="M59.2,391.7c-0.8,0-1.5-0.6-1.6-1.4s0.6-1.6,1.5-1.6c0.8,0,1.5,0.7,1.5,1.5C60.6,390.9,60,391.6,59.2,391.7z"/>
		<path d="M158.2,361.3c-0.8,0-1.5-0.6-1.5-1.4s0.6-1.5,1.4-1.5c0.8,0,1.5,0.6,1.5,1.4C159.6,360.7,159,361.3,158.2,361.3z"/>
		<path d="M121.5,397.8c0,0.8-0.6,1.5-1.4,1.5s-1.5-0.6-1.5-1.4s0.6-1.5,1.4-1.5C120.9,396.4,121.5,397,121.5,397.8z"/>
		<path d="M135.3,388.7c0.8,0,1.5,0.7,1.5,1.4c0,0.8-0.7,1.5-1.5,1.5s-1.3-0.6-1.4-1.3C133.9,389.4,134.5,388.7,135.3,388.7z"/>
		<path d="M150.3,373.6c0.8,0,1.5,0.7,1.5,1.4c0,0.8-0.7,1.5-1.5,1.5s-1.3-0.6-1.4-1.3C148.9,374.4,149.6,373.7,150.3,373.6z"/>
		<path d="M66.9,274.6c0.8,0,1.5,0.8,1.4,1.5c0,0.8-0.8,1.4-1.6,1.4c-0.8-0.1-1.3-0.6-1.3-1.4C65.4,275.3,66.1,274.6,66.9,274.6z"/>
		<path d="M36.3,308c-0.8,0-1.4-0.6-1.4-1.5c0-0.7,0.6-1.4,1.3-1.4c0.8,0,1.5,0.7,1.5,1.4C37.8,307.3,37.1,308,36.3,308z"/>
		<path d="M95.7,268.6c0-0.8,0.7-1.5,1.5-1.4c0.7,0,1.3,0.6,1.3,1.4S98,270,97.2,270C96.5,270,95.7,269.4,95.7,268.6z"/>
		<path d="M30.2,336.9c0,0.8-0.8,1.5-1.5,1.4c-0.7,0-1.3-0.7-1.3-1.4c0-0.8,0.6-1.4,1.3-1.4C29.5,335.4,30.3,336.1,30.2,336.9z"/>
		<path d="M30.2,344.6c0,0.7-0.6,1.4-1.3,1.4c-0.8,0-1.4-0.5-1.5-1.2c-0.1-0.8,0.5-1.5,1.4-1.5C29.5,343.2,30.2,343.8,30.2,344.6z"
			/>
		<path d="M127.7,277.5c-0.7,0-1.4-0.5-1.5-1.3s0.6-1.5,1.4-1.5c0.8,0,1.3,0.6,1.4,1.4C129,276.8,128.5,277.4,127.7,277.5z"/>
		<path d="M89.6,267.2c0.8,0,1.4,0.5,1.4,1.3c0.1,0.8-0.5,1.4-1.2,1.5c-0.8,0.1-1.5-0.6-1.6-1.3C88.2,267.9,88.8,267.2,89.6,267.2z"
			/>
		<path d="M28.9,330.8c-0.7,0-1.4-0.5-1.5-1.3c-0.1-0.7,0.5-1.4,1.2-1.5c0.8-0.1,1.5,0.6,1.6,1.3C30.2,330,29.6,330.7,28.9,330.8z"
			/>
		<path d="M104.8,269.9c-0.8,0-1.3-0.6-1.4-1.3c0-0.8,0.5-1.4,1.3-1.4s1.5,0.7,1.5,1.4C106.2,269.3,105.6,269.9,104.8,269.9z"/>
		<path d="M68.2,397.8c0,0.7-0.6,1.4-1.3,1.5c-0.7,0.1-1.4-0.6-1.4-1.3c0-0.7,0.5-1.4,1.3-1.5C67.5,396.4,68.2,397.1,68.2,397.8z"/>
		<path d="M36.3,366c0.7,0,1.4,0.6,1.5,1.3c0.1,0.8-0.7,1.5-1.4,1.5s-1.3-0.6-1.4-1.4C35,366.6,35.5,366,36.3,366z"/>
		<path d="M28.9,323.2c-0.7,0-1.4-0.6-1.4-1.3c0-0.7,0.6-1.4,1.3-1.4c0.7,0,1.3,0.6,1.3,1.2C30.2,322.4,29.6,323.1,28.9,323.2z"/>
		<path d="M98.5,405.5c0,0.7-0.7,1.3-1.4,1.3c-0.6-0.1-1.2-0.7-1.2-1.3c0-0.7,0.6-1.4,1.3-1.4C97.9,404.1,98.5,404.7,98.5,405.5z"/>
		<path d="M129,397.9c0,0.7-0.7,1.3-1.4,1.3c-0.6-0.1-1.2-0.7-1.2-1.3c0-0.7,0.6-1.4,1.4-1.4C128.4,396.5,129,397.2,129,397.9z"/>
		<path d="M45.2,291.4c0,0.7-0.7,1.4-1.4,1.3c-0.7,0-1.2-0.6-1.2-1.3c0-0.7,0.6-1.4,1.3-1.4S45.2,290.6,45.2,291.4z"/>
		<path d="M159.5,367.4c0,0.7-0.7,1.4-1.4,1.3c-0.6-0.1-1.2-0.7-1.2-1.3c0-0.7,0.6-1.4,1.3-1.4C158.9,366,159.5,366.7,159.5,367.4z"
			/>
		<path d="M167,336.9c0,0.7-0.7,1.4-1.4,1.3c-0.6-0.1-1.2-0.7-1.2-1.3c0-0.7,0.6-1.4,1.3-1.4C166.4,335.5,167,336.2,167,336.9z"/>
		<path d="M159.5,306.7c0,0.8-0.7,1.3-1.4,1.3c-0.8,0-1.3-0.7-1.3-1.4c0-0.7,0.7-1.3,1.4-1.3C159,305.3,159.5,305.9,159.5,306.7z"/>
		<path d="M104.8,406.7c-0.7,0-1.3-0.7-1.2-1.5c0.1-0.7,0.7-1.2,1.4-1.2c0.7,0,1.3,0.7,1.2,1.5C106.1,406.2,105.4,406.8,104.8,406.7
			z"/>
		<path d="M90.9,405.5c0,0.7-0.7,1.3-1.5,1.2c-0.7-0.1-1.2-0.7-1.1-1.4c0-0.7,0.6-1.2,1.3-1.3C90.3,404.1,91,404.7,90.9,405.5z"/>
		<path d="M52.9,283.6c0,0.7-0.6,1.3-1.4,1.3c-0.8,0-1.3-0.6-1.3-1.4c0-0.7,0.6-1.2,1.3-1.2C52.3,282.3,52.9,282.9,52.9,283.6z"/>
		<path d="M83.4,268.5c0,0.7-0.6,1.3-1.3,1.3c-0.8,0-1.3-0.6-1.3-1.4c0-0.7,0.6-1.2,1.3-1.3C82.8,267.2,83.4,267.8,83.4,268.5z"/>
		<path d="M165.7,328c0.7,0,1.3,0.8,1.2,1.5c-0.1,0.6-0.7,1.2-1.4,1.2s-1.3-0.7-1.2-1.5C164.5,328.5,165.1,328,165.7,328z"/>
		<path d="M112.4,269.9c-0.7,0-1.4-0.6-1.3-1.4c0-0.7,0.6-1.2,1.3-1.2c0.8,0,1.3,0.6,1.3,1.4C113.6,269.3,113.1,269.9,112.4,269.9z"
			/>
		<path d="M151.7,291.4c0,0.7-0.6,1.2-1.3,1.2s-1.3-0.6-1.3-1.2c0-0.7,0.7-1.4,1.4-1.3C151.2,290.1,151.7,290.7,151.7,291.4z"/>
		<path d="M30.1,352.1c0,0.7-0.5,1.2-1.2,1.3c-0.7,0-1.4-0.6-1.4-1.3c0-0.7,0.6-1.3,1.4-1.3C29.6,350.9,30.1,351.4,30.1,352.1z"/>
		<path d="M165.6,343.3c0.8,0,1.4,0.6,1.3,1.3c0,0.7-0.6,1.2-1.3,1.2c-0.8,0-1.3-0.6-1.3-1.3C164.4,343.8,164.9,343.3,165.6,343.3z"
			/>
		<path d="M43.8,381.4c0.7,0,1.3,0.4,1.3,1.2c0.1,0.7-0.4,1.3-1.1,1.4c-0.7,0.1-1.4-0.5-1.4-1.2C42.6,382,43.1,381.4,43.8,381.4z"/>
		<path d="M50.3,390.2c0-0.7,0.4-1.3,1.1-1.3c0.7-0.1,1.4,0.6,1.4,1.3c0,0.6-0.6,1.2-1.3,1.3C50.9,391.5,50.4,390.9,50.3,390.2z"/>
		<path d="M144.1,283.5c0,0.7-0.4,1.3-1.1,1.4c-0.7,0.1-1.4-0.5-1.4-1.3c0-0.6,0.6-1.2,1.2-1.3C143.5,282.3,144.1,282.8,144.1,283.5
			z"/>
		<path d="M57.9,276.1c0-0.7,0.5-1.3,1.2-1.3s1.3,0.6,1.3,1.2s-0.6,1.3-1.2,1.3C58.5,277.4,57.9,276.8,57.9,276.1z"/>
		<path d="M30,314.2c0,0.7-0.6,1.2-1.3,1.2c-0.6-0.1-1.2-0.7-1.2-1.3c0-0.6,0.7-1.2,1.3-1.1C29.6,312.9,30.1,313.5,30,314.2z"/>
		<path d="M75.6,268.6c0,0.7-0.6,1.2-1.3,1.2c-0.6,0-1.2-0.7-1.2-1.3c0-0.6,0.7-1.2,1.3-1.2C75.1,267.4,75.6,267.9,75.6,268.6z"/>
		<path d="M151.6,382.6c0,0.7-0.6,1.3-1.3,1.2c-0.6,0-1.3-0.7-1.2-1.3c0.1-0.7,0.5-1.1,1.2-1.1C151,381.4,151.6,381.9,151.6,382.6z"
			/>
		<path d="M144.1,390.2c0,0.7-0.6,1.3-1.3,1.2c-0.7,0-1.3-0.7-1.2-1.3c0.1-0.7,0.5-1.1,1.2-1.1C143.5,388.9,144.1,389.5,144.1,390.2
			z"/>
		<path d="M135.4,274.9c0.7,0,1.2,0.6,1.2,1.3c-0.1,0.7-0.5,1.1-1.2,1.1c-0.6,0.1-1.3-0.6-1.3-1.2
			C134.1,275.5,134.7,274.9,135.4,274.9z"/>
		<path d="M36.4,376.3c-0.6,0-1.3-0.6-1.3-1.2s0.6-1.3,1.3-1.3s1.1,0.4,1.2,1.1C37.6,375.7,37.1,376.3,36.4,376.3z"/>
		<path d="M166.9,352.1c0,0.6-0.6,1.3-1.2,1.3c-0.7,0-1.2-0.5-1.2-1.2s0.5-1.2,1.2-1.3C166.3,350.9,166.9,351.5,166.9,352.1z"/>
		<path d="M121.4,268.6c0,0.6-0.7,1.2-1.3,1.2c-0.7,0-1.2-0.7-1.1-1.3c0.1-0.7,0.5-1.1,1.2-1.1C120.7,267.3,121.4,268,121.4,268.6z"
			/>
		<path d="M36.4,297.6c0.7,0,1.2,0.6,1.1,1.3c0,0.7-0.6,1.2-1.3,1.1c-0.7,0-1.2-0.7-1.2-1.3C35.1,298.1,35.8,297.6,36.4,297.6z"/>
		<path d="M83.3,405.4c0,0.7-0.6,1.2-1.3,1.2c-0.7,0-1.2-0.5-1.2-1.2s0.6-1.3,1.2-1.2C82.7,404.2,83.4,404.8,83.3,405.4z"/>
		<path d="M166.9,321.8c0,0.7-0.6,1.2-1.3,1.2s-1.2-0.5-1.2-1.2s0.6-1.3,1.2-1.2C166.3,320.6,166.9,321.2,166.9,321.8z"/>
		<path d="M113.6,405.4c0,0.7-0.5,1.3-1.2,1.3s-1.1-0.4-1.2-1.1c-0.1-0.6,0.5-1.3,1.1-1.4C113,404.1,113.6,404.7,113.6,405.4z"/>
		<path d="M30,359.9c0,0.7-0.6,1.2-1.3,1.1c-0.7-0.1-1.1-0.5-1.1-1.2c0-0.6,0.6-1.2,1.3-1.2C29.5,358.7,30.1,359.2,30,359.9z"/>
		<path d="M58.7,399c-0.2-0.3-0.6-0.7-0.7-1.1c-0.2-0.7,0.5-1.2,1.2-1.2c0.7,0.1,1.1,0.5,1.1,1.1C60.4,398.5,59.8,399.1,58.7,399z"
			/>
		<path d="M159.3,298.6c-0.1,1-0.7,1.5-1.4,1.4s-1-0.5-1-1.2s0.7-1.3,1.3-1C158.7,297.9,159.1,298.4,159.3,298.6z"/>
		<path d="M167.2,314.1c-0.7,0.5-1,1-1.5,1.2c-0.6,0.2-1.3-0.5-1.2-1.2s0.5-1.2,1.2-1.1C166.1,313.1,166.5,313.6,167.2,314.1z"/>
		<path d="M76,405.4c-0.7,0.5-1.1,1-1.6,1.1c-0.6,0.2-1.3-0.6-1.2-1.2c0.1-0.7,0.5-1.2,1.2-1C74.9,404.4,75.3,404.9,76,405.4z"/>
		<path d="M156.6,375c0.7-0.5,1.2-1,1.6-1c0.7-0.1,1,0.5,1,1.2c0,0.6-0.6,1.2-1.2,1C157.6,376,157.2,375.6,156.6,375z"/>
		<path d="M119.7,404.3c1,0,1.4,0.3,1.5,1c0,0.7-0.3,1.1-1,1.2c-0.7,0-1.2-0.4-1.1-1C119.1,405,119.5,404.6,119.7,404.3z"/>
		<path d="M165.3,361c-0.2-0.3-0.7-0.7-0.7-1.2c-0.1-0.7,0.4-1.1,1.1-1c0.7,0,1.1,0.5,1.1,1.1C166.7,360.6,166.3,361,165.3,361z"/>
		<path d="M135.7,396.8c0.2,0.3,0.7,0.7,0.7,1.2c0.1,0.7-0.4,1.1-1.1,1c-0.7,0-1.1-0.5-1-1.2C134.3,397.1,134.7,396.8,135.7,396.8z"
			/>
		<path d="M67.2,269.6c-0.9,0-1.5-0.4-1.4-1.1c0-0.6,0.4-1,1-1.1s1.3,0.5,1.2,1C67.8,268.9,67.4,269.4,67.2,269.6z"/>
		<path d="M30.4,306.5c-0.7,0.6-1.1,1-1.5,1.2c-0.6,0.1-1-0.3-1.1-0.9s0.4-1.3,0.9-1.2C29.2,305.6,29.6,306,30.4,306.5z"/>
		<path d="M129.1,268.6c-0.6,0.5-1,0.9-1.4,1c-0.6,0.2-1.1-0.4-1.1-1s0.6-1.2,1.2-1C128.1,267.7,128.5,268.1,129.1,268.6z"/>
		<path d="M43.5,284.7c-0.2-0.2-0.6-0.6-0.7-1c-0.1-0.6,0.5-1.2,1-1.1c0.4,0.1,0.9,0.6,1,1C45.1,284.1,44.5,284.7,43.5,284.7z"/>
		<path d="M30.4,367.3c-0.8,0.5-1.1,1-1.6,1.1c-0.6,0.1-1-0.4-1-1s0.3-1.1,0.9-1.1C29.1,366.4,29.6,366.8,30.4,367.3z"/>
		<path d="M129.1,405.4c-0.7,0.5-1.1,1-1.5,1c-0.3,0-0.8-0.5-0.9-0.8c-0.2-0.6,0.3-1.1,0.9-1.1C128,404.5,128.4,404.9,129.1,405.4z"
			/>
		<path d="M167.1,367.5c-0.7,0.4-1.2,0.9-1.5,0.9s-0.8-0.6-0.9-0.9c-0.1-0.6,0.3-1.1,1-1C166.1,366.5,166.4,367,167.1,367.5z"/>
		<path d="M68.2,405.3c-0.6,0.5-0.9,1-1.3,1.1c-0.6,0.2-1-0.2-1.1-0.8c-0.1-0.6,0.4-1.3,1-1.2C67.2,404.5,67.6,404.9,68.2,405.3z"/>
		<path d="M165.8,305.2c0.4,0.7,0.8,1.1,0.9,1.5c0.1,0.6-0.4,0.9-1.1,0.9c-0.6,0-1-0.5-0.9-1.1C164.8,306.1,165.2,305.8,165.8,305.2
			z"/>
		<path d="M151.9,283.6c-0.7,0.5-1,0.9-1.4,1c-0.6,0.1-1-0.3-1.1-0.9c0-0.6,0.4-1.1,0.9-1C150.8,282.7,151.2,283.1,151.9,283.6z"/>
		<path d="M104.9,259.4c0.5,0.7,0.9,1.1,1,1.5c0.1,0.6-0.4,1.1-1,0.9c-0.4-0.1-0.8-0.6-0.8-0.9C103.9,260.5,104.4,260.1,104.9,259.4
			z"/>
		<path d="M98.6,260.8c-0.6,0.5-1,0.9-1.4,1c-0.5,0.2-1.2-0.5-1.1-1.1s0.5-1,1.1-0.9C97.6,259.9,97.9,260.4,98.6,260.8z"/>
		<path d="M50.1,276c0.7-0.4,1.1-0.9,1.5-0.9c0.6-0.1,1,0.4,0.9,1c0,0.6-0.5,1-1.1,0.9C51.1,277,50.8,276.5,50.1,276z"/>
		<path d="M89.6,262.3c-0.5-0.7-0.9-1.1-1-1.5c-0.1-0.6,0.4-1.1,1-0.9c0.4,0.1,0.8,0.6,0.8,0.9C90.5,261.2,90.1,261.6,89.6,262.3z"
			/>
		<path d="M21,327.9c0.5,0.7,1,1.1,1,1.5c0,0.3-0.5,0.9-0.8,1c-0.6,0.2-1.1-0.3-1.1-0.9C20.2,329,20.6,328.6,21,327.9z"/>
		<path d="M37.8,291.3c-0.6,0.5-0.9,1-1.3,1.1c-0.6,0.1-1-0.3-1.1-0.9s0.4-1.3,1-1.1C36.8,290.4,37.1,290.8,37.8,291.3z"/>
		<path d="M22.5,337c-0.6,0.5-1,0.8-1.4,1c-0.5,0.1-1.2-0.6-1-1.1c0.2-0.4,0.7-0.8,1.1-0.9C21.5,335.9,21.9,336.5,22.5,337z"/>
		<path d="M43.8,388.7c0.5,0.6,1,1,1.1,1.4c0.1,0.6-0.3,1-0.9,1c-0.6,0-1.1-0.3-1-0.9C43,389.8,43.4,389.4,43.8,388.7z"/>
		<path d="M83.5,260.9c-0.8,0.4-1.2,0.8-1.6,0.8c-0.3,0-0.8-0.6-0.7-0.9c0-0.3,0.6-0.9,0.8-0.9C82.4,260,82.8,260.4,83.5,260.9z"/>
		<path d="M159.6,291.3c-0.7,0.5-1.1,0.9-1.5,1c-0.3,0-0.8-0.6-0.8-0.9s0.5-0.9,0.8-0.9C158.4,290.4,158.8,290.8,159.6,291.3z"/>
		<path d="M53,397.9c-0.7,0.5-1.1,0.9-1.5,0.9c-0.3,0-0.8-0.6-0.8-0.9s0.5-0.9,0.8-0.9C51.9,397,52.3,397.4,53,397.9z"/>
		<path d="M21.2,323.2c-0.5-0.6-0.9-0.9-1-1.3c-0.1-0.6,0.3-1.1,0.9-1c0.4,0,0.9,0.5,0.9,0.8C22,322.1,21.6,322.5,21.2,323.2z"/>
		<path d="M142.8,277.5c-0.4-0.7-0.8-1.1-0.8-1.5c0-0.6,0.5-1,1.1-0.8c0.3,0.1,0.8,0.6,0.8,0.9C143.8,276.5,143.3,276.9,142.8,277.5
			z"/>
		<path d="M22.6,344.5c-0.7,0.5-1,1-1.4,1c-0.6,0.1-1.1-0.4-1-0.9c0-0.3,0.5-0.9,0.8-0.9C21.4,343.7,21.8,344.1,22.6,344.5z"/>
		<path d="M36.5,384.1c-0.5-0.7-1-1-1.1-1.4c-0.1-0.6,0.3-1.1,1-1c0.4,0.1,0.9,0.5,0.9,0.8C37.3,382.9,36.9,383.3,36.5,384.1z"/>
		<path d="M151.8,390.1c-0.6,0.5-1,0.9-1.4,1c-0.3,0-0.8-0.5-0.9-0.8c-0.2-0.6,0.3-1,0.9-1C150.8,389.3,151.1,389.7,151.8,390.1z"/>
		<path d="M173.4,345.9c-0.4-0.6-0.9-1-0.9-1.3s0.5-0.8,0.9-0.9c0.5-0.1,0.9,0.3,0.9,0.9C174.2,345,173.8,345.3,173.4,345.9z"/>
		<path d="M158.2,384c-0.5-0.6-0.8-0.9-0.9-1.3c-0.1-0.5,0.3-1,0.8-0.9c0.4,0.1,0.9,0.5,0.9,0.8S158.6,383.3,158.2,384z"/>
		<path d="M173.4,335.6c0.4,0.6,0.7,0.9,0.8,1.3c0.1,0.5-0.3,0.9-0.8,0.9c-0.6,0-1.1-0.3-0.9-1C172.5,336.5,173,336.2,173.4,335.6z"
			/>
		<path d="M143,396.6c0.3,0.6,0.7,1,0.7,1.3c-0.1,0.3-0.5,0.7-0.9,0.8c-0.5,0.1-1.1-0.6-0.9-1C142.1,397.4,142.5,397.1,143,396.6z"
			/>
		<path d="M21,353.5c-0.4-0.7-0.7-1.1-0.7-1.4c0-0.6,0.4-0.9,0.9-0.7c0.3,0.1,0.8,0.6,0.8,1C22,352.6,21.5,352.9,21,353.5z"/>
		<path d="M28.8,297.6c0.4,0.6,0.7,0.9,0.8,1.3c0.1,0.5-0.3,0.9-0.8,0.9c-0.6,0-1.1-0.3-1-1C28,298.4,28.4,298.1,28.8,297.6z"/>
		<path d="M104.9,411.8c0.4,0.6,0.9,1,0.8,1.3c0,0.3-0.6,0.6-0.9,0.9c-0.3-0.3-0.8-0.6-0.8-0.9C103.9,412.8,104.4,412.4,104.9,411.8
			z"/>
		<path d="M98.5,413.1c-0.6,0.5-1,0.9-1.3,0.9s-0.8-0.5-0.9-0.8c-0.1-0.5,0.3-1,0.8-0.9C97.5,412.3,97.8,412.7,98.5,413.1z"/>
		<path d="M113.7,260.8c-0.6,0.4-0.9,0.9-1.2,0.9c-0.3,0-0.9-0.4-1-0.7c-0.2-0.6,0.3-1,0.9-1C112.7,260,113.1,260.4,113.7,260.8z"/>
		<path d="M173.5,330.7c-0.5-0.6-0.9-0.8-1-1.2c-0.1-0.6,0.3-1.1,0.9-1c0.3,0,0.8,0.5,0.8,0.9C174.3,329.7,173.8,330,173.5,330.7z"
			/>
		<path d="M60.5,268.7c-0.7,0.4-1,0.7-1.4,0.8c-0.6,0.1-0.8-0.4-0.8-0.9c0-0.6,0.4-0.9,1-0.8C59.6,267.8,59.9,268.2,60.5,268.7z"/>
		<path d="M89.6,414.5c-0.4-0.6-0.8-1-0.9-1.3c-0.1-0.5,0.3-1,0.9-0.9c0.4,0.1,0.8,0.5,0.9,0.9C90.5,413.4,90.1,413.8,89.6,414.5z"
			/>
		<path d="M135.2,269.9c-0.4-0.7-0.7-1.1-0.7-1.5c0-0.5,0.5-0.9,1-0.7c0.3,0.1,0.7,0.6,0.7,0.8C136.1,268.9,135.7,269.3,135.2,269.9
			z"/>
		<path d="M82.1,414.5c-0.4-0.7-0.8-1-0.8-1.4c0-0.3,0.4-0.7,0.7-0.8c0.5-0.2,1,0.2,0.9,0.8C82.9,413.4,82.5,413.8,82.1,414.5z"/>
		<path d="M28.8,376.4c-0.4-0.7-0.9-1.1-0.9-1.4s0.6-0.7,0.9-0.8c0.2,0,0.7,0.5,0.7,0.8C29.6,375.4,29.2,375.8,28.8,376.4z"/>
		<path d="M113.6,413.1c-0.5,0.4-0.9,0.8-1.2,0.9c-0.3,0-0.8-0.5-0.8-0.7c0.1-0.4,0.5-0.8,0.8-0.9
			C112.6,412.3,113,412.7,113.6,413.1z"/>
		<path d="M173.3,320.5c0.4,0.6,0.8,1,0.8,1.3s-0.4,0.7-0.7,0.8c-0.5,0.1-1-0.2-1-0.7C172.5,321.5,172.9,321.2,173.3,320.5z"/>
		<path d="M174.5,352.2c-0.5,0.3-0.9,0.8-1.1,0.7c-0.4-0.1-0.8-0.6-0.8-0.9c0-0.5,0.4-0.9,1-0.7
			C173.8,351.4,174.1,351.8,174.5,352.2z"/>
		<path d="M21.1,315.3c-0.4-0.6-0.7-0.9-0.8-1.2c-0.1-0.5,0.3-0.9,0.9-0.8c0.3,0.1,0.8,0.5,0.7,0.8
			C21.9,314.5,21.5,314.8,21.1,315.3z"/>
		<path d="M74.2,259.7c0.5,0.5,0.8,0.7,0.9,1c0.2,0.5-0.2,1-0.7,0.9c-0.3,0-0.8-0.4-0.8-0.6C73.6,260.7,73.9,260.3,74.2,259.7z"/>
		<path d="M59.1,404.2c0.4,0.6,0.8,0.9,0.8,1.2c0,0.2-0.4,0.7-0.7,0.7c-0.5,0.1-0.9-0.2-0.9-0.8C58.4,405.1,58.7,404.8,59.1,404.2z"
			/>
		<path d="M121.3,260.7c-0.5,0.5-0.8,0.8-1.1,0.9c-0.5,0.2-1-0.1-0.9-0.7c0-0.3,0.4-0.8,0.6-0.8
			C120.3,260.1,120.7,260.4,121.3,260.7z"/>
		<path d="M167,298.9c-0.7,0.4-1.1,0.7-1.4,0.7c-0.3,0-0.7-0.5-0.7-0.8s0.5-0.7,0.7-0.7C165.9,298.1,166.3,298.5,167,298.9z"/>
		<path d="M22.4,360c-0.8,0.3-1.1,0.7-1.5,0.6c-0.2,0-0.6-0.6-0.6-0.8c0-0.3,0.5-0.7,0.8-0.7C21.4,359.1,21.8,359.5,22.4,360z"/>
		<path d="M165.7,374c0.3,0.5,0.7,0.9,0.7,1.1c0,0.3-0.5,0.5-0.8,0.8c-0.3-0.3-0.7-0.6-0.7-0.8C164.9,374.8,165.3,374.5,165.7,374z"
			/>
		<path d="M36.3,282.5c0.4,0.5,0.8,0.8,0.7,1.1c0,0.3-0.5,0.6-0.7,0.8c-0.3-0.3-0.7-0.5-0.8-0.8C35.6,283.3,36,283,36.3,282.5z"/>
		<path d="M43.8,275c0.4,0.5,0.8,0.8,0.8,1.1c0,0.3-0.5,0.6-0.7,0.8c-0.3-0.3-0.7-0.5-0.8-0.8C43.1,275.8,43.5,275.5,43.8,275z"/>
		<path d="M136.5,405.4c-0.5,0.4-0.8,0.8-1.1,0.8s-0.5-0.4-0.8-0.7c0.3-0.3,0.5-0.7,0.8-0.7C135.6,404.7,135.9,405,136.5,405.4z"/>
		<path d="M74.4,412.1c0.3,0.5,0.6,0.8,0.6,1.1c0,0.2-0.4,0.4-0.7,0.6c-0.2-0.3-0.6-0.5-0.7-0.8C73.7,412.8,74.1,412.5,74.4,412.1z"
			/>
		<path d="M121.3,413.4c-0.5,0.2-0.8,0.5-1.1,0.5c-0.3-0.1-0.6-0.4-0.9-0.7c0.3-0.3,0.5-0.6,0.8-0.7
			C120.3,412.4,120.7,412.8,121.3,413.4z"/>
		<path d="M173.5,315.1c-0.4-0.4-0.8-0.7-0.8-0.9c0.1-0.3,0.4-0.6,0.6-0.9c0.3,0.2,0.7,0.4,0.7,0.6
			C174.1,314.3,173.8,314.6,173.5,315.1z"/>
		<path d="M150.4,277c-0.3-0.4-0.7-0.6-0.7-0.8c0-0.3,0.4-0.5,0.5-0.8c0.3,0.2,0.6,0.5,0.8,0.8C151.2,276.3,150.7,276.6,150.4,277z"
			/>
		<path d="M36.4,391.1c-0.3-0.4-0.7-0.6-0.7-0.8c0-0.3,0.3-0.5,0.5-0.8c0.3,0.2,0.7,0.4,0.8,0.7C37.1,390.3,36.7,390.7,36.4,391.1z"
			/>
		<path d="M67.7,260.9c-0.4,0.3-0.7,0.7-0.9,0.6c-0.3-0.1-0.5-0.5-0.7-0.8c0.3-0.2,0.5-0.5,0.8-0.5
			C67.2,260.2,67.4,260.6,67.7,260.9z"/>
		<path d="M159,283.7c-0.4,0.3-0.7,0.6-0.9,0.6c-0.3,0-0.4-0.4-0.7-0.7c0.2-0.2,0.5-0.6,0.7-0.6C158.4,283,158.6,283.4,159,283.7z"
			/>
		<path d="M22,306.6c-0.4,0.3-0.7,0.6-0.9,0.6c-0.3,0-0.4-0.4-0.7-0.7c0.2-0.2,0.5-0.6,0.7-0.6C21.4,305.9,21.6,306.3,22,306.6z"/>
		<path d="M128.5,260.8c-0.4,0.3-0.7,0.7-0.8,0.7c-0.3-0.1-0.5-0.5-0.8-0.7c0.2-0.2,0.5-0.5,0.7-0.6
			C127.9,260.2,128.1,260.6,128.5,260.8z"/>
		<path d="M174.5,360c-0.6,0.3-1,0.6-1.3,0.6c-0.2,0-0.5-0.5-0.5-0.7s0.4-0.6,0.7-0.6C173.7,359.2,173.9,359.6,174.5,360z"/>
		<path d="M21.2,368.3c-0.3-0.3-0.8-0.6-0.8-0.8c0.1-0.3,0.4-0.5,0.7-0.8c0.2,0.2,0.6,0.4,0.6,0.6C21.8,367.6,21.4,367.9,21.2,368.3
			z"/>
		<path d="M45.1,398c-0.5,0.3-0.8,0.5-1.1,0.5s-0.5-0.3-0.8-0.5c0.2-0.3,0.4-0.7,0.7-0.8C44,397.2,44.4,397.5,45.1,398z"/>
		<path d="M29.7,291.2c-0.3,0.3-0.5,0.7-0.8,0.7c-0.2,0-0.5-0.3-0.8-0.5c0.2-0.3,0.4-0.7,0.6-0.8C29,290.6,29.3,291,29.7,291.2z"/>
		<path d="M51.7,269.5c-0.3-0.4-0.7-0.6-0.7-0.8c0-0.2,0.4-0.5,0.6-0.7c0.2,0.2,0.6,0.4,0.7,0.6C52.2,268.7,51.9,269,51.7,269.5z"/>
		<path d="M150.4,398.8c-0.3-0.4-0.6-0.7-0.6-0.9c0-0.2,0.4-0.6,0.5-0.6c0.3,0.1,0.7,0.3,0.7,0.6
			C151.1,398.1,150.7,398.3,150.4,398.8z"/>
		<path d="M166.5,291.4c-0.4,0.3-0.7,0.6-0.9,0.6c-0.2-0.1-0.5-0.4-0.6-0.7c0-0.1,0.4-0.5,0.6-0.5
			C165.9,290.8,166.1,291.1,166.5,291.4z"/>
		<path d="M52.5,405.4c-0.4,0.3-0.7,0.7-0.9,0.6c-0.2,0-0.5-0.4-0.6-0.7c0-0.1,0.4-0.5,0.5-0.5C51.8,404.8,52,405.1,52.5,405.4z"/>
		<path d="M158.1,391c-0.3-0.4-0.7-0.7-0.6-0.9c0-0.2,0.4-0.5,0.7-0.6c0.1,0,0.5,0.4,0.5,0.5C158.7,390.4,158.4,390.6,158.1,391z"/>
		<path d="M29.7,382.6c-0.4,0.3-0.7,0.6-0.9,0.6c-0.2,0-0.6-0.4-0.5-0.5c0.1-0.3,0.3-0.6,0.5-0.7C29,382,29.3,382.3,29.7,382.6z"/>
		<path d="M174.3,306.5c-0.4,0.3-0.6,0.6-0.9,0.7c-0.2,0-0.6-0.3-0.6-0.4c0.1-0.3,0.3-0.7,0.5-0.7
			C173.5,306,173.8,306.3,174.3,306.5z"/>
		<path d="M143.8,268.6c-0.4,0.3-0.7,0.5-1,0.6c-0.2,0-0.6-0.4-0.5-0.5c0.1-0.3,0.3-0.6,0.6-0.7C143.1,268,143.4,268.3,143.8,268.6z
			"/>
		<path d="M66.9,412.3c0.3,0.4,0.6,0.7,0.6,0.9c-0.1,0.2-0.5,0.5-0.7,0.5c-0.1,0-0.5-0.4-0.5-0.6C66.3,412.9,66.6,412.6,66.9,412.3z
			"/>
		<path d="M13.6,328.6c0.3,0.3,0.6,0.6,0.5,0.7c-0.1,0.3-0.4,0.4-0.6,0.6c-0.2-0.2-0.4-0.4-0.4-0.6C13,329.1,13.3,328.9,13.6,328.6z
			"/>
		<path d="M89.6,252.5c0.2,0.3,0.6,0.6,0.5,0.7c-0.1,0.3-0.4,0.4-0.6,0.6c-0.2-0.2-0.4-0.4-0.4-0.6
			C89.1,253.1,89.4,252.9,89.6,252.5z"/>
		<path d="M97.9,253.3c-0.3,0.3-0.5,0.6-0.7,0.6s-0.4-0.3-0.6-0.4c0.2-0.2,0.3-0.5,0.6-0.7C97.3,252.7,97.6,253,97.9,253.3z"/>
		<path d="M164.9,382.6c0.3-0.2,0.5-0.5,0.7-0.5s0.4,0.3,0.6,0.4c-0.2,0.2-0.4,0.5-0.6,0.6C165.5,383.2,165.2,382.9,164.9,382.6z"/>
		<path d="M105.6,253.3c-0.3,0.3-0.5,0.6-0.7,0.6s-0.4-0.3-0.6-0.4c0.2-0.2,0.3-0.5,0.6-0.7C105,252.7,105.3,253,105.6,253.3z"/>
		<path d="M174.1,367.4c-0.3,0.2-0.6,0.6-0.7,0.5c-0.2-0.2-0.4-0.5-0.6-0.7c0.2-0.1,0.4-0.4,0.7-0.4
			C173.6,366.8,173.8,367.2,174.1,367.4z"/>
		<path d="M12.8,336.9c0.3-0.3,0.5-0.6,0.7-0.6s0.4,0.3,0.7,0.4c-0.2,0.2-0.3,0.5-0.6,0.7C13.5,337.5,13.2,337.2,12.8,336.9z"/>
		<path d="M127.7,412.4c0.2,0.3,0.5,0.5,0.5,0.7s-0.3,0.4-0.5,0.6c-0.2-0.2-0.5-0.4-0.6-0.6C127.1,412.9,127.4,412.7,127.7,412.4z"
			/>
		<path d="M143,406.2c-0.3-0.3-0.7-0.5-0.7-0.6c0.1-0.3,0.3-0.5,0.5-0.7c0.2,0.2,0.5,0.3,0.5,0.6C143.4,405.6,143.2,405.8,143,406.2
			z"/>
		<path d="M13.6,343.9c0.2,0.3,0.5,0.5,0.5,0.7s-0.3,0.4-0.5,0.6c-0.2-0.2-0.5-0.4-0.6-0.6C13,344.4,13.4,344.2,13.6,343.9z"/>
		<path d="M82.1,254c-0.2-0.3-0.5-0.5-0.5-0.7c0-0.1,0.3-0.5,0.4-0.4c0.2,0.1,0.6,0.2,0.6,0.4C82.6,253.4,82.3,253.7,82.1,254z"/>
		<path d="M59.9,261c-0.4,0.2-0.7,0.4-0.9,0.3s-0.3-0.4-0.3-0.6c0-0.1,0.4-0.4,0.5-0.3C59.4,260.4,59.6,260.7,59.9,261z"/>
		<path d="M113.1,253.3c-0.4,0.2-0.5,0.5-0.8,0.5c-0.1,0-0.5-0.3-0.5-0.4c0.1-0.2,0.2-0.5,0.4-0.6
			C112.5,252.8,112.7,253.1,113.1,253.3z"/>
		<path d="M21.9,298.8c-0.4,0.2-0.6,0.5-0.8,0.5c-0.1,0-0.5-0.3-0.4-0.4c0.1-0.2,0.2-0.5,0.4-0.6C21.2,298.4,21.5,298.6,21.9,298.8z
			"/>
		<path d="M14.3,321.9c-0.4,0.2-0.7,0.5-0.8,0.4c-0.2,0-0.4-0.4-0.4-0.6c0-0.1,0.3-0.4,0.5-0.4C13.8,321.4,14,321.6,14.3,321.9z"/>
		<path d="M181.6,336.9c-0.4,0.2-0.5,0.5-0.8,0.5c-0.1,0-0.5-0.3-0.5-0.4c0.1-0.2,0.2-0.5,0.4-0.6
			C181,336.4,181.3,336.6,181.6,336.9z"/>
		<path d="M97.2,419.9c0.2,0.4,0.4,0.6,0.4,0.8c0,0.1-0.3,0.3-0.5,0.4c-0.2-0.2-0.4-0.4-0.5-0.6C96.7,420.4,96.9,420.2,97.2,419.9z"
			/>
		<path d="M13.5,351.4c0.3,0.3,0.5,0.5,0.6,0.7c0,0.1-0.3,0.5-0.4,0.4c-0.2-0.1-0.5-0.3-0.6-0.5C13,352,13.3,351.8,13.5,351.4z"/>
		<path d="M104.8,420c0.2,0.3,0.5,0.4,0.5,0.6s-0.2,0.3-0.3,0.5c-0.2-0.1-0.4-0.2-0.5-0.4C104.4,420.6,104.6,420.3,104.8,420z"/>
		<path d="M44.5,268.6c-0.3,0.2-0.5,0.5-0.6,0.4c-0.2,0-0.3-0.3-0.5-0.4c0.2-0.2,0.3-0.4,0.5-0.4C44,268.1,44.2,268.4,44.5,268.6z"
			/>
		<path d="M181.5,321.8c-0.3,0.2-0.5,0.4-0.6,0.4c-0.2,0-0.3-0.3-0.5-0.4c0.2-0.1,0.3-0.4,0.5-0.4
			C181.1,321.4,181.2,321.6,181.5,321.8z"/>
		<path d="M90.2,420.6c-0.3,0.2-0.4,0.5-0.6,0.5s-0.4-0.2-0.5-0.4c0-0.2,0.2-0.4,0.4-0.5C89.7,420.2,89.9,420.4,90.2,420.6z"/>
		<path d="M82.7,420.6c-0.3,0.2-0.4,0.5-0.6,0.5s-0.4-0.2-0.5-0.4c0-0.2,0.2-0.4,0.4-0.5C82.2,420.2,82.4,420.4,82.7,420.6z"/>
		<path d="M75,253.4c-0.4,0.2-0.6,0.3-0.7,0.3c-0.2,0-0.3-0.3-0.4-0.4c0.2-0.1,0.3-0.3,0.5-0.3C74.6,252.9,74.7,253.2,75,253.4z"/>
		<path d="M181.5,329.4c-0.3,0.2-0.5,0.4-0.6,0.4c-0.2,0-0.3-0.3-0.5-0.4c0.2-0.1,0.3-0.4,0.5-0.4
			C181.1,328.9,181.2,329.2,181.5,329.4z"/>
		<path d="M21.7,375.1c-0.3,0.2-0.5,0.4-0.6,0.4c-0.2,0-0.4-0.3-0.4-0.4c0-0.2,0.3-0.4,0.4-0.4C21.3,374.7,21.5,374.9,21.7,375.1z"
			/>
		<path d="M174,298.8c-0.3,0.3-0.5,0.5-0.6,0.5c-0.2,0-0.3-0.2-0.5-0.3c0.1-0.2,0.2-0.4,0.4-0.4C173.5,298.4,173.7,298.6,174,298.8z
			"/>
		<path d="M135.1,261.5c-0.1-0.2-0.2-0.4-0.2-0.6s0.2-0.4,0.4-0.4c0.1,0,0.4,0.2,0.5,0.3c0,0.1-0.1,0.3-0.2,0.5
			C135.4,261.4,135.3,261.5,135.1,261.5z"/>
		<path d="M59.2,413.8c-0.2-0.3-0.5-0.4-0.5-0.6s0.2-0.3,0.3-0.5c0.2,0.1,0.4,0.2,0.5,0.4C59.6,413.2,59.4,413.4,59.2,413.8z"/>
		<path d="M14.2,314.2c-0.3,0.2-0.5,0.4-0.7,0.3c-0.2,0-0.4-0.3-0.4-0.5c0-0.1,0.3-0.4,0.5-0.4C13.8,313.7,13.9,314,14.2,314.2z"/>
		<path d="M181,343.9c0.2,0.3,0.3,0.6,0.3,0.7c0,0.2-0.3,0.3-0.5,0.4c-0.1-0.2-0.4-0.3-0.4-0.5C180.5,344.4,180.7,344.2,181,343.9z"
			/>
		<path d="M29.8,283.7c-0.5,0.2-0.7,0.4-0.9,0.3c-0.2,0-0.3-0.2-0.5-0.4c0.1-0.2,0.2-0.4,0.4-0.5C28.9,283.2,29.1,283.4,29.8,283.7z
			"/>
		<path d="M37,276.1c-0.3,0.2-0.5,0.5-0.6,0.4c-0.2,0-0.3-0.3-0.5-0.4c0.2-0.2,0.3-0.4,0.5-0.4C36.5,275.6,36.7,275.9,37,276.1z"/>
		<path fill="#FFFFFF" d="M90.3,341c1.1-0.9,2.1-1.7,3.1-2.5c0.7,0.7,1.6,1.5,2.4,2.3c-0.8,0.8-1.6,1.7-2.6,2.8
			C92.7,342.3,91.7,341.3,90.3,341z"/>
		<path fill="#FFFFFF" d="M95.2,332.7c-0.8,0.8-1.6,1.6-2.4,2.3c0.2,0.1,0.4,0.3,0.5,0.4c-0.9-0.8-1.7-1.6-2.5-2.3
			c0.8-0.8,1.7-1.7,2.5-2.5c0.7,0.8,1.5,1.7,2.3,2.6C95.5,333,95.4,332.8,95.2,332.7z"/>
	</g>
	<g>
		<path fill="#FF4040" stroke="#000000" stroke-width="5" stroke-miterlimit="10" d="M176.7,332.7c-63.7,14.2-66.9,20.5-25.4,72.5
			c-51.6-42.8-58.6-40-65.1,11.9c-8.9-51.9-15.9-54.7-50.9-34.8c24.8-29,21.7-35.4-8.5-44.9c30.1-4.4,33.3-10.7,12.5-42.8
			c30.9,22.9,37.9,20.1,46.6-27c6.7,47.1,13.7,49.9,56,5.4C109.8,326.6,112.9,332.9,176.7,332.7z"/>
		<path fill="#FF4040" stroke="#000000" stroke-width="5" stroke-miterlimit="10" d="M176.7,332.9c-4.7,1.2-9.5,2.3-14.2,3.6
			c-4.7,1.2-9.4,2.5-14,4c-2.3,0.7-4.6,1.5-6.9,2.4c-2.3,0.9-4.5,1.8-6.6,2.9s-4.1,2.4-5.9,4c-1.7,1.6-3.1,3.4-3.8,5.6
			c-0.7,2.1-0.7,4.5-0.2,6.8c0.4,2.3,1.3,4.5,2.3,6.7s2.2,4.3,3.4,6.3c1.2,2.1,2.6,4.1,3.9,6.1c2.7,4,5.6,7.9,8.6,11.8s6,7.7,9,11.5
			l7.5,9.4l-9.3-7.6c-6.8-5.6-13.6-11.1-20.6-16.2c-3.5-2.6-7.1-5.1-10.8-7.4c-1.8-1.1-3.7-2.2-5.6-3.1s-3.9-1.7-5.9-2.2
			s-4-0.7-5.9-0.2c-1.9,0.4-3.5,1.6-4.8,3.1s-2.3,3.4-3.1,5.3c-0.8,2-1.5,4-2.1,6.1c-1.2,4.2-2,8.4-2.7,12.7
			c-0.7,4.3-1.4,8.6-1.9,13l-0.8,5.7l-0.9-5.6l-0.9-5.3c-0.3-1.8-0.6-3.5-0.9-5.3s-0.7-3.5-1-5.3s-0.8-3.5-1.1-5.2
			c-0.4-1.7-0.8-3.5-1.3-5.2c-0.2-0.9-0.5-1.7-0.8-2.6l-0.4-1.3l-0.4-1.3l-0.4-1.3l-0.5-1.2l-0.5-1.2l-0.6-1.2
			c-0.7-1.6-1.7-3.1-2.7-4.5c-1.1-1.4-2.3-2.6-3.8-3.5c-1.4-0.9-3.1-1.4-4.8-1.6c-1.7-0.2-3.5,0-5.2,0.3s-3.4,0.9-5.1,1.4
			c-0.8,0.3-1.7,0.6-2.5,1l-2.4,1.1l-2.4,1.1l-2.4,1.2c-3.2,1.6-6.3,3.4-9.4,5.1l-2.5,1.4L35,382c1.7-2.1,3.5-4.1,5.2-6.3
			c0.8-1.1,1.7-2.1,2.5-3.2s1.6-2.2,2.4-3.3c0.8-1.1,1.5-2.2,2.2-3.4l1-1.7l0.9-1.8c0.3-0.6,0.6-1.2,0.8-1.8
			c0.2-0.6,0.5-1.2,0.7-1.9c0.4-1.2,0.6-2.5,0.7-3.8c0-1.3-0.2-2.5-0.7-3.7c-0.2-0.6-0.6-1.1-0.9-1.6c-0.4-0.5-0.8-1-1.3-1.4
			c-0.4-0.5-1-0.9-1.5-1.3s-1.1-0.8-1.6-1.1c-1.1-0.7-2.3-1.3-3.5-1.9s-2.4-1.1-3.7-1.6c-1.2-0.5-2.5-1-3.8-1.4
			c-2.5-0.9-5.1-1.7-7.7-2.5l-3.8-1.2l3.9-0.6c2.6-0.4,5.2-0.9,7.8-1.4c1.3-0.3,2.6-0.6,3.8-0.9c1.3-0.3,2.5-0.7,3.7-1.1
			c0.6-0.2,1.2-0.5,1.8-0.7c0.6-0.3,1.2-0.5,1.7-0.8c1.1-0.6,2.2-1.3,3.1-2c0.9-0.8,1.6-1.8,2-2.8c0.5-1,0.6-2.2,0.6-3.4
			c0-1.2-0.2-2.4-0.5-3.7c-0.3-1.2-0.7-2.4-1.2-3.7c-0.5-1.2-1-2.4-1.6-3.6l-0.9-1.8l-0.9-1.7c-0.6-1.2-1.3-2.3-1.9-3.4
			c-0.7-1.1-1.3-2.3-2-3.4c-1.4-2.3-2.8-4.5-4.3-6.7l-3.9-6.1l5.9,4.3c1.3,1,2.6,1.9,4,2.9c1.3,1,2.7,1.9,4,2.8
			c1.4,0.9,2.7,1.8,4.1,2.6c1.4,0.8,2.8,1.6,4.2,2.4c1.4,0.7,2.9,1.4,4.3,1.9c1.5,0.5,3,0.9,4.4,1c1.5,0.1,2.9-0.1,4.2-0.6
			c0.3-0.2,0.6-0.3,0.9-0.5l0.9-0.6c0.5-0.5,1.1-0.9,1.6-1.5c0.5-0.5,0.9-1.2,1.4-1.8c0.4-0.7,0.8-1.3,1.2-2c0.4-0.7,0.7-1.4,1-2.1
			s0.6-1.4,0.9-2.2c0.6-1.5,1.1-3,1.6-4.6l0.7-2.3l0.6-2.4c0.4-1.6,0.8-3.2,1.2-4.8c0.4-1.6,0.7-3.2,1.1-4.8
			c0.7-3.2,1.3-6.4,1.9-9.7l1.8-9.4l1.4,9.5c0.6,3.9,1.2,7.8,1.9,11.7c0.7,3.9,1.5,7.7,2.6,11.4c0.5,1.9,1.1,3.7,1.9,5.4
			c0.7,1.7,1.6,3.4,2.7,4.7c1.1,1.3,2.5,2.2,4.1,2.5s3.3-0.1,5-0.7s3.4-1.6,5-2.6s3.2-2.2,4.7-3.4c3.1-2.4,6-5,8.9-7.6
			c5.8-5.3,11.3-11,16.8-16.7l8.1-8.4l-6,9.9c-2.4,3.9-4.8,7.9-7.1,11.9s-4.5,8-6.6,12.1c-2.1,4.1-4,8.3-5.3,12.6
			c-0.7,2.2-1.1,4.4-1.2,6.6s0.3,4.4,1.4,6.2c1.1,1.8,2.8,3.2,4.8,4.2c2,1,4.1,1.7,6.3,2.3c4.4,1.1,9,1.7,13.6,2.1s9.2,0.6,13.8,0.8
			c4.6,0.1,9.2,0.2,13.9,0.3h1.2L176.7,332.9z M175.2,332.9c-4.1,0.1-8.3,0.1-12.4,0.1c-4.6,0-9.3-0.1-13.9-0.4
			c-4.6-0.3-9.3-0.7-13.8-1.8c-2.3-0.6-4.6-1.2-6.7-2.3c-2.1-1.1-4.2-2.6-5.5-4.7c-1.4-2.1-1.8-4.7-1.8-7.1c0.1-2.4,0.5-4.8,1.2-7.1
			c1.3-4.5,3.2-8.8,5.2-13s4.3-8.3,6.5-12.3c2.3-4,4.6-8,7-12l2,1.6c-5.4,5.8-10.9,11.5-16.7,17c-2.9,2.7-5.9,5.4-9,7.9
			c-1.6,1.2-3.2,2.4-4.9,3.5c-1.7,1.1-3.5,2.1-5.5,2.9s-4.2,1.3-6.6,0.9c-1.2-0.2-2.3-0.6-3.3-1.2s-1.9-1.4-2.6-2.2
			c-1.5-1.7-2.4-3.6-3.3-5.5c-0.8-1.9-1.5-3.8-2-5.8c-1.1-3.9-1.9-7.8-2.6-11.7c-0.7-3.9-1.3-7.9-1.9-11.8l3.1,0.1
			c-1.2,6.5-2.5,13-4.2,19.4l-0.7,2.4l-0.7,2.4c-0.5,1.6-1,3.2-1.7,4.8c-0.3,0.8-0.6,1.6-1,2.3c-0.3,0.8-0.8,1.5-1.1,2.3
			c-0.4,0.8-0.9,1.5-1.3,2.2c-0.5,0.7-1,1.5-1.7,2.1c-0.6,0.7-1.3,1.3-2,1.9l-1.2,0.8c-0.4,0.3-0.9,0.4-1.3,0.6
			c-1.8,0.7-3.7,1-5.5,0.8c-1.8-0.1-3.5-0.6-5.2-1.2c-1.6-0.6-3.2-1.3-4.7-2.1c-1.5-0.8-3-1.6-4.4-2.5s-2.8-1.8-4.2-2.7
			c-1.4-0.9-2.7-1.9-4.1-2.9c-1.4-1-2.7-2-4-2.9l1.9-1.8c2.9,4.5,5.7,9.1,8.2,13.9l0.9,1.8l0.9,1.8c0.6,1.2,1.1,2.5,1.6,3.8
			s0.9,2.6,1.2,4s0.5,2.8,0.5,4.2c0,1.4-0.2,3-0.9,4.3c-0.6,1.4-1.6,2.6-2.7,3.6c-1.1,0.9-2.3,1.7-3.6,2.3c-0.6,0.3-1.3,0.6-1.9,0.8
			c-0.6,0.2-1.3,0.5-1.9,0.7c-1.3,0.4-2.6,0.8-3.9,1.1c-1.3,0.3-2.6,0.6-4,0.8c-2.6,0.5-5.3,0.9-7.9,1.3l0.1-1.8
			c2.6,0.9,5.2,1.7,7.7,2.7c1.3,0.5,2.5,1,3.8,1.5s2.5,1.1,3.7,1.7s2.4,1.3,3.6,2.1c0.6,0.4,1.1,0.8,1.7,1.2
			c0.5,0.5,1.1,0.9,1.6,1.4s1,1.1,1.4,1.6c0.4,0.6,0.8,1.2,1.1,1.9c0.6,1.3,0.9,2.8,0.8,4.2c-0.1,1.4-0.3,2.8-0.8,4.2
			c-0.2,0.7-0.5,1.3-0.7,2c-0.3,0.6-0.6,1.3-0.9,1.9l-1,1.8l-1.1,1.8c-0.7,1.1-1.5,2.3-2.3,3.4s-1.6,2.2-2.4,3.3
			c-0.8,1.1-1.7,2.2-2.5,3.2c-1.7,2.1-3.5,4.2-5.2,6.3l-0.6-0.8c3.1-1.8,6.3-3.5,9.5-5.1l2.4-1.2l2.4-1.1l2.5-1.1l2.5-1
			c1.7-0.6,3.4-1.2,5.2-1.5c1.8-0.4,3.6-0.5,5.5-0.4c1.8,0.2,3.7,0.7,5.3,1.7c1.6,1,3,2.3,4.1,3.7c1.1,1.5,2.1,3,2.9,4.7l0.6,1.2
			l0.5,1.3l0.5,1.3l0.5,1.3L80,387l0.4,1.3c0.3,0.9,0.6,1.7,0.8,2.6c0.5,1.7,1,3.5,1.4,5.2s0.9,3.5,1.3,5.2c0.4,1.8,0.8,3.5,1.1,5.3
			c0.4,1.8,0.7,3.5,1.1,5.3l1,5.3h-1.7c0.5-4.4,1-8.7,1.7-13.1s1.4-8.7,2.5-13c0.6-2.2,1.2-4.3,2.1-6.4s1.9-4.2,3.4-6
			c0.8-0.9,1.6-1.8,2.7-2.5c1-0.7,2.2-1.2,3.4-1.5c2.4-0.6,4.9-0.4,7.1,0.2c2.3,0.6,4.4,1.4,6.4,2.4s4,2.1,5.9,3.2
			c3.8,2.3,7.4,4.8,11,7.5c7.1,5.3,13.9,10.9,20.6,16.5l-1.8,1.7c-3-3.8-6-7.7-9-11.6c-2.9-3.9-5.8-7.9-8.6-11.9
			c-2.7-4.1-5.3-8.3-7.3-12.9c-1-2.3-1.8-4.7-2.3-7.2c-0.4-2.5-0.4-5.2,0.4-7.7c0.9-2.5,2.5-4.6,4.4-6.3c1.9-1.7,4.1-3,6.3-4.1
			c4.4-2.2,9.1-3.8,13.8-5.1c4.7-1.4,9.4-2.5,14.2-3.6C166.6,334.7,170.9,333.8,175.2,332.9z"/>
	</g>
	<g>
		<path stroke="#000000" stroke-width="3" stroke-miterlimit="10" d="M50.9,363.8c0-2.5,0-5.2,0-8s0.1-5.7,0.1-8.6
			c0.1-2.9,0.1-5.8,0.2-8.5c0.1-2.8,0.2-5.3,0.3-7.7c0-0.4,0-0.9,0.1-1.6c0-0.7,0.1-1.4,0.1-2.1s0.1-1.3,0.1-1.9s0.1-0.9,0.1-1
			c0.1-0.6,0.6-1.2,1.4-1.8c0.9-0.6,1.9-1.1,3.2-1.6c1.2-0.4,2.6-0.8,4.1-1s2.9-0.2,4.3-0.1c1.4,0.2,2.6,0.6,3.6,1.2
			c1.1,0.7,1.8,1.6,2.2,2.9c0.5,1.4,0.6,2.9,0.3,4.5c-0.3,1.6-0.7,3.1-1.3,4.6c-0.6,1.5-1.3,3-2.2,4.4c-0.8,1.4-1.6,2.7-2.2,3.7
			c-0.2,0.4-0.2,0.8,0.2,1.2c0.4,0.4,0.8,0.8,1.3,1.2c0.5,0.4,1.1,0.9,1.6,1.4s0.9,1,1,1.6c0.4,1.7,0.5,3.4,0.2,5.2
			c-0.3,1.7-0.8,3.4-1.6,5c-0.8,1.6-1.8,3.1-3,4.4c-1.2,1.4-2.6,2.5-4.1,3.5s-3.1,1.7-4.8,2.2s-3.4,0.7-5.1,0.6L50.9,363.8z
			 M58.8,355.8c0.7,0.4,1.4,0.3,2-0.1c0.7-0.5,1.3-1.1,1.8-1.9s0.9-1.7,1.2-2.6c0.2-0.9,0.3-1.7,0.1-2.3c-0.2-0.3-0.5-0.5-0.9-0.6
			s-0.9-0.2-1.4-0.2s-1,0.1-1.4,0.3c-0.5,0.2-0.8,0.5-0.9,0.8c-0.1,0.8-0.2,1.4-0.3,1.9s-0.1,1-0.2,1.6c0,0.5-0.1,1-0.1,1.3
			L58.8,355.8z M59.1,333.2c-0.1,0.2-0.1,0.5-0.1,1s0.1,0.8,0.2,0.9c0.7,0.2,1.3,0.1,1.8-0.2c0.5-0.3,0.9-0.8,1.2-1.3
			s0.6-1.1,0.8-1.8c0.2-0.6,0.4-1.2,0.5-1.7c0-0.1-0.2-0.3-0.5-0.5s-0.4-0.4-0.5-0.4c-0.9-0.1-1.6-0.2-2-0.1s-0.7,0.3-0.9,0.6
			c-0.2,0.3-0.3,0.8-0.3,1.4C59.2,331.7,59.2,332.4,59.1,333.2z"/>
		<path stroke="#000000" stroke-width="3" stroke-miterlimit="10" d="M76,313.5l16.9-4.4l4.1,60.5l-12.1,4l-1-7.9l-3.3,0.1l-3.2,8.1
			l-11,0.1L76,313.5z M84.7,351.2l-1.2-21.6l-2.2,20.1L84.7,351.2z"/>
		<path stroke="#000000" stroke-width="3" stroke-miterlimit="10" d="M93.5,361.3c0-0.3,0.1-0.9,0.2-1.9s0.2-2.1,0.3-3.4
			c0.1-1.3,0.2-2.7,0.4-4.2c0.1-1.5,0.3-2.9,0.4-4.2c0.1-1.3,0.2-2.4,0.3-3.4c0.1-1,0.1-1.6,0.1-2c0-0.6,0-1.5,0-2.7s0-2.6,0-4.1
			s0-3.1,0-4.8c0-1.7,0-3.3,0-4.8s0-2.9,0-4.1s0-2.1,0-2.7c0.4-0.7,1-1.4,1.9-2c0.8-0.6,1.6-1,2.3-1.2c0.1,0,0.3-0.1,0.6-0.1
			c0.3,0,0.6-0.1,0.9-0.1s0.6,0,0.9,0s0.5,0,0.6,0.1c0.1,0,0.3,0.1,0.6,0.2c0.3,0.1,0.5,0.2,0.8,0.4c0.3,0.1,0.5,0.3,0.6,0.4
			c0.2,0.1,0.3,0.2,0.3,0.3l1.4,20.3l2.3-20.6c0-0.1,0.2-0.3,0.5-0.4c0.3-0.2,0.7-0.3,1.2-0.5s0.9-0.4,1.4-0.5s0.8-0.2,1.1-0.2
			c0.1,0,0.3,0,0.6,0.1c0.3,0.1,0.6,0.2,0.9,0.3c0.3,0.1,0.6,0.3,0.9,0.4s0.4,0.3,0.5,0.4c0,0,0.1,0.2,0.1,0.4
			c0,0.2,0.1,0.5,0.1,0.8s0,0.6,0,1c0,0.3,0,0.6,0,0.8c-0.1,1-0.2,2.6-0.3,4.7c-0.2,2.2-0.3,4.6-0.5,7.3c-0.2,2.7-0.4,5.5-0.6,8.5
			s-0.4,5.8-0.6,8.5s-0.4,5.1-0.6,7.3c-0.2,2.1-0.3,3.7-0.3,4.7c-0.1,0.2-0.3,0.5-0.6,0.9c-0.3,0.4-0.6,0.6-0.7,0.7
			c-0.2,0.1-0.5,0.3-1,0.5c-0.4,0.2-0.9,0.4-1.3,0.6s-0.9,0.4-1.2,0.5c-0.4,0.1-0.6,0.2-0.8,0.2c-0.1,0-0.4-0.2-0.8-0.5
			s-0.6-0.6-0.7-0.8c-0.1-0.3-0.4-0.9-0.8-1.7c-0.4-0.8-0.7-1.7-1.1-2.6s-0.7-1.8-1-2.6c-0.3-0.8-0.5-1.4-0.6-1.7
			c-0.5,0.9-0.9,1.7-1.1,2.5s-0.3,1.6-0.4,2.5s-0.2,1.7-0.2,2.6c-0.1,0.9-0.2,1.8-0.5,2.8c-0.1,0.4-0.4,0.8-0.8,1.2
			c-0.4,0.4-1,0.8-1.5,1.1c-0.6,0.3-1.2,0.6-1.8,0.8c-0.6,0.2-1.1,0.3-1.5,0.2c-0.1-0.2-0.1-0.6-0.2-1.1c-0.1-0.6-0.1-1.1-0.2-1.8
			c0-0.6-0.1-1.2-0.1-1.7C93.5,361.9,93.5,361.5,93.5,361.3z"/>
		<path stroke="#000000" stroke-width="3" stroke-miterlimit="10" d="M137.3,365.6c0-0.4,0-0.8,0-1.4c0.1-0.6,0.2-1.2,0.3-1.8
			c0.2-0.6,0.4-1.2,0.7-1.8c0.3-0.6,0.8-1.2,1.3-1.7c0.6-0.5,1.2-0.9,1.9-1.3s1.5-0.6,2.5-0.6c0.7,0,1.2,0.1,1.7,0.3
			c0.5,0.3,0.9,0.6,1.2,1s0.6,0.8,0.7,1.2c0.1,0.4,0.2,0.7,0.2,1s0,0.7-0.2,1.2c-0.1,0.5-0.4,1.1-0.7,1.7s-0.7,1.2-1.1,1.8
			c-0.4,0.6-0.8,1.1-1.4,1.6c-0.5,0.5-1.1,0.9-1.8,1.2c-0.7,0.3-1.3,0.4-2,0.4c-0.8,0-1.4-0.1-1.8-0.3c-0.4-0.2-0.8-0.4-1-0.7
			c-0.3-0.3-0.4-0.6-0.5-1C137.4,366.2,137.3,365.9,137.3,365.6z M136.8,346.9c0-1.5,0.1-3.2,0.1-5.2s0.1-4.1,0.2-6.2
			c0.1-2.2,0.2-4.3,0.4-6.4s0.4-4.1,0.6-5.8c0-0.4,0.1-1.2,0.3-2.4c0.2-1.2,0.3-2.4,0.6-3.7c0.2-1.3,0.4-2.5,0.7-3.7
			c0.2-1.2,0.4-2,0.6-2.5c0.1-0.5,0.2-1,0.3-1.6s0.3-1.2,0.6-1.9c0.3-0.7,0.6-1.2,1.1-1.8c0.5-0.5,1.1-0.9,2-1.2
			c0.2-0.1,0.7-0.1,1.4-0.2s1.4-0.1,2.2-0.2c0.7-0.1,1.5-0.1,2.1-0.1c0.7,0,1.1,0,1.4,0c0.1,0.2,0.1,0.5,0.2,1c0,0.5,0.1,1,0.1,1.5
			s0.1,1,0.1,1.5s0,0.9,0,1.1c0,0.3-0.1,0.9-0.2,1.8c-0.2,0.9-0.4,1.9-0.6,3.2c-0.2,1.2-0.4,2.5-0.7,3.8c-0.2,1.3-0.5,2.6-0.7,3.8
			c-0.2,1.2-0.4,2.3-0.6,3.2c-0.2,0.9-0.3,1.5-0.2,1.8c0,0.3,0,0.9,0,1.9c-0.1,1-0.1,2.2-0.1,3.6s-0.1,2.8-0.1,4.3s0,3-0.1,4.3
			c0,1.4-0.1,2.6-0.1,3.6c-0.1,1-0.1,1.7,0,2c-0.2,1.1-0.4,2.1-0.6,3.1c-0.3,1-0.8,1.8-1.5,2.4s-1.8,1.1-3.1,1.3
			c-1.3,0.2-3.1,0.1-5.4-0.2L136.8,346.9z"/>
		<path stroke="#000000" stroke-width="3" stroke-miterlimit="10" d="M115.5,362.8c-0.5-1.1-0.9-2.5-1.3-4.2s-0.7-3.6-0.9-5.5
			c-0.2-2-0.4-4-0.5-6.2s-0.2-4.2-0.2-6.2s0-3.9,0.1-5.6c0.1-1.8,0.3-3.2,0.5-4.4c0.5-1.6,1.2-3.5,2.2-5.6s2.1-4.1,3.4-6.1
			s2.7-3.7,4.3-5.2c1.6-1.5,3.3-2.5,5-3c0.1-0.1,0.4-0.1,0.7-0.1s0.8,0.1,1.4,0.2c0.6,0.1,1.4,0.4,2.3,0.7c0.9,0.3,2,0.8,3.4,1.5
			l2,3.7c0.3,0.3,0.3,0.8-0.1,1.5c-0.4,0.7-0.8,1.5-1.1,2.4c-0.4,1-0.8,1.9-1.1,2.9c-0.3,0.9-0.7,1.5-1.2,1.6
			c-1.2,0-2.3,0.1-3.3,0.1s-2,0.2-2.8,0.4c-0.9,0.3-1.6,0.7-2.4,1.4c-0.7,0.6-1.4,1.6-2,2.9c-0.4,0.6-0.8,1.5-1.2,2.5
			c-0.4,1.1-0.7,2.2-1,3.4c-0.3,1.2-0.5,2.4-0.7,3.5c-0.2,1.2-0.3,2.1-0.3,2.9c0,0.4,0,1.1,0,2.1s0.1,2.1,0.2,3.2s0.2,2.2,0.3,3.2
			c0.1,1,0.2,1.7,0.3,2.1c0.3,0.4,0.6,0.9,1,1.3s0.8,0.8,1.3,1c0.5,0.3,1,0.4,1.5,0.5c0.5,0,1.1-0.1,1.7-0.4
			c0.1-0.1,0.3-0.2,0.6-0.5c0.3-0.3,0.5-0.6,0.8-0.9s0.5-0.6,0.7-0.9s0.3-0.5,0.3-0.6c0.1-0.2,0.2-0.5,0.3-1s0.2-1.1,0.2-1.7
			c0.1-0.6,0.1-1.2,0.1-1.6c0-0.5,0-0.8-0.1-1c-0.1-0.1-0.3-0.2-0.6-0.2s-0.7,0-1,0c-0.4,0-0.7,0.1-1.1,0.1
			c-0.3,0.1-0.6,0.1-0.7,0.2c-0.1-0.3-0.1-0.8-0.2-1.6c-0.1-0.8-0.1-1.6-0.2-2.4s-0.1-1.7-0.1-2.5s0-1.3,0-1.6c0.3-0.3,1-0.6,2-1.1
			c1-0.4,2.1-0.9,3.4-1.4c1.2-0.5,2.5-0.9,3.6-1.3c1.2-0.4,2.1-0.8,2.7-1.1c0,0.2,0,0.6,0.1,1.1s0.1,1.1,0.1,1.6
			c0,0.6,0.1,1.1,0.1,1.6s0,0.8,0,1c-0.1,0.6-0.2,1.6-0.3,2.9c-0.2,1.4-0.3,2.8-0.5,4.2c-0.2,1.4-0.4,2.8-0.5,4
			c-0.2,1.3-0.3,2.1-0.4,2.5c-0.3,1.3-0.7,2.5-1.1,3.6c-0.4,1.1-0.9,2.1-1.5,3.1s-1.3,1.9-2,2.8c-0.8,0.9-1.6,1.8-2.6,2.8
			c-1.2,1.1-2.4,1.8-3.6,2s-2.5,0.1-3.7-0.3s-2.4-1-3.5-1.9C117.3,364.6,116.3,363.7,115.5,362.8z"/>
	</g>
	<g>
		<path fill="#07BFFF" stroke="#000000" stroke-width="3" stroke-miterlimit="10" d="M47,362.5c0-2.5,0-5.2,0-8s0.1-5.7,0.1-8.6
			c0.1-2.9,0.1-5.8,0.2-8.5c0.1-2.8,0.2-5.3,0.3-7.7c0-0.4,0-0.9,0.1-1.6c0-0.7,0.1-1.4,0.1-2.1s0.1-1.3,0.1-1.9s0.1-0.9,0.1-1
			c0.1-0.6,0.6-1.2,1.4-1.8c0.9-0.6,1.9-1.1,3.2-1.6c1.2-0.4,2.6-0.8,4.1-1s2.9-0.2,4.3-0.1c1.4,0.2,2.6,0.6,3.6,1.2
			c1.1,0.7,1.8,1.6,2.2,2.9c0.5,1.4,0.6,2.9,0.3,4.5c-0.3,1.6-0.7,3.1-1.3,4.6c-0.6,1.5-1.3,3-2.2,4.4c-0.8,1.4-1.6,2.7-2.2,3.7
			c-0.2,0.4-0.2,0.8,0.2,1.2c0.4,0.4,0.8,0.8,1.3,1.2c0.5,0.4,1.1,0.9,1.6,1.4s0.9,1,1,1.6c0.4,1.7,0.5,3.4,0.2,5.2
			c-0.3,1.7-0.8,3.4-1.6,5c-0.8,1.6-1.8,3.1-3,4.4c-1.2,1.4-2.6,2.5-4.1,3.5s-3.1,1.7-4.8,2.2s-3.4,0.7-5.1,0.6L47,362.5z
			 M54.9,354.5c0.7,0.4,1.4,0.3,2-0.1c0.7-0.5,1.3-1.1,1.8-1.9s0.9-1.7,1.2-2.6c0.2-0.9,0.3-1.7,0.1-2.3c-0.2-0.3-0.5-0.5-0.9-0.6
			s-0.9-0.2-1.4-0.2s-1,0.1-1.4,0.3c-0.5,0.2-0.8,0.5-0.9,0.8c-0.1,0.8-0.2,1.4-0.3,1.9s-0.1,1-0.2,1.6c0,0.5-0.1,1-0.1,1.3
			L54.9,354.5z M55.2,331.9c-0.1,0.2-0.1,0.5-0.1,1s0.1,0.8,0.2,0.9c0.7,0.2,1.3,0.1,1.8-0.2c0.5-0.3,0.9-0.8,1.2-1.3
			s0.6-1.1,0.8-1.8c0.2-0.6,0.4-1.2,0.5-1.7c0-0.1-0.2-0.3-0.5-0.5s-0.4-0.4-0.5-0.4c-0.9-0.1-1.6-0.2-2-0.1s-0.7,0.3-0.9,0.6
			c-0.2,0.3-0.3,0.8-0.3,1.4C55.3,330.3,55.3,331.1,55.2,331.9z"/>
		<path fill="#07BFFF" stroke="#000000" stroke-width="3" stroke-miterlimit="10" d="M72.1,312.2l16.9-4.4l4.1,60.5l-12.1,4l-1-7.9
			l-3.3,0.1l-3.2,8.1l-11.1,0.1L72.1,312.2z M80.8,349.9l-1.2-21.6l-2.2,20.1L80.8,349.9z"/>
		<path fill="#07BFFF" stroke="#000000" stroke-width="3" stroke-miterlimit="10" d="M89.6,359.9c0-0.3,0.1-0.9,0.2-1.9
			s0.2-2.1,0.3-3.4c0.1-1.3,0.2-2.7,0.4-4.2c0.1-1.5,0.3-2.9,0.4-4.2c0.1-1.3,0.2-2.4,0.3-3.4c0.1-1,0.1-1.6,0.1-2
			c0-0.6,0-1.5,0-2.7s0-2.6,0-4.1s0-3.1,0-4.8c0-1.7,0-3.3,0-4.8s0-2.9,0-4.1s0-2.1,0-2.7c0.4-0.7,1-1.4,1.9-2
			c0.8-0.6,1.6-1,2.3-1.2c0.1,0,0.3-0.1,0.6-0.1c0.3,0,0.6-0.1,0.9-0.1s0.6,0,0.9,0s0.5,0,0.6,0.1c0.1,0,0.3,0.1,0.6,0.2
			c0.3,0.1,0.5,0.2,0.8,0.4c0.3,0.1,0.5,0.3,0.6,0.4c0.2,0.1,0.3,0.2,0.3,0.3l1.4,20.3l2.3-20.6c0-0.1,0.2-0.3,0.5-0.4
			c0.3-0.2,0.7-0.3,1.2-0.5s0.9-0.4,1.4-0.5s0.8-0.2,1.1-0.2c0.1,0,0.3,0,0.6,0.1c0.3,0.1,0.6,0.2,0.9,0.3c0.3,0.1,0.6,0.3,0.9,0.4
			s0.4,0.3,0.5,0.4c0,0,0.1,0.2,0.1,0.4c0,0.2,0.1,0.5,0.1,0.8s0,0.6,0,1c0,0.3,0,0.6,0,0.8c-0.1,1-0.2,2.6-0.3,4.7
			c-0.2,2.2-0.3,4.6-0.5,7.3c-0.2,2.7-0.4,5.5-0.6,8.5s-0.4,5.8-0.6,8.5s-0.4,5.1-0.6,7.3c-0.2,2.1-0.3,3.7-0.3,4.7
			c-0.1,0.2-0.3,0.5-0.6,0.9c-0.3,0.4-0.6,0.6-0.7,0.7c-0.2,0.1-0.5,0.3-1,0.5c-0.4,0.2-0.9,0.4-1.3,0.6s-0.9,0.4-1.2,0.5
			c-0.4,0.1-0.6,0.2-0.8,0.2c-0.1,0-0.4-0.2-0.8-0.5s-0.6-0.6-0.7-0.8c-0.1-0.3-0.4-0.9-0.8-1.7c-0.4-0.8-0.7-1.7-1.1-2.6
			s-0.7-1.8-1-2.6c-0.3-0.8-0.5-1.4-0.6-1.7c-0.5,0.9-0.9,1.7-1.1,2.5s-0.3,1.6-0.4,2.5s-0.2,1.7-0.2,2.6c-0.1,0.9-0.2,1.8-0.5,2.8
			c-0.1,0.4-0.4,0.8-0.8,1.2c-0.4,0.4-1,0.8-1.5,1.1c-0.6,0.3-1.2,0.6-1.8,0.8c-0.6,0.2-1.1,0.3-1.5,0.2c-0.1-0.2-0.1-0.6-0.2-1.1
			c-0.1-0.6-0.1-1.1-0.2-1.8c0-0.6-0.1-1.2-0.1-1.7C89.6,360.6,89.6,360.2,89.6,359.9z"/>
		<path fill="#07BFFF" stroke="#000000" stroke-width="3" stroke-miterlimit="10" d="M133.4,364.3c0-0.4,0-0.8,0-1.4
			c0.1-0.6,0.2-1.2,0.3-1.8c0.2-0.6,0.4-1.2,0.7-1.8c0.3-0.6,0.8-1.2,1.3-1.7c0.6-0.5,1.2-0.9,1.9-1.3s1.5-0.6,2.5-0.6
			c0.7,0,1.2,0.1,1.7,0.3c0.5,0.3,0.9,0.6,1.2,1s0.6,0.8,0.7,1.2c0.1,0.4,0.2,0.7,0.2,1s0,0.7-0.2,1.2c-0.1,0.5-0.4,1.1-0.7,1.7
			s-0.7,1.2-1.1,1.8c-0.4,0.6-0.8,1.1-1.4,1.6c-0.5,0.5-1.1,0.9-1.8,1.2c-0.7,0.3-1.3,0.4-2,0.4c-0.8,0-1.4-0.1-1.8-0.3
			c-0.4-0.2-0.8-0.4-1-0.7c-0.3-0.3-0.4-0.6-0.5-1C133.5,364.9,133.5,364.6,133.4,364.3z M132.9,345.6c0-1.5,0.1-3.2,0.1-5.2
			s0.1-4.1,0.2-6.2c0.1-2.2,0.2-4.3,0.4-6.4s0.4-4.1,0.6-5.8c0-0.4,0.1-1.2,0.3-2.4c0.2-1.2,0.3-2.4,0.6-3.7
			c0.2-1.3,0.4-2.5,0.7-3.7c0.2-1.2,0.4-2,0.6-2.5c0.1-0.5,0.2-1,0.3-1.6s0.3-1.2,0.6-1.9c0.3-0.7,0.6-1.2,1.1-1.8
			c0.5-0.5,1.1-0.9,2-1.2c0.2-0.1,0.7-0.1,1.4-0.2s1.4-0.1,2.2-0.2c0.7-0.1,1.5-0.1,2.1-0.1c0.7,0,1.1,0,1.4,0
			c0.1,0.2,0.1,0.5,0.2,1c0,0.5,0.1,1,0.1,1.5s0.1,1,0.1,1.5s0,0.9,0,1.1c0,0.3-0.1,0.9-0.2,1.8c-0.2,0.9-0.4,1.9-0.6,3.2
			c-0.2,1.2-0.4,2.5-0.7,3.8c-0.2,1.3-0.5,2.6-0.7,3.8c-0.2,1.2-0.4,2.3-0.6,3.2c-0.2,0.9-0.3,1.5-0.2,1.8c0,0.3,0,0.9,0,1.9
			c-0.1,1-0.1,2.2-0.1,3.6s-0.1,2.8-0.1,4.3s0,3-0.1,4.3c0,1.4-0.1,2.6-0.1,3.6c-0.1,1-0.1,1.7,0,2c-0.2,1.1-0.4,2.1-0.6,3.1
			c-0.3,1-0.8,1.8-1.5,2.4s-1.8,1.1-3.1,1.3c-1.3,0.2-3.1,0.1-5.4-0.2L132.9,345.6z"/>
		<path fill="#07BFFF" stroke="#000000" stroke-width="3" stroke-miterlimit="10" d="M111.6,361.5c-0.5-1.1-0.9-2.5-1.3-4.2
			s-0.7-3.6-0.9-5.5c-0.2-2-0.4-4-0.5-6.2s-0.2-4.2-0.2-6.2s0-3.9,0.1-5.6c0.1-1.8,0.3-3.2,0.5-4.4c0.5-1.6,1.2-3.5,2.2-5.6
			s2.1-4.1,3.4-6.1s2.7-3.7,4.3-5.2c1.6-1.5,3.3-2.5,5-3c0.1-0.1,0.4-0.1,0.7-0.1c0.3,0,0.8,0.1,1.4,0.2s1.4,0.4,2.3,0.7
			c0.9,0.3,2,0.8,3.4,1.5l2,3.7c0.3,0.3,0.3,0.8-0.1,1.5c-0.4,0.7-0.8,1.5-1.1,2.4c-0.4,1-0.8,1.9-1.1,2.9c-0.3,0.9-0.7,1.5-1.2,1.6
			c-1.2,0-2.3,0.1-3.3,0.1s-2,0.2-2.8,0.4c-0.9,0.3-1.6,0.7-2.4,1.4c-0.7,0.6-1.4,1.6-2,2.9c-0.4,0.6-0.8,1.5-1.2,2.5
			c-0.4,1.1-0.7,2.2-1,3.4c-0.3,1.2-0.5,2.4-0.7,3.5c-0.2,1.2-0.3,2.1-0.3,2.9c0,0.4,0,1.1,0,2.1s0.1,2.1,0.2,3.2s0.2,2.2,0.3,3.2
			c0.1,1,0.2,1.7,0.3,2.1c0.3,0.4,0.6,0.9,1,1.3s0.8,0.8,1.3,1c0.5,0.3,1,0.4,1.5,0.5c0.5,0,1.1-0.1,1.7-0.4
			c0.1-0.1,0.3-0.2,0.6-0.5c0.3-0.3,0.5-0.6,0.8-0.9s0.5-0.6,0.7-0.9s0.3-0.5,0.3-0.6c0.1-0.2,0.2-0.5,0.3-1
			c0.1-0.5,0.2-1.1,0.2-1.7c0.1-0.6,0.1-1.2,0.1-1.6c0-0.5,0-0.8-0.1-1c-0.1-0.1-0.3-0.2-0.6-0.2c-0.3,0-0.7,0-1,0
			c-0.4,0-0.7,0.1-1.1,0.1c-0.3,0.1-0.6,0.1-0.7,0.2c-0.1-0.3-0.1-0.8-0.2-1.6c-0.1-0.8-0.1-1.6-0.2-2.4s-0.1-1.7-0.1-2.5
			s0-1.3,0-1.6c0.3-0.3,1-0.6,2-1.1c1-0.4,2.1-0.9,3.4-1.4c1.2-0.5,2.5-0.9,3.6-1.3c1.2-0.4,2.1-0.8,2.7-1.1c0,0.2,0,0.6,0.1,1.1
			s0.1,1.1,0.1,1.6c0,0.6,0.1,1.1,0.1,1.6s0,0.8,0,1c-0.1,0.6-0.2,1.6-0.3,2.9c-0.2,1.4-0.3,2.8-0.5,4.2c-0.2,1.4-0.4,2.8-0.5,4
			c-0.2,1.3-0.3,2.1-0.4,2.5c-0.3,1.3-0.7,2.5-1.1,3.6c-0.4,1.1-0.9,2.1-1.5,3.1s-1.3,1.9-2,2.8c-0.8,0.9-1.6,1.8-2.6,2.8
			c-1.2,1.1-2.4,1.8-3.6,2s-2.5,0.1-3.7-0.3s-2.4-1-3.5-1.9C113.4,363.3,112.5,362.4,111.6,361.5z"/>
	</g>
	<polygon fill="#1D1D1B" points="41.8,262 40.2,259.7 37.4,259.8 39.1,257.5 38.2,254.9 40.8,255.8 43,254.1 43,256.9 45.3,258.5 
		42.7,259.3 	"/>
	<polygon fill="#1D1D1B" points="186.6,391.6 183.4,389.8 180.1,391.3 180.9,387.7 178.3,385 182,384.7 183.8,381.4 185.3,384.8 
		188.9,385.5 186.2,388 	"/>
	<polygon fill="#1D1D1B" points="23.1,255.8 19.9,253.9 16.6,255.5 17.4,251.9 14.8,249.2 18.5,248.8 20.3,245.6 21.8,249 
		25.4,249.6 22.7,252.1 	"/>
	
		<radialGradient id="SVGID_1_" cx="157.3" cy="972.15" r="13.009" gradientTransform="matrix(1 0 0 1 0 -578)" gradientUnits="userSpaceOnUse">
		<stop  offset="0.5744" style="stop-color:#130C0E"/>
		<stop  offset="0.7977" style="stop-color:#130C0E"/>
		<stop  offset="1" style="stop-color:#130C0E"/>
	</radialGradient>
	<polygon fill="url(#SVGID_1_)" points="145.5,380.1 169.1,408.2 169,397.9 	"/>
	
		<radialGradient id="SVGID_2_" cx="-3658.9736" cy="10523.3447" r="13.0192" gradientTransform="matrix(-0.3117 -0.9502 0.9502 -0.3117 -11009.6846 72.8196)" gradientUnits="userSpaceOnUse">
		<stop  offset="0.5744" style="stop-color:#130C0E"/>
		<stop  offset="0.7977" style="stop-color:#130C0E"/>
		<stop  offset="1" style="stop-color:#130C0E"/>
	</radialGradient>
	<polygon fill="url(#SVGID_2_)" points="120.4,285.1 139.8,253.8 130,257.2 	"/>
	
		<radialGradient id="SVGID_3_" cx="-10513.4385" cy="7972.5532" r="13.013" gradientTransform="matrix(-0.9985 -5.470000e-02 5.470000e-02 -0.9985 -10900.3672 7689.6094)" gradientUnits="userSpaceOnUse">
		<stop  offset="0.5744" style="stop-color:#130C0E"/>
		<stop  offset="0.7977" style="stop-color:#130C0E"/>
		<stop  offset="1" style="stop-color:#130C0E"/>
	</radialGradient>
	<polygon fill="url(#SVGID_3_)" points="44.4,318.8 22.4,289.4 21.9,299.8 	"/>
	
		<radialGradient id="SVGID_4_" cx="-8373.9717" cy="-1588.2456" r="13.0113" gradientTransform="matrix(8.110000e-02 0.9967 -0.9967 8.110000e-02 -862.9274 8875.3184)" gradientUnits="userSpaceOnUse">
		<stop  offset="0.5744" style="stop-color:#130C0E"/>
		<stop  offset="0.7977" style="stop-color:#130C0E"/>
		<stop  offset="1" style="stop-color:#130C0E"/>
	</radialGradient>
	<polygon fill="url(#SVGID_4_)" points="54,387.3 27.9,413.1 38.2,412.1 	"/>
	
		<radialGradient id="SVGID_5_" cx="-1661.4177" cy="-833.8461" r="10.3472" gradientTransform="matrix(0.9218 0.3876 -0.3876 0.9218 1326.9319 1809.6764)" gradientUnits="userSpaceOnUse">
		<stop  offset="0.5744" style="stop-color:#130C0E"/>
		<stop  offset="0.7977" style="stop-color:#130C0E"/>
		<stop  offset="1" style="stop-color:#130C0E"/>
	</radialGradient>
	<polygon fill="url(#SVGID_5_)" points="114.1,383.2 122.7,410.8 127.1,401.6 	"/>
</g>
</svg>
