<?xml version="1.0" encoding="utf-8"?>
<!-- Generator: Adobe Illustrator 22.1.0, SVG Export Plug-In . SVG Version: 6.00 Build 0)  -->
<svg version="1.1" id="login-window" xmlns="http://www.w3.org/2000/svg" xmlns:xlink="http://www.w3.org/1999/xlink" x="0px"
	 y="0px" viewBox="0 0 300 200" enable-background="new 0 0 300 200" xml:space="preserve">
<g id="batman">
	<g id="base">
		<path fill="#656E70" d="M247.9,170.5c-1.7-9.6-8.7-17.5-18-20.3l-53-11.8v0.1H118v-0.1l-53,11.8c-9.3,2.8-16.3,10.7-18,20.3
			L40.5,213c32,14.2,73,12,108,12l5,0.5c35,0,71.5,2.2,103.5-12L247.9,170.5z"/>
		<path fill="#5E6668" d="M247.9,170.5c-1.7-9.6-8.7-17.5-18-20.3l-53-11.8v0.1h-36.3l56.3,55c17.9-3.6,35.3-9.1,52-16.5
			L247.9,170.5z"/>
		<path fill="#787F80" d="M65,150.1c-7.9,2.4-14.2,8.5-16.9,16.3c4,1.5,8.5,0.3,11.2-2.9c1.5-1.7,3.5-2.9,5.7-3.6l46-12.5
			c4.1-1.1,7-4.9,7-9.1L65,150.1z"/>
		<path d="M190.2,125.8V66.3c0-33.4-16.5-47.2-16.5-47.2s-9.8-6.6-26.3-6.6S121.2,19,121.2,19s-16.6,17.3-16.6,47.2v59.5L65,150.1
			l9.8-1c10.9-1.1,21.8,1,31.4,6.2c38.7,21,43.5,20.9,82.5,0c9.6-5.1,20.4-7.3,31.2-6.2c2.2,0.2,5.2,0.6,9.9,1L190.2,125.8z"/>
		<path fill="none" stroke="#000000" stroke-width="4" stroke-linejoin="round" d="M180.8,134.4l49.2,15.8
			c9.3,2.8,16.3,10.7,18,20.3l9,44.5c-32,14.2-73.5,12-108.5,12H145c-35,0-70.5-0.3-102.5-14.5l4.5-42c1.7-9.6,8.7-17.5,18-20.3
			l50.4-15.8"/>
		<path id="right-ear" d="M121.6,18.8l-6.5-15c-0.5-1.2-1.9-1.7-3.1-1.2c-0.8,0.3-1.3,1-1.4,1.8C106.5,40,105,47.7,105,66v17.5
			c15.4-6.6,19.9-9,20.5-25.7L121.6,18.8z"/>
		<path id="left-ear" d="M173.6,19.3l6.5-15c0.5-1.2,1.9-1.7,3.1-1.2c0.8,0.3,1.3,1,1.4,1.8c4.1,35.6,5.6,43.3,5.6,61.6V84
			c-15.4-6.6-19.9-9-20.5-25.7L173.6,19.3z"/>
	</g>
	<g id="face">
		<path fill="#F5D4CB" d="M157,98.8l-7.9,5.8c-1.1,0.8-2.5,0.8-3.6,0l-7.8-5.8h-22.4v6.8c0,8.2,10.5,20.9,21.2,27.2
			c2.9,1.8,7.7,1.6,10.9,1.6s8,0,10.9-1.6c10.7-6.3,21.2-18.9,21.2-27.2v-6.8H157z"/>
		<polyline fill="none" stroke="#C6A7A2" stroke-width="2" stroke-linecap="round" stroke-miterlimit="10" points="133.1,115.9 
			141.7,113 153.1,113 161.6,115.9 		"/>
		
			<line fill="none" stroke="#C6A7A2" stroke-width="2" stroke-linecap="round" stroke-miterlimit="10" x1="140.3" y1="120.1" x2="154.5" y2="120.1"/>
		<g id="eyes">
			<path fill="#E0E0E0" d="M136.7,86.4h-14.2c-1.4,0-2.6-0.8-3.2-2l-3.6-7.1c-0.6-1.3-0.4-2.9,0.6-4s2.6-1.4,4-0.9l17.8,7.1
				c1.8,0.7,2.7,2.8,1.9,4.6C139.4,85.5,138.1,86.4,136.7,86.4z"/>
			<path fill="#E0E0E0" d="M172.4,86.4h-14.2c-2,0-3.6-1.6-3.5-3.6c0-1.4,0.9-2.7,2.2-3.3l17.8-7.1c1.8-0.7,3.9,0.2,4.6,2
				c0.4,0.9,0.3,2-0.1,2.9l-3.6,7.1C175,85.6,173.8,86.4,172.4,86.4z"/>
			<g id="glasses">
				<g>
					<g>
						<path fill="#031D3D" d="M136.7,86.4h-14.2c-1.4,0-2.6-0.8-3.2-2l-3.6-7.1c-0.6-1.3-0.4-2.9,0.6-4s2.6-1.4,4-0.9l17.8,7.1
							c1.8,0.7,2.7,2.8,1.9,4.6C139.4,85.5,138.1,86.4,136.7,86.4z"/>
						<g>
							<defs>
								<polygon id="SVGID_1_" points="1,1 2,1 1,2 								"/>
							</defs>
							<defs>
								<polygon id="SVGID_2_" points="-1,-1 -2,-1 -1,-2 								"/>
							</defs>
							<clipPath id="SVGID_3_">
								<use xlink:href="#SVGID_1_"  overflow="visible"/>
							</clipPath>
							<clipPath id="SVGID_4_" clip-path="url(#SVGID_3_)">
								<use xlink:href="#SVGID_2_"  overflow="visible"/>
							</clipPath>
							<path opacity="0.75" clip-path="url(#SVGID_4_)" enable-background="new    " d="M136.7,86.4h-14.2c-1.4,0-2.6-0.8-3.2-2
								l-3.6-7.1c-0.6-1.3-0.4-2.9,0.6-4s2.6-1.4,4-0.9l17.8,7.1c1.8,0.7,2.7,2.8,1.9,4.6C139.4,85.5,138.1,86.4,136.7,86.4z"/>
						</g>
					</g>
					<path fill="none" stroke="#1E3659" stroke-miterlimit="10" d="M136.7,86.4h-14.2c-1.4,0-2.6-0.8-3.2-2l-3.6-7.1
						c-0.6-1.3-0.4-2.9,0.6-4s2.6-1.4,4-0.9l17.8,7.1c1.8,0.7,2.7,2.8,1.9,4.6C139.4,85.5,138.1,86.4,136.7,86.4z"/>
				</g>
				<g>
					<g>
						<path fill="#031D3D" d="M172.4,86.4h-14.2c-2,0-3.6-1.6-3.5-3.6c0-1.4,0.9-2.7,2.2-3.3l17.8-7.1c1.8-0.7,3.9,0.2,4.6,2
							c0.4,0.9,0.3,2-0.1,2.9l-3.6,7.1C175,85.6,173.8,86.4,172.4,86.4z"/>
						<g>
							<defs>
								<polygon id="SVGID_5_" points="1,1 2,1 1,2 								"/>
							</defs>
							<defs>
								<polygon id="SVGID_6_" points="-1,-1 -2,-1 -1,-2 								"/>
							</defs>
							<clipPath id="SVGID_7_">
								<use xlink:href="#SVGID_5_"  overflow="visible"/>
							</clipPath>
							<clipPath id="SVGID_8_" clip-path="url(#SVGID_7_)">
								<use xlink:href="#SVGID_6_"  overflow="visible"/>
							</clipPath>
							<path opacity="0.75" clip-path="url(#SVGID_8_)" enable-background="new    " d="M172.4,86.4h-14.2c-2,0-3.6-1.6-3.5-3.6
								c0-1.4,0.9-2.7,2.2-3.3l17.8-7.1c1.8-0.7,3.9,0.2,4.6,2c0.4,0.9,0.3,2-0.1,2.9l-3.6,7.1C175,85.6,173.8,86.4,172.4,86.4z"/>
						</g>
					</g>
					<path fill="none" stroke="#1E3659" stroke-miterlimit="10" d="M172.4,86.4h-14.2c-2,0-3.6-1.6-3.5-3.6c0-1.4,0.9-2.7,2.2-3.3
						l17.8-7.1c1.8-0.7,3.9,0.2,4.6,2c0.4,0.9,0.3,2-0.1,2.9l-3.6,7.1C175,85.6,173.8,86.4,172.4,86.4z"/>
				</g>
			</g>
		</g>
	</g>
</g>
<g id="bat-ico">
	<path id="bat-body" fill="#161616" d="M156.8,211.6c-0.6,4.3-6.6,15.9-6.6,15.9s-6.3-11.5-6.9-15.9c-0.8-5.7,2-23.9,2-23.9l1,3h7.5
		l1-3C154.8,187.8,157.5,206,156.8,211.6z"/>
	<path id="wing-left" fill="#161616" d="M148.2,196.4h-5.4c-6-1-11.8-3.4-17-7c-8.3-5.8-10.5-12.4-5.7-17.2c-20.4,0-37,16.6-37,37
		c3.4-2.4,7.6-3.8,12.1-3.8c9.3,0,17.3,6,20.2,14.3c3.9-3.1,9.7-5.4,15.1-5.4c7.6,0,13.7,4,17.7,9.9L148.2,196.4L148.2,196.4z"/>
	<path id="wing-right" fill="#161616" d="M180.1,172.2c4.8,4.8,2.6,11.4-5.7,17.2c-5.2,3.6-11,6-17,7h-5.6v28.1
		c3.9-6,10.1-10.2,17.9-10.2c5.4,0,11.2,2.3,15.1,5.4c2.9-8.3,10.9-14.3,20.2-14.3c4.5,0,8.7,1.4,12.1,3.8
		C217.1,188.8,200.5,172.2,180.1,172.2z"/>
</g>
</svg>
