<?xml version="1.0" encoding="utf-8"?>
<!--Generator: Adobe Illustrator 22.1.0, SVG Export Plug-In . SVG Version: 6.00 Build 0)-->
<svg xmlns="http://www.w3.org/2000/svg" xmlns:xlink="http://www.w3.org/1999/xlink" id="moon" x="0px" y="0px" enable-background="new 0 0 180 180" version="1.1" viewBox="0 0 180 180" xml:space="preserve">
    <radialGradient id="bright_1_" cx="65.9666" cy="906.0573" r="88.5688" gradientTransform="matrix(1.0383 0 0 1.0574 20.1181 -869.7299)" gradientUnits="userSpaceOnUse">
        <stop offset="0" style="stop-color:#9FA8CA"/>
        <stop offset="0.95" style="stop-color:#9FA8CA;stop-opacity:0"/>
    </radialGradient>
    <path id="bright" fill="url(#bright_1_)" d="M0,88.3C0,138.9,40.3,180,90,180c49.6,0,90-41,90-91.7c0-26.8-11.7-51-30.6-69.1
       C133,3.3,109.6,0,87.8,0C38.7,0,0,37.8,0,88.3z"/>
    <g id="astronaut">
        <path fill="none" stroke="#DCDCDC" stroke-miterlimit="10" stroke-width="2" d="M49.1,115.9c0,0,13.2-13.7,23.7-5
           c10.4,8.6,16.9,21.7,33.4,18c16.6-3.8,20.5-21.6,16.8-28.7"/>
        <g>
            <g>
                <g>
                    <path fill="#67B7E0" d="M42.1,111.3c0,0-2.3-0.2-2.1-2.9l-1-0.9c0,0-1,2,0.5,3.8c1.5,1.8,3.2,1.1,3.2,1.1L42.1,111.3z"/>
                    <path fill="#231052" d="M39.1,107.5l0.2,0.2c-0.2,0.7-0.4,2.1,0.7,3.3c1,1.2,2.1,1.3,2.7,1.2l0.1,0.2
                       c0,0-1.6,0.7-3.2-1.1C38.1,109.5,39.1,107.5,39.1,107.5z" opacity="0.1"/>
                    <path fill="#DCDCDC" d="M47.7,119.1c1,1.2,2.8,1.4,4.1,0.4l2.6-2.2c1.2-1,1.4-2.8,0.4-4.1l-5.3-6.4c-1-1.2-2.8-1.4-4.1-0.4
                       l-2.6,2.2c-1.2,1-1.4,2.8-0.4,4.1L47.7,119.1z"/>
                    <path fill="#231052" d="M42,109.7c-0.1,0.8,0.1,1.7,0.6,2.4l5.3,6.4c1,1.2,2.8,1.4,4.1,0.4l2.6-2.2
                       c0.3-0.3,0.6-0.6,0.8-1c-0.1,0.6-0.4,1.3-1,1.7l-2.6,2.2c-1.2,1-3,0.9-4.1-0.4l-5.3-6.4C41.7,111.9,41.5,110.7,42,109.7z" opacity="0.1"/>
                    <path fill="#DCDCDC" d="M36.7,101.2c-0.3,3.7,2.8,7,6.9,7.4c4.1,0.3,7.7-2.4,8-6.2c0.3-3.7-2.8-7-6.9-7.4
                       C40.6,94.7,37,97.4,36.7,101.2z"/>
                    <path fill="#0A002B" d="M38.1,102.2c-0.3,3.5,2.4,6.6,6,6.9c3.6,0.3,6.8-2.3,7.1-5.8c0.3-3.5-2.4-6.6-6-6.9
                       C41.5,96.1,38.4,98.7,38.1,102.2z"/>
                    <path fill="#FFFFFF" d="M50.2,106.1c-1.3,2.4-4.1,4.2-8.1,3.3c-3.9-0.9-5.7-3.8-5.4-7.8c0.1-1.2,0.5-2.3,1.1-3.3
                       c0,0-1.4,7.8,4.7,9.3C48,108.9,50.2,106.1,50.2,106.1z"/>
                    <g>
                        <path fill="#DCDCDC" d="M39.4,108.3l0.4-0.6c0.2-0.3-0.1-1-0.7-1.5c-0.6-0.5-1.4-0.6-1.6-0.2l-0.4,0.5L39.4,108.3z"/>
                        <path fill="#FFFFFF" d="M37.1,106.6c-0.2,0.3,0.1,1,0.7,1.5c0.6,0.5,1.4,0.6,1.6,0.2c0.2-0.3-0.1-1-0.7-1.5
                           C38.1,106.3,37.4,106.2,37.1,106.6z"/>
                    </g>
                    <path fill="#FFFFFF" d="M48.2,98.5c0,0-0.8-0.9-2.5-1.3c0,0-1.4-0.3-1.4,0.2c0,0-0.1,0.5,1,0.5C45.3,97.9,47,97.7,48.2,98.5z"/>
                    <g>
                        <g>
                            <path fill="#FFFFFF" d="M59.4,102c-0.8,0.4-1.1,1.4-0.7,2.2l0.4,0.7c0.4,0.8,1.4,1.1,2.2,0.7l0,0c0.8-0.4,1.1-1.4,0.7-2.2
                               l-0.4-0.7C61.2,101.9,60.2,101.6,59.4,102L59.4,102z"/>
                            <path fill="#FFFFFF" d="M61.5,103.3c-0.3,0.1-0.4,0.4-0.3,0.7l0,0c0.1,0.3,0.4,0.4,0.7,0.3l1.5-0.6c0.3-0.1,0.4-0.4,0.3-0.7
                               l0,0c-0.1-0.3-0.4-0.4-0.7-0.3L61.5,103.3z"/>
                            <path fill="#FFFFFF" d="M61.2,102.3c-0.3,0.2-0.4,0.5-0.2,0.8l0,0c0.2,0.2,0.5,0.3,0.8,0.1l1.5-1c0.3-0.2,0.4-0.5,0.2-0.8l0,0
                               c-0.2-0.2-0.5-0.3-0.8-0.1L61.2,102.3z"/>
                            <path fill="#FFFFFF" d="M60.1,101.9c-0.2,0.3-0.2,0.6,0.1,0.8l0,0c0.2,0.2,0.6,0.1,0.8-0.1l1.1-1.4c0.2-0.3,0.2-0.6-0.1-0.8
                               l0,0c-0.2-0.2-0.6-0.1-0.8,0.1L60.1,101.9z"/>
                            <path fill="#FFFFFF" d="M59,102.8c0,0.3,0.2,0.5,0.5,0.6l0,0c0.3,0,0.6-0.2,0.6-0.4l0.2-1.5c0-0.3-0.2-0.5-0.5-0.6l0,0
                               c-0.3,0-0.6,0.2-0.6,0.4L59,102.8z"/>
                            <path fill="#FFFFFF" d="M61.2,104.1c-0.3,0-0.5,0.2-0.5,0.5l0,0c0,0.3,0.2,0.5,0.5,0.6l1.5,0.1c0.3,0,0.5-0.2,0.5-0.5l0,0
                               c0-0.3-0.2-0.5-0.5-0.6L61.2,104.1z"/>
                        </g>
                        <g opacity="0.1">
                            <g>
                                <path fill="#231052" d="M61.2,102.2l0.7-1.3c0.1-0.2,0.2-0.4,0.1-0.6c0.2,0.2,0.3,0.5,0.1,0.8L61.2,102.2L61.2,102.2z"/>
                                <path fill="#231052" d="M60.2,101.8l-0.1-0.6c0-0.1,0-0.3-0.2-0.4C60.5,101,60.2,101.6,60.2,101.8L60.2,101.8z"/>
                                <path fill="#231052" d="M61.2,105.5c0.2-0.1,0.4-0.3,0.6-0.5l0.8,0c0.3,0,0.5-0.2,0.5-0.5c0-0.1,0-0.2-0.1-0.3
                                   c0.1,0.1,0.2,0.3,0.2,0.4c0,0.3-0.3,0.5-0.5,0.5l-0.8,0c-0.1,0.2-0.3,0.4-0.6,0.5c-0.7,0.4-1.7,0.1-2.1-0.6
                                   C59.7,105.7,60.5,105.9,61.2,105.5z"/>
                                <path fill="#231052" d="M61.8,103.1L61.8,103.1l1.3-1.1c0.2-0.2,0.3-0.5,0.2-0.7c0,0,0.1,0.1,0.1,0.1
                                   c0.2,0.3,0.1,0.6-0.2,0.8L61.8,103.1z"/>
                                <path fill="#231052" d="M62.6,104c0,0-0.4,0.2-0.4,0.2l0,0l1-0.6c0.3-0.2,0.4-0.4,0.3-0.7c0,0,0,0,0,0
                                   c0.1,0.1,0.1,0.1,0.2,0.2c0.1,0.3,0,0.6-0.3,0.7L62.6,104z"/>
                            </g>
                        </g>
                        <path fill="#FFFFFF" d="M59.2,106.2c0,0-4.3,3.1-5.8,1.8l0.2-3.7c0,0,1.9,0.4,4.2-0.9c0,0-0.1,0.2,0.8,1.8L59.2,106.2z"/>
                        <g>
                            <path fill="#231052" d="M58.8,105.7l0.4,0.6c0,0-4.3,3.1-5.8,1.8l0-0.5C54.9,108.3,58.1,106.2,58.8,105.7z" opacity="0.1"/>
                            <path fill="#FFFFFF" d="M57.7,103.4C57.7,103.4,57.7,103.4,57.7,103.4C57.7,103.4,57.7,103.4,57.7,103.4
                               C57.7,103.5,57.7,103.5,57.7,103.4z"/>
                        </g>
                        <path fill="#67B7E0" d="M58,103.1c-0.3,0.2-0.4,0.5-0.2,0.9L59,106c0.2,0.3,0.5,0.5,0.8,0.3l0,0c0.3-0.2,0.4-0.5,0.2-0.9
                           l-1.1-2.1C58.6,103.1,58.3,102.9,58,103.1L58,103.1z"/>
                        <path fill="#231052" d="M59.4,106.3c0.3-0.2,0.4-0.5,0.2-0.9l-1.1-2.1c-0.1-0.2-0.3-0.3-0.4-0.3
                           c0.3-0.1,0.6,0,0.8,0.3l1.1,2.1c0.2,0.3,0.1,0.7-0.2,0.9C59.7,106.4,59.5,106.4,59.4,106.3C59.4,106.3,59.4,106.3,59.4,106.3z" opacity="0.1"/>
                    </g>
                    <path fill="#FFFFFF" d="M51.6,103.6c0,0-0.5-0.3-1.4,0c-0.9,0.3-4,1.5-4,1.5s-1,0.3-1.5,1.4c-0.6,1.1-1.7,3-1.7,3
                       s-0.3,0.6,0.1,1.1c0.5,0.6,4.6,5.2,4.6,5.2s0.8,0.6,0.7,1.3c-0.1,0.7,0.6,0.6,0.6,0.6s0.5-0.1,0.5,0.5c0,0.6,2.2,3.5,3.7,1.9
                       c1.5-1.7,6-6.3,6-6.3s0.9-0.8-0.1-1.8c-1-1-1.2-0.3-1.3-1.4c0,0,0-0.6-0.5-0.7c-0.4-0.1-0.3-0.4-0.3-0.4s0.3-0.3,0-0.7
                       c-0.3-0.3,0.3-0.9-0.9-1L51.6,103.6z"/>
                    <g opacity="0.1">
                        <g>
                            <path fill="#231052" d="M57,109.7C57,109.7,57,109.7,57,109.7c-0.1-0.3,0.2-0.8-0.8-0.9l-4.6-4.4c0,0-0.5-0.3-1.4,0
                               c-0.9,0.3-4,1.5-4,1.5s-1,0.3-1.5,1.4c-0.6,1.1-1.7,3-1.7,3s0,0,0,0.1c-0.3-0.5,0-0.9,0-0.9s1.2-1.9,1.7-3
                               c0.6-1.1,1.5-1.4,1.5-1.4s3.1-1.1,4-1.5c0.9-0.3,1.4,0,1.4,0l4.6,4.4c1.1,0.1,0.6,0.7,0.9,1C57.3,109.4,57,109.7,57,109.7z"/>
                            <path fill="#231052" d="M59,113c-1-1-1.2-0.3-1.3-1.4c0,0,0-0.6-0.5-0.7c-0.4-0.1-0.3-0.4-0.3-0.4s0.2-0.2,0.1-0.5
                               c0,0,0.1,0,0.1,0c0.4,0.1,0.5,0.7,0.5,0.7c0.1,1.1,0.3,0.4,1.3,1.4c0.5,0.5,0.5,1,0.4,1.3C59.3,113.4,59.2,113.2,59,113z"/>
                        </g>
                    </g>
                    <path fill="#CECECE" d="M49.1,105.7l-0.3,1.5c0,0.2,0,0.4,0.2,0.6l2.8,4c0.2,0.3,0.6,0.3,1,0.2l3.7-1.6c0.2-0.1,0.3-0.4,0.3-0.6
                       l0.1-1"/>
                    <path fill="#CECECE" d="M49.4,111.3c-0.2,0.2-0.2,0.7,0.2,1c0.3,0.3,0.7,0.4,1,0.2c0.2-0.2,0.2-0.7-0.2-1
                       C50,111.1,49.6,111.1,49.4,111.3z"/>
                    <path fill="#CECECE" d="M47.8,108.6c-0.2,0.2-0.1,0.6,0.1,0.8c0.3,0.3,0.6,0.3,0.8,0.1c0.2-0.2,0.1-0.6-0.1-0.8
                       C48.3,108.5,47.9,108.4,47.8,108.6z"/>
                    <path fill="#231052" d="M50.3,111.6c-0.3-0.3-0.7-0.4-1-0.2c0,0,0,0.1-0.1,0.1c0-0.1,0.1-0.2,0.1-0.3
                       c0.2-0.2,0.7-0.1,1,0.2c0.3,0.3,0.4,0.7,0.2,0.9C50.6,112.1,50.5,111.9,50.3,111.6z" opacity="0.1"/>
                    <path fill="#231052" d="M48.5,108.9c-0.3-0.3-0.6-0.3-0.8-0.1c0,0,0,0,0,0.1c0-0.1,0-0.2,0.1-0.2
                       c0.2-0.2,0.6-0.1,0.8,0.1c0.2,0.2,0.3,0.6,0.2,0.7C48.8,109.3,48.7,109.1,48.5,108.9z" opacity="0.1"/>
                    <path fill="#DCDCDC" d="M52.2,110.4c0.2,0.3,0.6,0.3,0.9,0.2l3.5-1.4c0.3-0.2,0.3-0.6,0.1-0.9l-3-4.1c-0.2-0.3-0.5-0.4-0.9-0.2
                       l-3.5,1.4c-0.3,0.2-0.3,0.6-0.1,0.9L52.2,110.4z"/>
                    <path fill="#DCDCDC" d="M49.8,111.5c-0.1,0.1-0.1,0.4,0,0.5l0,0c0.2,0.1,0.4,0.1,0.5,0l1.1-1.2c0.1-0.1,0.1-0.4,0-0.5l0,0
                       c-0.2-0.1-0.4-0.1-0.5,0L49.8,111.5z"/>
                    <path fill="#231052" d="M49.8,111.5l1.1-1.2c0.1-0.1,0.4-0.1,0.5,0c0,0,0.1,0.1,0.1,0.1c-0.2-0.1-0.4-0.1-0.5,0
                       l-1.1,1.2c-0.1,0.1-0.1,0.3-0.1,0.4c0,0,0,0,0,0C49.7,111.9,49.7,111.6,49.8,111.5z" opacity="0.1"/>
                    <path fill="#0A002B" d="M51.2,107.3c0.1,0.2,0.4,0.2,0.6,0.1l2.1-0.9c0.2-0.1,0.2-0.4,0.1-0.5l-0.8-1.1
                       c-0.1-0.2-0.3-0.2-0.6-0.1l-2.1,0.9c-0.2,0.1-0.2,0.4-0.1,0.5L51.2,107.3z"/>
                    <g>
                        <path fill="#FFFFFF" d="M56.3,118c0,0,0.3-0.4-0.6-1.3c-0.8-0.9-3-4.2-6.9-0.2l5.4,4.5c0,0,0.6,0.3,1-0.2
                           C55.5,120.6,56.3,118,56.3,118z"/>
                        <g>
                            <path fill="#67B7E0" d="M54.2,117.2l-1.3-1c-0.4-0.3-0.4-0.8-0.1-1.3c0.1-0.1,0.1-0.2,0.2-0.2c1.3,0.3,2.1,1.4,2.6,1.9
                               c0,0.1-0.1,0.2-0.1,0.3C55.1,117.3,54.5,117.4,54.2,117.2z"/>
                        </g>
                        <path fill="#231052" d="M56,118.7c0,0,0.3-0.4-0.6-1.3c-0.8-0.8-3-4.1-6.6-0.8l0,0c4-4.1,6.1-0.7,6.9,0.2
                           c0.8,0.9,0.6,1.3,0.6,1.3S56.3,118.1,56,118.7C55.8,118.9,56,118.7,56,118.7z" opacity="0.1"/>
                        <path fill="#67B7E0" d="M60.6,122.9c0,0-0.8,0.6-2.7-0.8c0,0-1.4-1-2.7-0.9c0,0-0.6,0.2-0.5-0.5c0-0.6,1.4-2.9,1.4-2.9
                           s0.1-0.3,0.6,0c0.6,0.2,1.4,0.5,2.4,1.6c0,0,0.2-0.3,0.9-1.8c0.7-1.5,1.6-0.3,1.6-0.3L60.6,122.9z"/>
                        <path fill="#67B7E0" d="M60.6,122.9c0,0-0.8,0.6-2.7-0.8c0,0-1.4-1-2.7-0.9c0,0-0.6,0.2-0.5-0.5c0-0.6,1.4-2.9,1.4-2.9
                           s0.1-0.3,0.6,0c0.6,0.2,1.4,0.5,2.4,1.6c0,0,0.2-0.3,0.9-1.8c0.7-1.5,1.6-0.3,1.6-0.3L60.6,122.9z"/>
                        <g opacity="0.1">
                            <g>
                                <path fill="#231052" d="M61.3,117.7c0,0-0.6-0.8-1.2-0.3c0.7-1.3,1.6-0.2,1.6-0.2l-1,5.7c0,0-0.1,0.1-0.3,0.1L61.3,117.7z"/>
                                <path fill="#231052" d="M58.8,119.9c-0.9-1-1.8-1.3-2.4-1.6c-0.3-0.1-0.4-0.1-0.5-0.1c0.1-0.2,0.2-0.4,0.2-0.4s0.1-0.3,0.6,0
                                   c0.5,0.2,1.4,0.5,2.3,1.5C58.8,119.7,58.8,119.9,58.8,119.9z"/>
                            </g>
                        </g>
                        <path fill="#DCDCDC" d="M59.9,121.5c-0.1,0.7,0.1,1.4,0.5,1.4l0,0c0.4,0.1,0.8-0.5,1-1.2l0.5-3.2c0.1-0.7-0.1-1.4-0.5-1.4l0,0
                           c-0.4-0.1-0.8,0.5-1,1.2L59.9,121.5z"/>
                        <path fill="#231052" d="M61.7,117.6c-0.4-0.1-0.8,0.5-1,1.2l-0.5,3.2c-0.1,0.3,0,0.7,0.1,0.9
                           c-0.3-0.2-0.5-0.7-0.4-1.4l0.5-3.2c0.1-0.7,0.5-1.3,1-1.2c0.2,0,0.4,0.2,0.5,0.5C61.8,117.6,61.8,117.6,61.7,117.6z" opacity="0.1"/>
                    </g>
                    <g>
                        <g>
                            <path fill="#FFFFFF" d="M46.3,119.2c0.1-0.9-0.6-1.7-1.6-1.8l-0.8-0.1c-0.9-0.1-1.7,0.6-1.8,1.5l0,0c-0.1,0.9,0.6,1.7,1.6,1.8
                               l0.8,0.1C45.4,120.8,46.2,120.1,46.3,119.2L46.3,119.2z"/>
                            <path fill="#FFFFFF" d="M44.1,120.4c0.1-0.3-0.1-0.6-0.4-0.6l0,0c-0.3-0.1-0.6,0.1-0.6,0.4l-0.3,1.6c-0.1,0.3,0.1,0.6,0.4,0.6
                               l0,0c0.3,0.1,0.6-0.1,0.6-0.4L44.1,120.4z"/>
                            <path fill="#FFFFFF" d="M45.2,120.6c0-0.3-0.3-0.6-0.6-0.6l0,0c-0.3,0-0.5,0.3-0.5,0.6l0,1.8c0,0.3,0.3,0.6,0.6,0.6l0,0
                               c0.3,0,0.5-0.3,0.5-0.6L45.2,120.6z"/>
                            <path fill="#FFFFFF" d="M46,119.9c-0.1-0.3-0.4-0.5-0.7-0.4l0,0c-0.3,0.1-0.4,0.4-0.3,0.8l0.6,1.7c0.1,0.3,0.4,0.5,0.7,0.4
                               l0,0c0.3-0.1,0.4-0.4,0.3-0.8L46,119.9z"/>
                            <path fill="#FFFFFF" d="M45.9,118.5c-0.2-0.2-0.6-0.1-0.8,0.1l0,0c-0.2,0.2-0.2,0.6,0.1,0.8l1.2,1c0.2,0.2,0.6,0.1,0.8-0.1
                               l0,0c0.2-0.2,0.2-0.6-0.1-0.8L45.9,118.5z"/>
                            <path fill="#FFFFFF" d="M43.6,119.7c0.2-0.2,0.1-0.6-0.2-0.7l0,0c-0.2-0.2-0.6-0.1-0.7,0.1l-0.9,1.3c-0.2,0.2-0.1,0.6,0.2,0.7
                               l0,0c0.3,0.2,0.6,0.1,0.8-0.1L43.6,119.7z"/>
                        </g>
                        <g opacity="0.1">
                            <g>
                                <path fill="#231052" d="M46.8,120.1c0.2-0.2,0.2-0.6-0.1-0.8l-0.8-0.7c-0.1-0.5-0.4-1-0.9-1.2c0.7,0.1,1.2,0.7,1.3,1.3
                                   l0.8,0.7c0.2,0.2,0.3,0.5,0.1,0.8c-0.2,0.2-0.5,0.3-0.8,0.1l0,0C46.6,120.3,46.7,120.3,46.8,120.1z"/>
                                <path fill="#231052" d="M46,122.2c0.3-0.1,0.3-0.3,0.3-0.8l-0.2-1.4l0,0c0,0,0,0,0,0l0.6,1.5c0.1,0.3,0,0.7-0.3,0.8
                                   c-0.2,0.1-0.4,0-0.5-0.1C45.9,122.3,46,122.3,46,122.2z"/>
                                <path fill="#231052" d="M43.5,122l0.5-1.2l-0.2,1.3c-0.1,0.4-0.4,0.4-0.6,0.4c-0.1,0-0.2-0.1-0.2-0.1
                                   C43.2,122.3,43.4,122.2,43.5,122z"/>
                                <path fill="#231052" d="M42.5,120.9l0.5-0.4l-0.3,0.5c-0.2,0.3-0.5,0.2-0.7,0.1c0,0,0,0,0,0
                                   C42.1,121.1,42.2,121.1,42.5,120.9z"/>
                                <path fill="#231052" d="M44.8,122.3l0.3-1.6l0,0l0,1.7c0,0.3-0.2,0.6-0.5,0.6c-0.1,0-0.2,0-0.3-0.1
                                   C44.6,122.9,44.7,122.8,44.8,122.3z"/>
                            </g>
                        </g>
                        <path fill="#FFFFFF" d="M45.4,116.8l-2.6,0.2c0,0-0.7-0.9-0.5-4.4l0.2-1.8c0.1-1.1,1.1-1.9,2.1-1.8l0,0
                           c1.1,0.1,1.9,1.1,1.8,2.1C46.3,111.1,46.4,113.5,45.4,116.8z"/>
                        <path fill="#231052" d="M45.5,111.3c0.1-1.1-0.7-2-1.8-2.1c0,0-0.1,0-0.1,0c0.3-0.1,0.6-0.2,1-0.2
                           c1.1,0.1,1.9,1.1,1.8,2.1c0,0,0.1,2.4-0.9,5.7l-0.8,0.1C45.5,113.6,45.5,111.3,45.5,111.3z" opacity="0.1"/>
                        <g>
                            <path fill="#67B7E0" d="M42.3,111.7c0.2-0.1,0.4-0.2,0.6-0.2c0.5,0,0.9,0.4,0.9,0.9l0,1.6c0,0.5-0.4,0.9-0.9,0.9
                               c-0.3,0-0.5-0.1-0.7-0.3c0-0.5,0-1.2,0-2L42.3,111.7z"/>
                        </g>
                        <path fill="#67B7E0" d="M42.2,117.6c0,0.3,0.3,0.5,0.7,0.5l2.3-0.2c0.4,0,0.6-0.3,0.6-0.6l0,0c0-0.3-0.3-0.5-0.7-0.5l-2.3,0.2
                           C42.5,117,42.2,117.3,42.2,117.6L42.2,117.6z"/>
                        <path fill="#231052" d="M45.7,117.5c0-0.3-0.3-0.5-0.7-0.5l-2.3,0.2c-0.1,0-0.3,0.1-0.4,0.1
                           c0.1-0.2,0.3-0.4,0.6-0.4l2.3-0.2c0.4,0,0.7,0.2,0.7,0.5c0,0.2-0.1,0.4-0.2,0.5C45.7,117.7,45.7,117.6,45.7,117.5z" opacity="0.1"/>
                    </g>
                    <g>
                        <path fill="#FFFFFF" d="M64.1,112.6c0,0-3.5-3.6-7.4-1.3c-1.4,0.8-1.9,1.4-1.9,1.4l1.8,3.3c0,0,3.5-0.9,6,0
                           c0,0,0.6,0.1,0.8-0.2L64.1,112.6z"/>
                        <g>
                            <path fill="#67B7E0" d="M62.2,112.3l-1.5-0.5c-0.4-0.2-0.6-0.6-0.5-1.1c1.3,0.2,2.3,0.8,3,1.3C63,112.2,62.6,112.4,62.2,112.3
                               z"/>
                        </g>
                        <path fill="#231052" d="M56.9,111.7c-1.1,0.5-1.9,0.7-2.2,1l0,0c0,0,0.5-0.5,1.9-1.4c3.9-2.3,7.4,1.3,7.4,1.3
                           l-0.1,0.6C63.3,112.6,60.3,110.1,56.9,111.7z" opacity="0.1"/>
                        <path fill="#67B7E0" d="M68.7,117.4c0,0-0.8,0.6-2.7-0.8c0,0-1.1-0.6-2.4-0.5c0,0-0.5,0-0.5-0.6c0-0.6,0.8-2.9,0.8-2.9
                           s0.1-0.3,0.7,0c0.6,0.2,1.8,0.3,2.7,1.3c0,0,0.2-0.3,0.9-1.8c0.7-1.5,1.6-0.3,1.6-0.3L68.7,117.4z"/>
                        <path fill="#231052" d="M69.6,112.2c0,0-0.9-1.2-1.6,0.3c-0.7,1.5-0.8,1.7-0.8,1.7c-0.9-1-2.3-1-2.9-1.2
                           c-0.4-0.2-0.5-0.1-0.6,0c0.1-0.2,0.1-0.4,0.1-0.4s0.1-0.3,0.7,0c0.6,0.2,1.8,0.3,2.7,1.3c0,0,0.2-0.3,0.9-1.8
                           c0.7-1.5,1.6-0.3,1.6-0.3l-1,5.7c0,0,0,0-0.1,0.1L69.6,112.2z" opacity="0.1"/>
                        <path fill="#DCDCDC" d="M68,116c-0.1,0.7,0.1,1.4,0.5,1.4l0,0c0.4,0.1,0.8-0.5,1-1.2l0.5-3.2c0.1-0.7-0.1-1.4-0.5-1.4l0,0
                           c-0.4-0.1-0.8,0.5-1,1.2L68,116z"/>
                        <path fill="#231052" d="M69.8,112.1c-0.4-0.1-0.8,0.5-1,1.2l-0.5,3.2c0,0.3,0,0.6,0,0.8
                           c-0.3-0.2-0.4-0.7-0.3-1.3l0.5-3.2c0.1-0.7,0.5-1.3,1-1.2c0.2,0,0.4,0.3,0.5,0.6C69.9,112.2,69.9,112.1,69.8,112.1z" opacity="0.1"/>
                    </g>
                    <path fill="#DCDCDC" d="M48.1,108.7c-0.1,0.1-0.1,0.3,0,0.4l0,0c0.1,0.1,0.3,0.1,0.4,0l0.9-1c0.1-0.1,0.1-0.3,0-0.4l0,0
                       c-0.1-0.1-0.3-0.1-0.4,0L48.1,108.7z"/>
                    <path fill="#231052" d="M49.5,108c-0.1-0.1-0.3-0.1-0.4,0l-0.9,1c-0.1,0.1-0.1,0.1-0.1,0.2
                       c-0.1-0.1-0.1-0.3,0-0.4l0.9-1c0.1-0.1,0.3-0.1,0.4,0C49.6,107.8,49.6,107.9,49.5,108C49.6,108,49.6,108,49.5,108z" opacity="0.1"/>
                </g>
                <g>
                    <path fill="#61ABD1" d="M51.6,108.4c0,0.3,0.2,0.5,0.5,0.6c0.3,0,0.5-0.2,0.6-0.5l0-0.2l-1,0L51.6,108.4z"/>
                    <path fill="#67B7E0" d="M51.6,108.2c0,0.2,0.2,0.5,0.5,0.5c0.3,0,0.5-0.1,0.6-0.4c0-0.2-0.2-0.5-0.5-0.5
                       C51.9,107.8,51.6,108,51.6,108.2z"/>
                    <path fill="#9A0D32" d="M53.1,109.6c0,0.2,0.1,0.4,0.4,0.4c0.2,0,0.4-0.1,0.4-0.4l0-0.2L53.1,109.6L53.1,109.6z"/>
                    <path fill="#B00F38" d="M53.1,109.5c0,0.2,0.1,0.4,0.4,0.4c0.2,0,0.4-0.1,0.4-0.3c0-0.2-0.1-0.4-0.4-0.4
                       C53.3,109.2,53.1,109.3,53.1,109.5z"/>
                    <path fill="#9A0D32" d="M54.6,109c0,0.2,0.1,0.4,0.4,0.4c0.2,0,0.4-0.1,0.4-0.4l0-0.2L54.6,109L54.6,109z"/>
                    <path fill="#B00F38" d="M54.6,108.9c0,0.2,0.1,0.4,0.4,0.4c0.2,0,0.4-0.1,0.4-0.3c0-0.2-0.1-0.4-0.4-0.4
                       C54.9,108.6,54.7,108.7,54.6,108.9z"/>
                    <path fill="#61ABD1" d="M54,107.4c0,0.3,0.2,0.5,0.5,0.6c0.3,0,0.5-0.2,0.6-0.5l0-0.2l-1,0L54,107.4z"/>
                    <path fill="#67B7E0" d="M54,107.3c0,0.2,0.2,0.5,0.5,0.5c0.3,0,0.5-0.1,0.6-0.4c0-0.2-0.2-0.5-0.5-0.5
                       C54.3,106.8,54,107,54,107.3z"/>
                    <path fill="#61ABD1" d="M52.8,107.8c0,0.3,0.2,0.5,0.5,0.6c0.3,0,0.5-0.2,0.6-0.5l0-0.2l-1,0L52.8,107.8z"/>
                    <path fill="#67B7E0" d="M52.8,107.7c0,0.2,0.2,0.5,0.5,0.5c0.3,0,0.5-0.1,0.6-0.4c0-0.2-0.2-0.5-0.5-0.5
                       C53.1,107.3,52.9,107.5,52.8,107.7z"/>
                </g>
            </g>
            <path fill="#FFFFFF" d="M43.7,97.7c0,0.2-0.2,0.4-0.4,0.4c-0.2,0-0.4-0.2-0.4-0.4c0-0.2,0.2-0.4,0.4-0.4
               C43.5,97.3,43.7,97.5,43.7,97.7z"/>
        </g>
    </g>
    <g id="the-moon">
        <path fill="#C1C1C1" d="M77.2,132.5l4.7,0.6c3.6,0.4,6.3,3.8,5.8,7.4l-0.4,3.6c-0.4,3.6-3.8,6.3-7.4,5.8l-4.7-0.6
           c-3.6-0.4-6.3-3.8-5.8-7.4l0.4-3.6C70.2,134.7,73.6,132.1,77.2,132.5z"/>
        <path fill="#C1C1C1" d="M130.2,103.8l2.5-6.6c1.1-2.8,4.3-4.3,7.2-3.2l5.5,2.1c2.8,1.1,4.3,4.3,3.2,7.2l-2.5,6.6
           c-1.1,2.8-4.3,4.3-7.2,3.2l-5.5-2.1C130.5,109.9,129.1,106.7,130.2,103.8z"/>
        <path fill="#D5D5D5" d="M136.5,52.8l2.5,3.3c2.3,3.1,1.7,7.5-1.4,9.8l-2.4,1.8c-3.1,2.3-7.5,1.7-9.8-1.4l-2.5-3.3
           c-2.3-3.1-1.7-7.5,1.4-9.8l2.4-1.8C129.8,49,134.2,49.7,136.5,52.8z"/>
        <path fill="#D5D5D5" d="M82.1,30l6.8,0.2c3.1,0.1,5.6,2.7,5.5,5.9l-0.2,5.7c-0.1,3.1-2.7,5.6-5.9,5.5L81.5,47
           c-3.1-0.1-5.6-2.7-5.5-5.9l0.2-5.7C76.3,32.4,79,29.9,82.1,30z"/>
        <path fill="#D5D5D5" d="M54.3,63.6l-2.5,3.2c-2.9,3.7-8.3,4.3-11.9,1.4l0,0c-3.7-2.9-4.3-8.3-1.4-11.9L41,53
           c2.9-3.7,8.3-4.3,11.9-1.4l0,0C56.6,54.5,57.2,59.9,54.3,63.6z"/>
        <path fill="#F6F6F6" d="M146.4,90.9c0,31.8-25.8,57.6-57.6,57.6c-31.8,0-57.6-25.8-57.6-57.6c0-31.8,25.8-57.6,57.6-57.6
           C120.6,33.2,146.4,59,146.4,90.9z"/>
        <path fill="#231052" d="M88.7,124.6c-27.7,0-50.9-19.6-56.4-45.7c-0.8,3.9-1.2,7.9-1.2,12
           c0,31.8,25.8,57.6,57.6,57.6c31.8,0,57.6-25.8,57.6-57.6c0-4.1-0.4-8.1-1.2-12C139.6,105,116.5,124.6,88.7,124.6z" opacity="0.15"/>
        <path fill="#E2E2E2" d="M74.8,57.7c1,2.3-1,5.4-4.5,6.9c-3.5,1.4-7.1,0.7-8-1.6c-1-2.3,1-5.4,4.5-6.9
           C70.3,54.6,73.9,55.3,74.8,57.7z"/>
        <path fill="#E2E2E2" d="M60,65c-1.5-3.5,1.6-8.2,6.8-10.3c3.9-1.6,7.8-1.4,10.2,0.2c-2.2-2.3-6.7-2.8-11.1-1
           c-5.2,2.2-8.3,6.8-6.8,10.3c0.4,0.9,1,1.7,1.9,2.2C60.6,66.1,60.2,65.6,60,65z"/>
        <path fill="#231052" d="M74.8,57.7c-0.2-0.6-0.6-1-1.1-1.4c0.7,2.3-1.3,5.1-4.6,6.5c-2.6,1.1-5.3,0.9-6.9-0.2
           c0,0.1,0.1,0.2,0.1,0.3c1,2.3,4.6,3.1,8,1.6C73.8,63.1,75.8,60,74.8,57.7z" opacity="0.15"/>
        <path fill="#E2E2E2" d="M94.7,44.4c0.2,1.4-1.7,2.8-4.2,3c-2.5,0.3-4.7-0.6-4.8-2c-0.2-1.4,1.7-2.8,4.2-3
           C92.4,42.1,94.5,43,94.7,44.4z"/>
        <path fill="#E2E2E2" d="M106.6,65.1c-1.1-0.6-1.3-2.4-0.6-4c-0.1,0.1-0.2,0.3-0.3,0.5c-1,1.8-0.9,3.8,0.3,4.5c1.2,0.7,3-0.2,4.1-2
           c0.1-0.2,0.2-0.3,0.2-0.5C109.3,65,107.7,65.7,106.6,65.1z"/>
        <path fill="#231052" d="M83.9,46.1c-0.2-2.2,2.8-4.4,6.8-4.9c1.7-0.2,3.3,0,4.6,0.4c-1.4-0.7-3.4-1-5.6-0.8
           c-4,0.4-7,2.6-6.8,4.9c0.1,1.3,1.4,2.3,3.1,2.9C84.8,48,84,47.1,83.9,46.1z" opacity="0.15"/>
        <path fill="#231052" d="M94.7,44.4c-0.1-1.2-1.8-2.1-3.8-2.1c1.1,0.3,1.9,1,2,1.8c0.2,1.4-1.7,2.8-4.2,3
           c-0.3,0-0.7,0.1-1,0c0.8,0.2,1.8,0.3,2.8,0.2C92.9,47.2,94.8,45.8,94.7,44.4z" opacity="0.15"/>
        <path fill="#E2E2E2" d="M46.8,78.5c2.2,1.3,2.3,5,0.4,8.1c-2,3.1-5.3,4.6-7.4,3.2c-2.2-1.3-2.3-5-0.4-8.1
           C41.4,78.6,44.7,77.2,46.8,78.5z"/>
        <path fill="#231052" d="M48.1,76.9c2.3,1.4,2.8,4.9,1.4,8.4c2-3.4,1.7-7.3-0.6-8.8c-1.2-0.8-2.8-0.7-4.3-0.1
           C45.8,76.1,47.1,76.3,48.1,76.9z" opacity="0.15"/>
        <path fill="#231052" d="M38.3,91.1c-3-1.8-3.4-6.6-1.1-10.9c-0.2,0.3-0.5,0.7-0.7,1c-2.9,4.6-2.7,10,0.5,12
           c3.2,2,8.1-0.1,11-4.8c0.2-0.3,0.4-0.7,0.6-1.1C45.7,91.2,41.3,92.9,38.3,91.1z" opacity="0.15"/>
        <path fill="#231052" d="M46.8,78.5c-2.2-1.3-5.5,0.1-7.4,3.2c-0.3,0.5-0.6,1-0.8,1.5c2-2.2,4.6-3,6.4-1.9
           c1.8,1.1,2.2,3.9,1.1,6.6c0.4-0.4,0.7-0.8,1-1.3C49.2,83.5,49,79.9,46.8,78.5z" opacity="0.15"/>
        <path fill="#E2E2E2" d="M63.7,101.5c4.7,2.9,6.5,8.4,4.1,12.2c-2.4,3.8-8.1,4.5-12.8,1.6s-6.5-8.4-4.1-12.2
           C53.3,99.3,59,98.5,63.7,101.5z"/>
        <path fill="#231052" d="M50.9,108.4c2.4-3.8,8.1-4.5,12.8-1.6c2.3,1.4,3.9,3.5,4.7,5.7c1.4-3.7-0.5-8.4-4.7-11
           c-4.7-2.9-10.4-2.2-12.8,1.6c-1.2,1.9-1.3,4.3-0.6,6.5C50.5,109.2,50.7,108.8,50.9,108.4z" opacity="0.15"/>
        <path fill="#231052" d="M73.3,109.4c0.1,1.9-0.3,3.8-1.3,5.5c-3.2,5.6-11.3,6.9-18.1,3c-3.7-2.2-6.3-5.4-7.3-8.9
           c0.2,4.4,3,9,7.8,11.7c6.8,3.9,14.9,2.6,18.1-3C74,115.2,74.2,112.3,73.3,109.4z" opacity="0.15"/>
        <path fill="#231052" d="M68,134.3c1.8-2.9,6.7-3.2,10.9-0.6c2.9,1.8,4.7,4.5,4.9,6.9c0.2-2.7-1.6-5.9-4.9-7.9
           c-4.2-2.6-9-2.3-10.9,0.6c-0.6,0.9-0.8,2-0.7,3.1C67.4,135.6,67.6,134.9,68,134.3z" opacity="0.15"/>
        <path fill="#231052" d="M80.9,138.3c-0.1,0.4-0.2,0.8-0.4,1.2c-1.3,2.2-4.9,2.3-8,0.4c-1.5-0.9-2.6-2.2-3.2-3.5
           c-0.4,2.1,1,4.6,3.5,6.2c3.1,1.9,6.6,1.7,8-0.4C81.5,141.1,81.5,139.7,80.9,138.3z" opacity="0.15"/>
        <path fill="#E2E2E2" d="M118.9,102.2c7,4.4,9.5,13,5.6,19.2c-3.9,6.2-12.7,7.8-19.7,3.4c-7-4.4-9.5-13-5.6-19.2
           C103.1,99.3,111.9,97.8,118.9,102.2z"/>
        <path fill="#231052" d="M103.1,113.4c3.9-6.2,12.7-7.8,19.7-3.4c1.3,0.8,2.4,1.7,3.3,2.8c-0.7-4.1-3.2-8-7.2-10.6
           c-7-4.4-15.8-2.8-19.7,3.4c-3.2,5.1-2.1,11.8,2.2,16.4C100.9,119,101.4,116,103.1,113.4z" opacity="0.15"/>
        <path fill="#231052" d="M130.1,111c0,3.6-1,7.3-3,10.7c-5.7,9-17.3,12-25.9,6.6c-4.3-2.7-7-6.9-8.1-11.5
           c0,6.2,3,12.1,8.5,15.5c8.7,5.4,20.3,2.5,25.9-6.6C130.4,121.1,131.1,115.8,130.1,111z" opacity="0.15"/>
        <path fill="#E2E2E2" d="M76.4,84.5c-0.4,1.2-2.1,1.6-3.8,1c-1.7-0.6-2.7-2-2.3-3.2c0.4-1.2,2.1-1.6,3.8-1
           C75.8,81.9,76.8,83.4,76.4,84.5z"/>
        <path fill="#231052" d="M77.2,82.6c0.3,0.6,0.4,1.3,0.2,2c-0.5,1.6-2.8,2.2-5.1,1.4c-1.1-0.4-1.9-1-2.5-1.7
           c0.5,1,1.6,1.9,2.9,2.3c2.3,0.8,4.6,0.2,5.1-1.4C78.1,84.4,77.8,83.4,77.2,82.6z" opacity="0.15"/>
        <path fill="#231052" d="M71.1,83.2c0.4-1.2,2.1-1.6,3.8-1c0.5,0.2,0.9,0.4,1.2,0.6c-0.4-0.6-1.1-1.2-2-1.5
           c-1.7-0.6-3.4-0.1-3.8,1c-0.3,0.8,0.2,1.8,1.1,2.5C71,84.4,70.9,83.8,71.1,83.2z" opacity="0.15"/>
        <path fill="#231052" d="M102,80.5c-1.2-0.4-2.4-0.1-3.1,0.7c0.5-0.1,1.1,0,1.6,0.1c1.5,0.5,2.4,2,1.9,3.2
           c-0.1,0.2-0.2,0.5-0.4,0.7c0.9-0.2,1.6-0.7,1.9-1.5C104.4,82.4,103.5,81,102,80.5z" opacity="0.15"/>
        <path fill="#231052" d="M101.2,86c-3.1-0.8-5-3.6-4.3-6.2c0.1-0.5,0.3-0.9,0.6-1.2C96.6,79.2,96,80,95.7,81
           c-0.7,2.6,1.2,5.3,4.3,6.2c2.5,0.7,5-0.1,6.2-1.9C104.9,86.2,103,86.5,101.2,86z" opacity="0.15"/>
        <path fill="#231052" d="M132,84.9c0,0.5-0.1,0.9-0.4,1.4c-0.6,0.8-1.7,1-2.4,0.5c-0.1-0.1-0.2-0.2-0.3-0.4
           c0,0.4,0.2,0.8,0.5,1c0.7,0.5,1.7,0.3,2.4-0.5C132.2,86.2,132.3,85.5,132,84.9z" opacity="0.15"/>
        <path fill="#231052" d="M107.1,61.2c0.9-0.6,2-0.4,2.5,0.3c0.2,0.4,0.3,0.8,0.1,1.3c0.5-0.6,0.6-1.3,0.2-1.9
           c-0.5-0.8-1.6-0.9-2.5-0.3c-0.5,0.3-0.8,0.7-0.9,1.2C106.7,61.5,106.8,61.4,107.1,61.2z" opacity="0.15"/>
        <path fill="#231052" d="M131.5,68.6c-0.3-0.9-1.3-1.3-2.4-1c-0.4,0.1-0.8,0.4-1.1,0.7c0.2-0.1,0.4-0.2,0.6-0.3
           c1-0.3,2.1,0.1,2.4,1c0.2,0.5,0,1-0.3,1.4C131.4,70,131.7,69.3,131.5,68.6z" opacity="0.15"/>
        <path fill="#231052" d="M108.9,50.3c0.2-1.2,2.1-1.8,4.2-1.3c0.6,0.1,1.1,0.3,1.5,0.5c-0.6-0.7-1.6-1.3-2.9-1.5
           c-2.1-0.4-4,0.2-4.2,1.3c-0.2,0.9,0.6,1.8,1.8,2.4C109,51.2,108.9,50.7,108.9,50.3z" opacity="0.15"/>
        <g>
            <g>
                <path fill="#231052" d="M40.6,114.6c-1.6-3.3-4-5.4-5.4-4.7c-0.3,0.1-0.4,0.4-0.5,0.4c0.9,0.3,2.9,2.2,4.3,5.1
                   c1.3,2.8,1.2,5.4,0.9,6.4c0.5,0.2,0.9-0.1,1-0.1C42.2,121.1,42.1,117.9,40.6,114.6z" opacity="0.15"/>
            </g>
            <path fill="#C1C1C1" d="M38.9,115.4c1.5,3.2,2.1,6.1,1.3,6.5c-0.8,0.4-2.7-1.9-4.2-5.1c-1.5-3.2-2.1-6.1-1.3-6.5
               C35.5,109.9,37.4,112.2,38.9,115.4z"/>
            <path fill="#231052" d="M38.9,115.4c-0.1-0.3-0.3-0.6-0.5-0.9c1.2,2.8,1.6,5.2,0.9,5.6c-0.7,0.3-2.3-1.5-3.8-4.2
               c0.1,0.3,0.3,0.6,0.4,0.9c1.5,3.2,3.4,5.5,4.2,5.1C41,121.5,40.4,118.6,38.9,115.4z" opacity="0.15"/>
        </g>
        <path fill="#231052" d="M130.6,71.3c-1.6,0.5-3.2-0.2-3.6-1.5c-0.2-0.7-0.1-1.5,0.4-2.2c-0.9,0.7-1.3,1.8-1,2.8
           c0.4,1.3,2.1,2,3.6,1.5c0.7-0.2,1.2-0.6,1.6-1.2C131.4,71,131,71.2,130.6,71.3z" opacity="0.15"/>
    </g>
</svg>
